<svg width="15" height="15" viewBox="0 0 15 15" fill="none" xmlns="http://www.w3.org/2000/svg">
<g id="heroicons-outline:cake">
<g id="Group">
<path id="Vector" d="M13.125 9.71625C12.7981 9.71625 12.4712 9.81062 12.1875 10C11.9099 10.1851 11.5837 10.2839 11.25 10.2839C10.9163 10.2839 10.5901 10.1851 10.3125 10C10.0349 9.8149 9.70867 9.71613 9.375 9.71613C9.04133 9.71613 8.71512 9.8149 8.4375 10C8.15988 10.1851 7.83367 10.2839 7.5 10.2839C7.16633 10.2839 6.84012 10.1851 6.5625 10C6.28488 9.8149 5.95867 9.71613 5.625 9.71613C5.29133 9.71613 4.96512 9.8149 4.6875 10C4.40988 10.1851 4.08367 10.2839 3.75 10.2839C3.41633 10.2839 3.09012 10.1851 2.8125 10C2.53491 9.81484 2.20868 9.7161 1.875 9.71625H13.125ZM5.625 3.75V5V3.75ZM7.5 3.75V5V3.75ZM9.375 3.75V5V3.75ZM5.625 1.875H5.63125H5.625ZM7.5 1.875H7.50625H7.5ZM9.375 1.875H9.38125H9.375ZM13.125 13.125V8.75C13.125 8.41848 12.9933 8.10054 12.7589 7.86612C12.5245 7.6317 12.2065 7.5 11.875 7.5H3.125C2.79348 7.5 2.47554 7.6317 2.24112 7.86612C2.0067 8.10054 1.875 8.41848 1.875 8.75V13.125H13.125ZM11.25 7.5V6.25C11.25 5.91848 11.1183 5.60054 10.8839 5.36612C10.6495 5.1317 10.3315 5 10 5H5C4.66848 5 4.35054 5.1317 4.11612 5.36612C3.8817 5.60054 3.75 5.91848 3.75 6.25V7.5H11.25Z" stroke="white" stroke-width="1.73333" stroke-linecap="round" stroke-linejoin="round"/>
</g>
</g>
</svg>
