<svg width="15" height="15" viewBox="0 0 15 15" fill="none" xmlns="http://www.w3.org/2000/svg">
<path id="Vector" d="M13.058 6.75837H9.375V3.82729H8.16964C8.54274 3.3731 8.74321 2.82033 8.74065 2.25284C8.74065 1.40893 8.30273 0.615985 7.5978 0.183498L7.29874 0L6.99971 0.183498C6.29464 0.616046 5.85686 1.40897 5.85686 2.25284C5.85435 2.82034 6.05488 3.37309 6.42804 3.82726H5.08929V6.75834H1.94196C1.4271 6.75888 0.933496 6.94562 0.569434 7.27761C0.205372 7.60959 0.000584879 8.05971 0 8.52921V14.023C0.000319032 14.282 0.113304 14.5303 0.314166 14.7135C0.515029 14.8967 0.787366 14.9997 1.07143 15H13.9286C14.2126 14.9997 14.485 14.8967 14.6858 14.7135C14.8867 14.5303 14.9997 14.282 15 14.023V8.52924C14.9994 8.05974 14.7946 7.60962 14.4306 7.27764C14.0665 6.94565 13.5729 6.75891 13.058 6.75837ZM7.29874 1.24657C7.53278 1.51171 7.66922 1.87144 7.66922 2.25287C7.66922 2.63431 7.53278 2.99407 7.29874 3.25918C7.06473 2.99407 6.92829 2.63431 6.92829 2.25284C6.92829 1.87137 7.06473 1.51171 7.29874 1.24657ZM6.16071 4.80432H8.30357V6.75837H6.16071V4.80432ZM1.07143 8.52924C1.07169 8.31877 1.1635 8.117 1.3267 7.96818C1.4899 7.81936 1.71117 7.73564 1.94196 7.7354H13.058C13.2888 7.73564 13.5101 7.81936 13.6733 7.96818C13.8365 8.117 13.9283 8.31877 13.9286 8.52924V9.49335L13.2054 9.78435C13.0639 9.8411 12.9111 9.87041 12.7565 9.87041C12.602 9.87041 12.4492 9.8411 12.3077 9.78435L11.0491 9.27792L9.79018 9.78432C9.64873 9.84108 9.49588 9.87039 9.34135 9.87039C9.18682 9.87039 9.03397 9.84108 8.89252 9.78432L7.63393 9.27789L6.375 9.78429C6.23355 9.84105 6.08071 9.87037 5.92617 9.87037C5.77164 9.87037 5.61879 9.84105 5.47734 9.78429L4.21875 9.27792L2.96006 9.78429C2.81861 9.84105 2.66576 9.87037 2.51123 9.87037C2.35669 9.87037 2.20384 9.84105 2.0624 9.78429L1.07143 9.38566V8.52924ZM13.9286 14.023H1.07143V10.4536L1.62984 10.6782C1.90759 10.7897 2.20772 10.8472 2.51116 10.8472C2.8146 10.8472 3.11473 10.7897 3.39248 10.6782L4.21875 10.3458L5.04506 10.6782C5.32279 10.7897 5.62292 10.8472 5.92636 10.8472C6.22979 10.8472 6.52992 10.7897 6.80766 10.6782L7.63393 10.3458L8.46017 10.6782C8.7379 10.7897 9.03802 10.8472 9.34145 10.8472C9.64488 10.8472 9.945 10.7897 10.2227 10.6782L11.0491 10.3458L11.8754 10.6782C12.1531 10.7897 12.4532 10.8472 12.7566 10.8472C13.0601 10.8472 13.3602 10.7897 13.6379 10.6782L13.929 10.5611L13.9292 14.023H13.9286Z" fill="white"/>
</svg>
