<svg width="15" height="15" viewBox="0 0 15 15" fill="none" xmlns="http://www.w3.org/2000/svg">
<g id="Group">
<path id="Vector" d="M7.5 0C8.0355 0 8.56425 0.0562499 9.0795 0.1665C9.17836 0.187669 9.26969 0.235091 9.34388 0.303779C9.41806 0.372466 9.47237 0.459878 9.50107 0.556819C9.52978 0.653761 9.53183 0.756647 9.507 0.854654C9.48218 0.952661 9.43139 1.04216 9.36 1.11375C9.12411 1.35059 8.9558 1.64616 8.87249 1.96988C8.78917 2.2936 8.79387 2.63371 8.8861 2.955C8.97834 3.27629 9.15475 3.5671 9.3971 3.79733C9.63944 4.02756 9.9389 4.18885 10.2645 4.2645C10.3985 4.29544 10.5166 4.37442 10.5963 4.4865C10.6761 4.59857 10.712 4.73599 10.6973 4.87275C10.6573 5.26751 10.7436 5.66477 10.9437 6.00738C11.1439 6.34998 11.4475 6.62027 11.811 6.77934C12.1745 6.93841 12.5791 6.97807 12.9666 6.8926C13.354 6.80714 13.7044 6.60097 13.9672 6.30375C14.0392 6.22234 14.1331 6.16349 14.2377 6.13431C14.3423 6.10513 14.4532 6.10686 14.5568 6.1393C14.6605 6.17174 14.7525 6.2335 14.8219 6.31711C14.8912 6.40073 14.9348 6.50263 14.9475 6.6105C14.9827 6.903 15 7.20075 15 7.5C15 11.6423 11.6423 15 7.5 15C3.35775 15 0 11.6423 0 7.5C0 3.35775 3.35775 0 7.5 0ZM7.5 1.125C6.26362 1.12507 5.05393 1.48467 4.01828 2.16C2.98262 2.83532 2.16569 3.79724 1.66698 4.92858C1.16827 6.05992 1.00931 7.31187 1.20945 8.53195C1.40959 9.75203 1.9602 10.8876 2.79421 11.8003C3.62822 12.713 4.70965 13.3635 5.90678 13.6726C7.10392 13.9817 8.36509 13.936 9.5367 13.541C10.7083 13.1461 11.7398 12.419 12.5055 11.4483C13.2713 10.4776 13.7382 9.30512 13.8495 8.07375L13.8638 7.881L13.869 7.76325L13.7235 7.82925C13.476 7.9335 13.2135 8.004 12.9412 8.03925L12.7358 8.05725L12.5625 8.0625C11.8445 8.06252 11.1503 7.80508 10.6059 7.33692C10.0615 6.86876 9.703 6.22092 9.5955 5.511L9.57675 5.36025L9.56625 5.22L9.4575 5.175C8.97865 4.95934 8.56473 4.62187 8.25705 4.19627C7.94936 3.77067 7.75867 3.27182 7.704 2.7495L7.69125 2.5875L7.6875 2.4375C7.6875 2.10225 7.743 1.776 7.848 1.4685L7.91625 1.28625L7.98 1.14375L7.773 1.131L7.5 1.125ZM9.75 10.5C9.94891 10.5 10.1397 10.579 10.2803 10.7197C10.421 10.8603 10.5 11.0511 10.5 11.25C10.5 11.4489 10.421 11.6397 10.2803 11.7803C10.1397 11.921 9.94891 12 9.75 12C9.55109 12 9.36032 11.921 9.21967 11.7803C9.07902 11.6397 9 11.4489 9 11.25C9 11.0511 9.07902 10.8603 9.21967 10.7197C9.36032 10.579 9.55109 10.5 9.75 10.5ZM4.5 9.75C4.69891 9.75 4.88968 9.82902 5.03033 9.96967C5.17098 10.1103 5.25 10.3011 5.25 10.5C5.25 10.6989 5.17098 10.8897 5.03033 11.0303C4.88968 11.171 4.69891 11.25 4.5 11.25C4.30109 11.25 4.11032 11.171 3.96967 11.0303C3.82902 10.8897 3.75 10.6989 3.75 10.5C3.75 10.3011 3.82902 10.1103 3.96967 9.96967C4.11032 9.82902 4.30109 9.75 4.5 9.75ZM7.5 6.75C7.69891 6.75 7.88968 6.82902 8.03033 6.96967C8.17098 7.11032 8.25 7.30109 8.25 7.5C8.25 7.69891 8.17098 7.88968 8.03033 8.03033C7.88968 8.17098 7.69891 8.25 7.5 8.25C7.30109 8.25 7.11032 8.17098 6.96967 8.03033C6.82902 7.88968 6.75 7.69891 6.75 7.5C6.75 7.30109 6.82902 7.11032 6.96967 6.96967C7.11032 6.82902 7.30109 6.75 7.5 6.75ZM3.75 4.5C3.94891 4.5 4.13968 4.57902 4.28033 4.71967C4.42098 4.86032 4.5 5.05109 4.5 5.25C4.5 5.44891 4.42098 5.63968 4.28033 5.78033C4.13968 5.92098 3.94891 6 3.75 6C3.55109 6 3.36032 5.92098 3.21967 5.78033C3.07902 5.63968 3 5.44891 3 5.25C3 5.05109 3.07902 4.86032 3.21967 4.71967C3.36032 4.57902 3.55109 4.5 3.75 4.5Z" fill="white"/>
</g>
</svg>
