<svg width="15" height="15" viewBox="0 0 15 15" fill="none" xmlns="http://www.w3.org/2000/svg">
<path id="Vector" d="M14.4434 3.5914C14.0527 3.24456 13.6523 3.21978 13.2422 3.51708C12.4609 3.93824 11.8164 4.66909 11.3086 5.70961C10.7617 4.37179 9.91211 3.41798 8.75977 2.84817V1.58468C8.75977 1.16351 8.61328 0.742347 8.32031 0.321182C8.00781 0.048664 7.64648 -0.0504336 7.23633 0.0238896C6.14258 0.321182 5.41992 1.13874 5.06836 2.47655C3.66211 2.84817 2.46582 3.5914 1.47949 4.70625C0.493164 5.82109 0 7.13414 0 8.64537C0 10.4291 0.683594 11.9342 2.05078 13.1605C3.41797 14.3868 4.92188 15 6.5625 15C7.65625 15 8.61816 14.7027 9.44824 14.1081C10.2783 13.5135 10.8984 12.696 11.3086 11.6555C11.8164 12.696 12.4609 13.4392 13.2422 13.8852C13.5156 13.9843 13.6816 14.0338 13.7402 14.0338C13.9941 14.0338 14.2285 13.9595 14.4434 13.8108C14.8145 13.4888 15 13.0428 15 12.473V4.85489C15 4.23553 14.8145 3.81437 14.4434 3.5914ZM6.5625 2.32791C6.66016 2.03061 6.97266 1.78287 7.5 1.58468V2.32791H6.5625ZM1.25977 8.64537C1.25977 7.90214 1.46973 7.19607 1.88965 6.52716C2.30957 5.85826 2.87109 5.30083 3.57422 4.85489C4.10156 5.67245 4.36523 6.93594 4.36523 8.64537C4.36523 10.3548 4.10156 11.6307 3.57422 12.473C2.87109 12.0271 2.30957 11.4635 1.88965 10.7822C1.46973 10.1009 1.25977 9.3886 1.25977 8.64537ZM6.5625 13.4021C6.09375 13.4021 5.48828 13.303 4.74609 13.1048C5.33203 11.8413 5.625 10.3548 5.625 8.64537C5.625 6.96072 5.33203 5.48664 4.74609 4.22315C5.21484 4.00018 5.82031 3.88869 6.5625 3.88869C7.77344 3.88869 8.75488 4.32224 9.50684 5.18935C10.2588 6.05645 10.6348 7.20846 10.6348 8.64537C10.6348 10.0823 10.2588 11.2343 9.50684 12.1014C8.75488 12.9685 7.77344 13.4021 6.5625 13.4021ZM13.7402 12.696C12.4902 11.6555 11.8652 10.3548 11.8652 8.79402C11.8652 7.97646 12.0557 7.18988 12.4365 6.43426C12.8174 5.67864 13.252 5.17696 13.7402 4.92922V12.696ZM3.75 7.86498C3.75 8.08795 3.68652 8.27376 3.55957 8.4224C3.43262 8.57105 3.29102 8.64537 3.13477 8.64537C2.95898 8.64537 2.80762 8.57105 2.68066 8.4224C2.55371 8.27376 2.49023 8.08795 2.49023 7.86498C2.49023 7.64201 2.55371 7.4562 2.68066 7.30756C2.80762 7.15891 2.95898 7.08459 3.13477 7.08459C3.29102 7.08459 3.43262 7.15891 3.55957 7.30756C3.68652 7.4562 3.75 7.64201 3.75 7.86498Z" fill="white"/>
</svg>
