<svg width="35" height="35" viewBox="0 0 35 35" fill="none" xmlns="http://www.w3.org/2000/svg">
<g id="emojione-monotone:green-salad">
<path id="Vector" d="M21.7891 15.4661C21.4708 14.519 20.9852 14.1799 20.4236 14.1799C19.7389 14.1799 18.9404 14.6825 18.1896 15.2031C17.7428 15.5137 16.013 17.424 15.0696 17.424C14.9615 17.4269 14.8553 17.3955 14.7661 17.3343C13.8452 16.6824 14.9991 13.8419 14.9991 12.4797C14.9991 11.1611 14.7596 10.6575 14.3926 10.6575C13.3782 10.6575 11.3908 14.52 10.8368 15.6346C10.6804 15.949 10.4622 16.0732 10.209 16.0732C9.32363 16.0732 8.00676 14.5501 7.40191 14.3166C7.31168 14.28 7.21546 14.2603 7.11809 14.2586C6.10746 14.2586 6.12934 16.7726 6.14465 17.4398C6.69699 17.2889 7.21488 17.1959 7.6677 17.1959C8.80902 17.1959 9.53473 17.7871 9.34551 19.5223C9.30285 19.9122 9.05621 21.1547 9.45981 21.4287C9.52459 21.4709 9.60077 21.492 9.67801 21.4894C10.1434 21.4894 10.8806 20.9158 11.1546 20.7408C11.5232 20.5045 11.9098 20.3317 12.2368 20.3317C12.6306 20.3317 12.9379 20.5816 13.026 21.2734C13.0785 21.683 12.8778 23.2416 13.2792 23.4904C13.3381 23.5259 13.4057 23.5443 13.4744 23.5435C14.2154 23.5435 15.4804 21.6918 16.0529 21.4796C16.3218 21.38 16.6063 21.3295 16.8929 21.3303C17.6547 21.3303 18.3793 21.6666 19.1204 21.951C19.245 21.9991 19.3468 22.0199 19.4293 22.0199C19.8772 22.0199 19.7471 21.3981 19.3637 21.0005C18.8054 20.4186 17.9194 20.674 17.2982 20.2573C16.509 19.7279 17.6077 18.6643 18.0343 18.3487C18.5434 17.9714 19.6721 17.3649 20.5729 17.3649C20.9901 17.3649 21.3582 17.495 21.5922 17.8374C22.0346 18.4843 21.2986 19.3014 21.4845 20.0276C21.5627 20.329 21.7519 20.4329 21.9761 20.4329C22.4536 20.4329 23.0863 19.9615 23.13 19.9166C23.421 19.6143 23.7342 19.334 24.0668 19.0783C22.4043 18.7102 22.2632 16.8804 21.7891 15.4661Z" fill="white"/>
<path id="Vector_2" d="M8.15661 14.1032C8.15661 14.1032 9.59435 15.3714 10.2085 15.3714C10.3261 15.3714 10.4141 15.3249 10.4551 15.2123C11.3389 12.7924 13.2075 10.0268 14.4276 10.0268C14.9597 10.0268 15.3683 10.5535 15.517 11.866C15.7095 13.5651 14.5343 16.1403 15.0992 16.7271C15.1115 16.7396 15.1263 16.7493 15.1426 16.7557C15.1589 16.7621 15.1763 16.765 15.1938 16.7643C15.8287 16.7643 18.3372 13.552 20.4843 13.552C20.6495 13.5516 20.8141 13.572 20.9743 13.6127C22.9086 14.1087 22.0702 17.4069 23.6403 18.3492C23.9003 18.5075 24.1983 18.5924 24.5027 18.5947C25.0813 18.5947 25.6096 18.2649 25.7359 17.583C26.0547 15.8614 20.5871 12.5244 23.5451 12.5244C23.9695 12.5244 24.5672 12.5928 25.3799 12.7448C25.8639 9.42854 25.6949 8.50924 25.2618 8.50924C24.7679 8.50924 23.9301 9.70307 23.3204 9.90869C23.3027 9.91461 23.2843 9.91774 23.2657 9.91799C22.9173 9.91799 22.9293 8.66346 22.3333 8.66346C21.9483 8.66346 21.31 9.18682 20.1583 10.9073C19.5644 11.7949 19.1198 12.146 18.7687 12.146C17.4333 12.146 17.471 7.0376 15.8686 7.0376C15.5449 7.0376 15.1544 7.24596 14.6721 7.74635C13.9316 8.51525 13.2404 8.7876 12.5934 8.7876C11.0179 8.7876 9.71247 7.16939 8.64224 7.16939C8.22005 7.16939 7.83341 7.4215 7.48232 8.12588C6.75552 9.58658 9.21646 9.51111 8.15661 14.1032ZM10.0395 14.7606C9.75185 14.6315 9.24107 14.2859 8.762 13.8921C8.8506 13.4585 8.90529 13.0691 8.937 12.7103C9.07208 12.4839 9.23833 12.2608 9.44122 12.0541C10.2675 11.2113 11.3263 10.945 11.8453 11.4317C11.1054 12.4517 10.454 13.7002 10.0395 14.7606ZM22.1861 12.5873C21.916 13.2266 22.4415 13.9014 23.246 14.7835C23.1899 14.8449 23.1246 14.8971 23.0524 14.9383C22.9758 14.9808 22.8926 15.0102 22.8063 15.0253C22.5504 14.1612 22.1211 13.3316 21.1077 13.0718C20.9588 13.0355 20.8068 13.013 20.6538 13.0046C20.3793 12.1121 20.5067 11.2737 21.0268 10.9838C21.5999 10.6628 22.4355 11.1211 23.0059 12.0103C22.6882 12.071 22.3425 12.2176 22.1861 12.5873Z" fill="white"/>
<path id="Vector_3" d="M26.2533 17.5951C26.1335 18.3776 27.271 18.5176 26.7274 19.7995C26.4485 20.4552 24.0865 21.9668 24.2604 22.2976C24.518 22.7816 24.8275 22.9698 25.1409 22.9698C25.7611 22.9698 26.3927 22.2337 26.647 21.596C26.98 20.762 27.0659 18.5729 27.8775 18.1671C28.0147 18.0976 28.1504 18.067 28.2843 18.067C29.0855 18.067 29.8342 19.1504 30.5561 19.2969C30.7322 18.5127 30.6064 17.699 30.7858 16.9104C27.7386 16.8721 32.4789 12.7077 29.7702 11.0085C29.6242 10.9172 29.5017 10.8762 29.3945 10.8767C28.5419 10.8767 28.7404 13.4875 26.5863 13.4875C26.4146 13.4875 26.227 13.4705 26.023 13.4344C25.235 13.2955 24.6908 13.231 24.3348 13.231C22.26 13.2321 26.5896 15.4147 26.2533 17.5951Z" fill="white"/>
<path id="Vector_4" d="M31.6495 13.5039C31.7272 13.0341 31.7313 12.5552 31.6616 12.0842C31.4658 10.7722 30.4404 9.70472 29.3762 9.70417C29.0125 9.70417 28.1419 9.85565 27.7301 11.1479C27.4531 11.0322 27.1736 10.9228 26.8917 10.8198C27.1351 9.1819 27.0437 8.05917 26.6068 7.4855C26.5014 7.34197 26.3636 7.22535 26.2046 7.14514C26.0456 7.06494 25.8699 7.02341 25.6919 7.02394C25.1198 7.02394 24.4773 7.40675 23.6788 8.22542L23.6498 8.14776C23.4803 7.68948 23.197 6.92276 22.4369 6.92276C21.9173 6.92276 21.2294 7.24323 19.7834 9.35089C19.3641 9.32004 18.9442 9.29762 18.524 9.28362L18.4463 9.00144C17.9952 7.34495 17.4833 5.46808 16.0412 5.46753H16.0406C15.4527 5.46753 14.8342 5.8137 14.149 6.52519C13.6388 7.05565 13.134 7.31323 12.6052 7.31323C11.9604 7.31323 11.3003 6.94354 10.6616 6.58644C10.0157 6.2255 9.34852 5.85198 8.65836 5.85198C7.84023 5.85198 7.17523 6.35347 6.62508 7.38542C5.99672 8.56448 6.34617 9.34323 6.68414 10.0968C6.8318 10.4255 6.98656 10.7739 7.09648 11.2015C3.43406 12.7743 1.0918 15.156 1.0918 17.8264C1.0918 25.2272 8.43742 33.9061 17.498 33.9061C26.5592 33.9061 33.9043 25.2272 33.9043 17.8264C33.9043 16.2481 33.0741 14.7737 31.6495 13.5039ZM17.498 32.791C10.6014 32.791 4.80234 27.3792 2.87352 21.7119C5.58547 24.495 11.1138 26.4019 17.498 26.4019C23.8823 26.4019 29.4095 24.4949 32.1215 21.7125C30.1927 27.3786 24.3941 32.791 17.498 32.791ZM23.5875 23.2284C23.4557 23.6429 23.0461 24.2729 22.538 24.7164C21.7538 25.4006 20.7979 25.5477 20.3423 25.0697C19.9595 24.6661 20.0224 23.9164 20.4621 23.2147C21.3623 21.7775 22.6529 21.4625 23.2129 21.7469C23.202 21.7863 23.1866 21.824 23.179 21.8661C23.1013 22.3031 23.2419 22.7614 23.5875 23.2284ZM31.9919 16.2021C31.4565 16.2021 31.1989 17.6853 31.1606 18.6177C31.1267 19.4396 30.8894 19.7136 30.5498 19.7136C30.0609 19.7136 29.3598 19.1471 28.7478 18.8266C28.552 18.7238 28.4016 18.6784 28.2835 18.6784C27.933 18.6784 27.869 19.088 27.7487 19.6677C27.5458 20.646 27.3041 21.661 26.7736 22.5049C26.3842 23.1245 25.7821 23.5554 25.1789 23.5554C24.7824 23.5554 24.3854 23.3695 24.0474 22.9292C22.7185 21.2022 25.6377 20.8489 26.2196 19.665C26.5565 18.9803 26.4488 18.7418 26.1403 18.7418C25.5333 18.7418 24.1491 19.6682 23.8637 19.9302C23.3595 20.3912 22.7803 21.0704 22.0716 21.0704C21.9518 21.0704 21.8277 21.0507 21.6997 21.0075C20.9477 20.7538 20.8422 19.8077 21.0013 19.105C21.1337 18.5176 21.4383 17.9899 20.653 17.9598C20.6253 17.9587 20.5976 17.9582 20.5698 17.9582C20.064 17.9582 19.5472 18.1244 19.0884 18.3322C18.5316 18.5849 17.7616 19.0366 17.5598 19.7C17.497 19.9039 18.8472 20.1167 19.0572 20.1976C20.1094 20.6089 20.624 22.5891 19.5231 22.5891C19.3809 22.5891 19.212 22.5557 19.0134 22.4835C18.3233 22.226 17.6293 21.8617 16.9069 21.8617C16.6695 21.8617 16.4295 21.9011 16.1861 21.9968C15.6819 22.1948 15.4062 22.7597 15.0092 23.1135C14.4219 23.6407 13.9023 23.924 13.4944 23.924C12.9322 23.924 12.5822 23.3859 12.5598 22.2041C12.5401 21.2438 12.3558 20.9326 12.0577 20.9326C11.5262 20.9326 10.6337 21.9252 9.675 21.9985C9.64711 22.0001 9.62031 22.0012 9.59461 22.0012C8.31547 22.0012 8.81313 19.5692 8.91266 18.8195C9.02148 18.0019 8.5282 17.7115 7.76859 17.7115C6.91492 17.7115 5.72766 18.0779 4.68203 18.4755C4.73234 18.5203 4.78484 18.5597 4.83297 18.6089C5.79 19.5638 6.10445 20.8232 5.53734 21.4199C4.96914 22.0154 3.73375 21.7239 2.77781 20.768C1.82188 19.8121 1.50633 18.5526 2.07453 17.9565C2.55961 17.4441 3.31375 17.6164 3.95523 17.9582C4.79359 17.6765 5.64398 17.431 5.6243 17.035C5.475 14.0403 6.3243 13.4814 6.98 13.482C7.22994 13.4882 7.47442 13.5564 7.69148 13.6805C8.2832 9.86933 6.06344 9.61065 7.10633 7.65339C7.60016 6.72753 8.11586 6.41144 8.65945 6.41144C9.82812 6.41144 11.1248 7.87214 12.6062 7.87214C13.2182 7.87214 13.8619 7.62222 14.5405 6.91729C15.1492 6.28511 15.6392 6.02644 16.0423 6.02644C17.8453 6.02698 17.8934 11.2053 18.9243 11.2053C19.1223 11.2053 19.3569 11.0145 19.6462 10.5595C21.1583 8.18495 21.9627 7.48112 22.4374 7.48112C23.1298 7.48112 23.1205 8.97847 23.5782 8.97847C23.6723 8.97847 23.7871 8.91448 23.9315 8.76081C24.6911 7.95198 25.2757 7.58175 25.6924 7.58175C26.6752 7.58175 26.7238 9.63854 25.9232 12.8427C25.9232 12.8427 26.102 12.8881 26.364 12.8881C26.9223 12.8881 27.8559 12.683 28.2212 11.4011C28.4514 10.5939 28.8993 10.2625 29.3773 10.2625C30.132 10.2625 30.9605 11.0883 31.1218 12.1684C31.4155 14.141 30.1145 15.5382 30.2162 16.1332C30.2337 16.2388 30.2856 16.2803 30.3633 16.2803C30.6548 16.2803 31.3094 15.687 31.8809 15.687C32.3069 15.687 32.6875 16.0178 32.8341 17.1739C32.4994 16.4734 32.2205 16.2021 31.9919 16.2021Z" fill="white"/>
</g>
</svg>
