<svg width="35" height="35" viewBox="0 0 35 35" fill="none" xmlns="http://www.w3.org/2000/svg">
<g id="Group">
<path id="Vector" d="M8.74992 15.3169C9.24554 15.3169 9.72086 15.1446 10.0713 14.8379C10.4218 14.5313 10.6187 14.1153 10.6187 13.6817C10.6187 13.248 10.4218 12.832 10.0713 12.5254C9.72086 12.2187 9.24554 12.0464 8.74992 12.0464C8.2543 12.0464 7.77898 12.2187 7.42852 12.5254C7.07807 12.832 6.88119 13.248 6.88119 13.6817C6.88119 14.1153 7.07807 14.5313 7.42852 14.8379C7.77898 15.1446 8.2543 15.3169 8.74992 15.3169ZM18.0573 18.0579C18.0573 18.4916 17.8605 18.9075 17.51 19.2142C17.1595 19.5209 16.6842 19.6931 16.1886 19.6931C15.693 19.6931 15.2177 19.5209 14.8672 19.2142C14.5168 18.9075 14.3199 18.4916 14.3199 18.0579C14.3199 17.6242 14.5168 17.2083 14.8672 16.9016C15.2177 16.595 15.693 16.4227 16.1886 16.4227C16.6842 16.4227 17.1595 16.595 17.51 16.9016C17.8605 17.2083 18.0573 17.6242 18.0573 18.0579ZM8.75992 25.1741C9.25786 25.1741 9.7354 25.001 10.0875 24.6929C10.4396 24.3848 10.6374 23.967 10.6374 23.5313C10.6374 23.0955 10.4396 22.6777 10.0875 22.3696C9.7354 22.0615 9.25786 21.8884 8.75992 21.8884C8.26198 21.8884 7.78443 22.0615 7.43234 22.3696C7.08024 22.6777 6.88244 23.0955 6.88244 23.5313C6.88244 23.967 7.08024 24.3848 7.43234 24.6929C7.78443 25.001 8.26198 25.1741 8.75992 25.1741ZM0 4.27831C0 1.88291 2.23748 -0.144987 5.07495 0.0081438C16.1924 0.605355 25.9423 3.88017 33.5797 10.2614C35.7472 12.0705 35.3197 15.0259 33.0722 16.5354C29.5748 18.8979 26.0539 21.2336 22.5098 23.5422V27.3486C22.5098 28.9171 21.1223 30.63 18.7598 30.63C18.3073 30.63 17.8898 30.5643 17.5148 30.455V30.6365C17.5148 32.1963 16.1249 33.8982 13.7574 33.8982C11.8724 33.8982 10.6299 32.811 10.1924 31.6013C8.82242 32.4982 7.32493 33.4738 5.98744 34.3445C3.51247 35.9567 0 34.4101 0 31.7172V4.27831ZM17.5123 27.3486C17.5123 27.9152 17.9998 28.4424 18.7598 28.4424C19.5223 28.4424 20.0098 27.913 20.0098 27.3486V22.9865C20.01 22.8141 20.0567 22.6442 20.1462 22.4906C20.2357 22.337 20.3654 22.2041 20.5248 22.1028C22.4748 20.8646 25.7948 18.6573 28.7347 16.6907C22.0023 11.0817 12.5649 7.75439 2.49998 7.68657V31.7172C2.50067 31.9196 2.56551 32.1178 2.68731 32.2899C2.8091 32.462 2.98306 32.6011 3.18983 32.6918C3.3966 32.7825 3.62807 32.8212 3.85849 32.8036C4.08891 32.786 4.30924 32.7129 4.49496 32.5922C6.45994 31.3103 8.77742 29.8009 10.5174 28.659C10.7031 28.5371 10.9239 28.4629 11.1551 28.4446C11.3863 28.4264 11.6188 28.4648 11.8264 28.5557C12.034 28.6465 12.2087 28.7862 12.3307 28.959C12.4527 29.1317 12.5174 29.3309 12.5174 29.534V30.6365C12.5174 31.1747 12.9924 31.7128 13.7574 31.7128C13.9212 31.7163 14.0841 31.6911 14.2365 31.6385C14.389 31.5859 14.5278 31.5071 14.6448 31.4068C14.7618 31.3064 14.8547 31.1866 14.9178 31.0543C14.9809 30.9219 15.0131 30.7799 15.0124 30.6365V27.3486C15.0124 27.0585 15.1441 26.7803 15.3785 26.5752C15.6129 26.37 15.9308 26.2548 16.2624 26.2548C16.5939 26.2548 16.9118 26.37 17.1462 26.5752C17.3806 26.7803 17.5123 27.0585 17.5123 27.3486ZM31.5472 14.8028C32.7097 14.0218 32.7972 12.6305 31.8522 11.8408C24.7098 5.87525 15.5524 2.76232 4.92245 2.18917C3.62497 2.11916 2.49998 3.05108 2.49998 4.27831V5.49899C13.3174 5.57118 23.5048 9.18944 30.7422 15.3431L31.5472 14.8028Z" fill="white"/>
</g>
</svg>
