<svg width="54" height="54" viewBox="0 0 54 54" fill="none" xmlns="http://www.w3.org/2000/svg">
<path d="M3.73211 35.4817H2.28711V36.3546H3.73211V35.4817Z" fill="white"/>
<path d="M6.62274 35.4817H5.17773V36.3546H6.62274V35.4817Z" fill="white"/>
<path d="M9.51336 35.4817H8.06836V36.3546H9.51336V35.4817Z" fill="white"/>
<path d="M12.404 35.4817H10.959V36.3546H12.404V35.4817Z" fill="white"/>
<path d="M15.2927 35.4817H13.8477V36.3546H15.2927V35.4817Z" fill="white"/>
<path d="M18.1833 35.4817H16.7383V36.3546H18.1833V35.4817Z" fill="white"/>
<path d="M21.072 35.4817H19.627V36.3546H21.072V35.4817Z" fill="white"/>
<path d="M23.9626 35.4817H22.5176V36.3546H23.9626V35.4817Z" fill="white"/>
<path d="M26.8532 35.4817H25.4082V36.3546H26.8532V35.4817Z" fill="white"/>
<path d="M29.7438 35.4817H28.2988V36.3546H29.7438V35.4817Z" fill="white"/>
<path d="M32.6325 35.4817H31.1875V36.3546H32.6325V35.4817Z" fill="white"/>
<path d="M35.9437 36.0428C35.9437 40.8054 34.1168 45.3729 30.8649 48.7405C27.613 52.1082 23.2025 54.0001 18.6037 54.0001C14.0048 54.0001 9.59433 52.1082 6.34245 48.7405C3.09056 45.3729 1.26367 40.8054 1.26367 36.0428H35.9437Z" fill="#FDA47A"/>
<path d="M42.1747 34.9846L31.1445 0.935706C33.3033 0.184033 35.584 -0.119554 37.8561 0.042308C40.1283 0.20417 42.3473 0.828305 44.3863 1.87902C46.4254 2.92973 48.2444 4.38641 49.7394 6.16574C51.2344 7.94508 52.376 10.0122 53.0989 12.2488C53.2157 12.6092 53.3217 12.972 53.4156 13.3349C54.551 17.7473 54.0206 22.4418 51.9325 26.4636C49.8443 30.4854 46.3551 33.5323 42.1747 34.9846Z" fill="#FDA47A"/>
<path d="M35.523 38.8486C36.72 38.8486 37.6905 37.8436 37.6905 36.6039C37.6905 35.3642 36.72 34.3593 35.523 34.3593C34.3259 34.3593 33.3555 35.3642 33.3555 36.6039C33.3555 37.8436 34.3259 38.8486 35.523 38.8486Z" fill="white"/>
<path d="M13.4868 40.7192C13.3272 40.7192 13.174 40.7849 13.0611 40.9019C12.9482 41.0188 12.8848 41.1774 12.8848 41.3428C12.8848 41.5081 12.9482 41.6667 13.0611 41.7836C13.174 41.9006 13.3272 41.9663 13.4868 41.9663H23.8427C24.0024 41.9663 24.1555 41.9006 24.2684 41.7836C24.3813 41.6667 24.4448 41.5081 24.4448 41.3428C24.4448 41.1774 24.3813 41.0188 24.2684 40.9019C24.1555 40.7849 24.0024 40.7192 23.8427 40.7192H13.4868Z" fill="white"/>
<path d="M0.541875 36.3546C0.398161 36.3546 0.26033 36.4137 0.158708 36.519C0.0570871 36.6242 0 36.7669 0 36.9158C0 37.0646 0.0570871 37.2073 0.158708 37.3126C0.26033 37.4178 0.398161 37.4769 0.541875 37.4769H2.10729C2.25101 37.4769 2.38884 37.4178 2.49046 37.3126C2.59208 37.2073 2.64917 37.0646 2.64917 36.9158C2.64917 36.7669 2.59208 36.6242 2.49046 36.519C2.38884 36.4137 2.25101 36.3546 2.10729 36.3546H0.541875Z" fill="white"/>
<path opacity="0.2" d="M11.1973 35.6064V35.357C12.2596 35.357 13.1239 33.9584 13.1239 32.2394H13.3648C13.3648 34.0959 12.3924 35.6064 11.1973 35.6064Z" fill="#FDA47A"/>
<path opacity="0.2" d="M20.4707 35.6064V35.357C21.5331 35.357 22.3974 33.9584 22.3974 32.2394H22.6382C22.6382 34.0959 21.6659 35.6064 20.4707 35.6064Z" fill="#FDA47A"/>
<path d="M18.6852 35.4572C18.7229 36.2635 18.0677 36.9441 17.2758 36.9441C16.4839 36.9441 15.7816 36.2216 15.8617 35.4205C15.9748 34.2948 16.7243 34.2215 17.2758 34.2215C17.6105 34.2215 18.6004 33.8969 18.6852 35.4572Z" fill="#EF4D3C"/>
<path d="M16.2812 35.2163C16.5735 34.7137 17.0731 34.8603 17.2051 34.6718C17.2051 35.0331 17.4408 34.855 17.5587 35.0173C17.7095 35.2268 17.7661 35.5985 17.9452 35.6718C17.7708 35.2582 18.0536 35.2739 17.6576 34.7189C17.8698 34.8655 17.9782 34.7189 18.2657 34.8498C18.0159 34.41 17.6246 34.5356 17.6246 34.5356C17.6246 34.5356 17.8698 34.2843 18.0772 34.4152C17.8603 34.0592 17.2334 34.5095 17.2334 34.5095C17.2334 34.5095 16.9742 34.0173 16.4179 34.5356C16.7432 34.389 17.1014 34.5356 17.1014 34.5356C17.1014 34.5356 16.5122 34.3733 16.2812 35.2163Z" fill="#7BB246"/>
<path d="M16.2812 35.2162C16.2812 35.2162 16.6253 34.5094 17.2193 34.5722C16.6961 34.3052 16.2812 34.8707 16.2812 35.2162Z" fill="#7BB246"/>
<path d="M16.418 34.5354C16.418 34.5354 16.8516 34.1742 17.2334 34.5354C17.1203 34.0956 16.5405 34.2998 16.418 34.5354ZM17.3277 34.5826C17.9028 34.8758 17.7095 35.2109 17.9452 35.6821C17.7849 35.2894 18.1809 34.5826 17.3277 34.5826Z" fill="#7BB246"/>
<path d="M17.1016 34.5356C17.1016 34.5356 17.2335 34.3157 17.2807 34.0434C17.2854 34.0068 17.4268 34.012 17.4221 34.0487C17.375 34.3995 17.5022 34.5932 17.5022 34.5932C17.5022 34.5932 17.4032 34.6299 17.2807 34.6299C17.1581 34.6351 17.1016 34.5356 17.1016 34.5356Z" fill="#7BB246"/>
<path d="M17.352 34.0748C17.391 34.0748 17.4227 34.0607 17.4227 34.0434C17.4227 34.026 17.391 34.012 17.352 34.012C17.3129 34.012 17.2812 34.026 17.2812 34.0434C17.2812 34.0607 17.3129 34.0748 17.352 34.0748Z" fill="#7BB246"/>
<path d="M27.157 30.332C27.1296 30.2088 26.9947 29.9758 26.6813 29.9758C26.5075 29.9791 26.342 30.0364 26.2196 30.1357C26.1606 30.0844 26.0887 30.0436 26.0087 30.0161C25.9287 29.9885 25.8424 29.9749 25.7554 29.976C25.674 29.9805 25.5948 29.9997 25.5238 30.0322C25.4528 30.0647 25.3918 30.1096 25.3453 30.1636C25.2831 30.1066 25.2069 30.0606 25.1216 30.0283C25.0363 29.996 24.9436 29.9782 24.8494 29.9758C24.5358 29.9758 24.4011 30.2088 24.3729 30.3356C24.3665 30.3782 24.2237 31.3872 24.7304 31.9685C24.892 32.154 25.0509 32.2476 25.2033 32.2476C25.2177 32.2476 25.2321 32.2468 25.2464 32.2452C25.3377 32.2313 25.4192 32.1903 25.4747 32.1303C25.5591 32.2015 25.6733 32.245 25.7952 32.2525L25.8044 32.2526C25.9098 32.2498 26.0105 32.2166 26.088 32.159C26.1398 32.2043 26.2088 32.2346 26.2843 32.2451C26.2985 32.2467 26.3129 32.2476 26.3273 32.2476C26.4797 32.2476 26.6386 32.154 26.8003 31.9685C27.307 31.3873 27.1641 30.3782 27.1571 30.332H27.157Z" fill="#EF4D3C"/>
<path d="M26.0807 29.7146C26.0994 29.7061 26.1479 29.6997 26.2613 29.7527C26.2979 29.7702 26.3397 29.7793 26.3823 29.7789C26.4249 29.7786 26.4665 29.7688 26.5026 29.7507C26.5387 29.7326 26.5679 29.7068 26.587 29.6762C26.6061 29.6456 26.6144 29.6113 26.6109 29.5772C26.6083 29.5499 26.5981 29.5234 26.5811 29.4997C26.5641 29.4759 26.5407 29.4556 26.5126 29.4401C26.4038 29.3838 26.2819 29.346 26.1542 29.3288C26.0858 29.3167 26.0148 29.3179 25.947 29.3323C25.8793 29.3467 25.8168 29.3739 25.7647 29.4116C25.6155 29.5263 25.5978 29.7206 25.5989 29.8168C25.408 29.8644 25.2446 29.9656 25.1387 30.102L25.1384 30.1022L25.1382 30.1026C25.1373 30.1036 25.1364 30.1044 25.1356 30.1055C25.1336 30.1085 25.1319 30.1116 25.1306 30.1148C25.1282 30.1185 25.1262 30.1224 25.1247 30.1264C25.1239 30.1303 25.1235 30.1341 25.1237 30.138C25.122 30.1459 25.1236 30.1539 25.1281 30.1609C25.1295 30.1649 25.1314 30.1687 25.1338 30.1724C25.1367 30.1756 25.1399 30.1786 25.1435 30.1813C25.1461 30.1842 25.149 30.187 25.1523 30.1895C25.2046 30.2224 25.2512 30.2608 25.2908 30.3037L25.2908 30.3038C25.2971 30.3106 25.305 30.3163 25.3141 30.3206C25.3152 30.321 25.3163 30.3212 25.3174 30.3216C25.3187 30.3222 25.3202 30.3226 25.3216 30.3231C25.3314 30.3267 25.342 30.3287 25.3528 30.3289H25.353L25.3541 30.3288C25.361 30.3286 25.3679 30.3278 25.3746 30.3262C25.3769 30.3256 25.3791 30.3247 25.3814 30.324C25.3863 30.3225 25.3909 30.3205 25.3953 30.3183C25.3964 30.3176 25.3977 30.3175 25.3988 30.3168C25.3999 30.3161 25.4003 30.3153 25.4012 30.3147C25.4076 30.3106 25.4131 30.3057 25.4175 30.3002C25.4181 30.2994 25.4191 30.2987 25.4196 30.2979H25.4197C25.4824 30.2109 25.5927 30.1058 25.7624 30.1C25.8365 30.1008 25.9094 30.1148 25.9759 30.1412C26.0423 30.1675 26.1007 30.2054 26.1466 30.2522C26.1509 30.261 26.1578 30.2689 26.1666 30.2752C26.1743 30.2805 26.1832 30.2846 26.1928 30.2872C26.2024 30.2897 26.2126 30.2908 26.2227 30.2902C26.2329 30.2896 26.2427 30.2874 26.2518 30.2837C26.2609 30.2801 26.269 30.275 26.2756 30.2688C26.3159 30.2311 26.3621 30.1978 26.4132 30.1697C26.4153 30.1686 26.4163 30.1669 26.4181 30.1658C26.4217 30.1645 26.4251 30.1631 26.4284 30.1614C26.4443 30.1511 26.4545 30.1361 26.4567 30.1197C26.4589 30.1033 26.453 30.0869 26.4401 30.0741C26.3239 29.9731 26.1818 29.8938 26.0235 29.8416C26.0328 29.7472 26.0657 29.7215 26.0807 29.7146Z" fill="#C0A519"/>
<path d="M24.7322 31.9681C24.8952 32.1551 25.0494 32.2464 25.2035 32.2471H25.2052C25.265 32.2446 25.3232 32.2305 25.3746 32.2058C25.4261 32.1811 25.4693 32.1467 25.5005 32.1056C25.5016 32.1044 25.5017 32.103 25.5027 32.1017C25.5074 32.0946 25.511 32.087 25.5133 32.0792C25.5161 32.0676 25.514 32.0555 25.5075 32.0449C25.5056 32.041 25.5031 32.0372 25.5002 32.0337C25.4992 32.0325 25.4983 32.0313 25.4976 32.0299C24.9757 31.0298 25.4126 30.3017 25.4182 30.2905C25.4189 30.289 25.4186 30.2876 25.4191 30.2861C25.4246 30.2705 25.4229 30.2538 25.4142 30.2391C25.4134 30.2378 25.4134 30.2363 25.4124 30.235C25.4036 30.2235 25.1801 29.9753 24.8511 29.9753C24.5376 29.9753 24.4028 30.2083 24.3754 30.3315C24.3684 30.3778 24.2254 31.3868 24.7322 31.968V31.9681Z" fill="#781E32"/>
<path d="M26.71 19.5432C26.71 19.5432 26.4329 19.478 26.2039 19.6763C25.9377 19.9072 26.0697 20.2596 26.1906 20.521C26.3114 20.7824 26.3668 20.8761 26.4272 21.0979C26.4727 21.2637 26.5233 21.5591 26.9072 21.6551C27.1757 21.722 27.4521 21.5706 27.4521 21.5706C27.4521 21.5706 27.5657 21.6688 27.8163 21.6922C28.0876 21.7173 28.3755 21.6521 28.4757 21.469C28.5282 21.3733 28.5791 21.0664 28.615 20.8712C28.6621 20.6152 28.8304 20.3374 28.8724 20.1171C28.908 19.9291 28.8482 19.4942 28.094 19.4826C27.8303 19.4787 27.5339 19.5597 27.5339 19.5597C27.5339 19.5597 27.3016 19.4654 27.1245 19.4501C26.7835 19.4206 26.71 19.5432 26.71 19.5432Z" fill="#7BB246"/>
<path d="M28.461 19.533C28.3637 19.5 28.2473 19.4695 28.0389 19.4594C27.7437 19.4452 27.5348 19.5594 27.5348 19.5594C27.5348 19.5594 27.3025 19.4651 27.1254 19.4498C26.7841 19.4203 26.6791 19.5377 26.6791 19.5377C26.6791 19.5377 26.7348 19.5451 26.8245 19.5707C26.8973 19.5913 26.8703 19.6416 26.8101 19.6462C26.6921 19.6553 26.5958 19.7154 26.584 19.7479C26.584 19.7479 26.7726 19.6851 26.9692 19.7331C27.2307 19.7971 27.3013 19.9472 27.3013 19.9472C27.3013 19.9472 27.4486 19.8143 27.7985 19.7528C28.1312 19.6942 28.3704 19.8052 28.3704 19.8052C28.351 19.7402 28.3029 19.7078 28.26 19.6767C28.1827 19.6209 28.2081 19.5719 28.287 19.5547C28.3526 19.5404 28.461 19.533 28.461 19.533Z" fill="#7BB246"/>
<path d="M26.6622 18.9326C26.6651 19.0502 26.7809 19.1049 26.834 19.1073C26.9415 19.112 27.0214 19.0111 27.2218 19.16C27.3032 19.2205 27.335 19.3067 27.3324 19.3923C27.3315 19.4206 27.3404 19.5265 27.2761 19.5501C27.2561 19.5575 27.2427 19.5631 27.1804 19.5447C27.1107 19.524 27.0487 19.5752 27.0487 19.5752L27.1683 19.6808L27.4645 19.7551L27.7616 19.7093L27.9333 19.5924C27.9333 19.5924 27.8535 19.5444 27.7841 19.5636C27.7466 19.574 27.6741 19.557 27.6738 19.523C27.6725 19.4514 27.6763 19.3832 27.6591 19.3119C27.6305 19.194 27.5656 19.0812 27.4616 18.9917C27.3124 18.8632 27.099 18.7965 26.8824 18.7694C26.7045 18.7475 26.6594 18.8164 26.6622 18.9326Z" fill="#C0A519"/>
<path d="M27.3556 18.9173C27.2191 18.8365 27.0512 18.7905 26.881 18.7693C26.8238 18.7622 26.7805 18.7647 26.748 18.7748C26.8142 18.776 26.9424 18.8011 27.1495 18.9116C27.2799 18.981 27.5375 19.2303 27.3232 19.488C27.3174 19.5094 27.3072 19.5288 27.2901 19.5412C27.3432 19.5227 27.4469 19.4594 27.4704 19.2911C27.4952 19.1129 27.4405 18.9953 27.3556 18.9173Z" fill="#C0A519"/>
<path opacity="0.6" d="M27.2092 20.5364C27.2067 20.6296 27.2261 20.8378 27.3011 21.1344C27.3651 21.3869 27.3002 21.5703 27.2152 21.6522C27.3527 21.6234 27.4519 21.5708 27.4519 21.5708C27.4519 21.5708 27.4872 21.4694 27.4894 21.3658C27.4923 21.2412 27.4252 20.9912 27.3466 20.7928C27.2913 20.6535 27.2747 20.4433 27.2722 20.3252C27.2722 20.325 27.2137 20.3678 27.2092 20.5364Z" fill="#7BB246"/>
<path opacity="0.75" d="M27.0255 20.2146C26.9917 20.2176 26.9612 20.2011 26.9358 20.1851C26.8429 20.1263 26.7901 20.077 26.6857 20.0281C26.6049 19.9902 26.4456 19.9646 26.499 19.8678C26.5248 19.8213 26.6237 19.8154 26.6908 19.8243C26.9246 19.8548 27.0286 19.9611 27.0779 20.094C27.0865 20.1171 27.098 20.1405 27.0913 20.1644C27.0849 20.188 27.0601 20.2109 27.027 20.2146H27.0255ZM27.7571 19.952C27.911 19.8811 28.1381 19.8826 28.3283 19.9579C28.3754 19.9766 28.4206 20.001 28.4479 20.0362C28.4686 20.0628 28.474 20.1026 28.4413 20.1206C28.4139 20.1354 28.3764 20.1265 28.3446 20.1186C28.1537 20.0719 27.9377 20.0896 27.7641 20.1666C27.6985 20.1957 27.5579 20.3032 27.5166 20.2279C27.4755 20.1518 27.5656 20.0401 27.7571 19.952Z" fill="#C0A519"/>
<path d="M14.8154 19.5585C14.7207 19.3019 14.8154 18.8741 15.1943 18.7886C15.5732 18.703 15.7626 18.8741 15.7626 18.9597C15.7626 19.0452 15.6679 19.2163 15.5732 19.1308C15.4784 19.0452 15.289 19.0452 15.1943 19.2163C15.0996 19.3874 15.1943 19.5585 15.1943 19.5585H14.8154Z" fill="#7BB246"/>
<path d="M15.5686 20.5823C15.5686 21.1982 15.2757 21.3504 14.5267 21.6119C13.7915 21.8685 13.8863 21.1841 13.7689 20.5823C13.7195 20.3288 13.6723 20.2589 13.621 20.0701C13.5496 19.8073 13.566 19.4672 14.0531 19.4672C14.8901 19.4672 15.5686 19.9664 15.5686 20.5823Z" fill="#7BB246"/>
<path d="M14.4434 20.5823C14.4434 21.1982 14.7362 21.3504 15.4853 21.6119C16.2204 21.8685 16.1256 21.1841 16.243 20.5823C16.2924 20.3288 16.3396 20.2589 16.391 20.0701C16.4624 19.8074 16.446 19.4672 15.9588 19.4672C15.1218 19.4672 14.4434 19.9664 14.4434 20.5823Z" fill="#7BB246"/>
<path d="M15.6661 20.6222C15.6661 21.26 15.5788 21.6975 15.0058 21.6975C14.4327 21.6975 14.3455 21.26 14.3455 20.6222C14.3455 19.9843 13.8738 19.3876 15.0058 19.3876C16.1378 19.3876 15.6661 19.9843 15.6661 20.6222Z" fill="#7BB246"/>
<path d="M20.632 14.9715C20.7207 14.4297 21.3036 13.7926 22.0402 14.0439C22.7768 14.2953 22.9352 14.7894 22.8512 14.9368C22.7673 15.0841 22.4362 15.2792 22.357 15.0321C22.2778 14.7851 21.9515 14.5857 21.6204 14.7808C21.2893 14.9758 21.2846 15.3703 21.2846 15.3703L20.632 14.9715Z" fill="#7BB246"/>
<path d="M20.9255 17.527C20.3211 18.5879 19.6673 18.5419 18.1205 18.204C16.6023 17.8725 17.4371 16.7932 17.8255 15.6331C17.9891 15.1442 17.9765 14.9742 18.0732 14.5951C18.2083 14.0673 18.5703 13.4986 19.4093 14.0112C20.8511 14.8921 21.5299 16.4661 20.9255 17.527Z" fill="#7BB246"/>
<path d="M18.9838 16.3419C18.3794 17.4028 18.7346 17.9731 19.7683 19.2118C20.7827 20.4275 21.2912 19.1489 22.0838 18.2358C22.4178 17.851 22.5677 17.7803 22.8413 17.5092C23.2222 17.1318 23.5278 16.5285 22.6887 16.0158C21.2468 15.1349 19.5882 15.2809 18.9838 16.3419Z" fill="#7BB246"/>
<path d="M21.0515 17.6979C20.4255 18.7967 19.846 19.4584 18.8589 18.8553C17.8718 18.2522 18.1508 17.4069 18.7767 16.3081C19.4026 15.2093 19.1757 13.685 21.1256 14.8763C23.0755 16.0676 21.6774 16.5991 21.0515 17.6979Z" fill="#7BB246"/>
<path d="M34.2145 29.4305C34.5006 29.2502 34.5713 28.7234 34.5141 28.7835C34.5713 28.7234 34.0562 28.7835 33.8845 29.084C33.8845 28.9638 33.77 28.483 33.5983 28.9037C33.4265 29.3244 33.4838 29.3845 33.4838 29.5047C33.4838 29.6249 33.7128 29.6249 33.7128 29.6249C33.7128 29.6249 33.7026 29.8547 33.8172 29.8547C33.9317 29.8547 33.9788 29.9043 34.3795 29.724C34.7802 29.5436 34.329 29.4305 34.2145 29.4305Z" fill="#7BB246"/>
<path d="M33.5124 30.6766C32.896 31.3238 31.8811 31.7883 31.738 31.6381C31.5949 31.4878 32.0374 30.4223 32.6538 29.7751C33.2702 29.1279 33.5871 29.1324 33.8558 29.4145C34.1245 29.6966 34.1288 30.0294 33.5124 30.6766Z" fill="#FDA47A"/>
<path d="M33.4685 29.9087C33.3898 29.8261 33.2443 29.672 33.0887 29.3898C33.0208 29.4369 32.9557 29.4882 32.8937 29.5434C33.1206 29.8505 33.5511 29.9953 33.4685 29.9087ZM32.8626 30.5948C32.7783 30.5063 32.6173 30.3355 32.4493 30.0129C32.3936 30.0838 32.3402 30.1567 32.2891 30.2313C32.5163 30.5371 32.9448 30.6811 32.8626 30.5948ZM33.6155 30.5649C33.3256 30.3943 33.1711 30.2326 33.0892 30.1467C33.0066 30.0598 33.1452 30.5134 33.4386 30.7513C33.4985 30.6902 33.5575 30.6281 33.6155 30.5649ZM32.6293 31.3574C32.7038 31.3144 32.7771 31.2691 32.8491 31.2217C32.5841 31.0597 32.4387 30.9086 32.3606 30.8266C32.286 30.7482 32.3919 31.1111 32.6293 31.3574Z" fill="#FDA47A"/>
<path d="M10.4758 27.3554C10.5488 27.3554 10.6079 27.2941 10.6079 27.2185C10.6079 27.1429 10.5488 27.0817 10.4758 27.0817C10.4029 27.0817 10.3438 27.1429 10.3438 27.2185C10.3438 27.2941 10.4029 27.3554 10.4758 27.3554Z" fill="#7BB246"/>
<path d="M9.14691 27.6586C8.8686 28.1376 9.34975 28.2842 9.56202 28.1229C9.40164 28.3673 9.5573 28.8268 10.0196 28.5482C10.5337 28.2353 10.3922 27.3506 10.4205 27.248C10.3356 27.2626 9.44409 27.1453 9.14691 27.6586Z" fill="#7BB246"/>
<path d="M9.56055 28.123C9.62659 28.0448 9.69734 27.9715 9.76338 27.8933L9.97565 27.6733C10.0464 27.6 10.1172 27.5267 10.1926 27.4582L10.3011 27.3507L10.4143 27.248L10.3153 27.3654L10.2115 27.4778L9.99924 27.6977C9.92848 27.7711 9.85773 27.8444 9.78225 27.9128C9.71149 27.9861 9.64074 28.0546 9.56055 28.123Z" fill="#7BB246"/>
<path d="M11.8049 26.7787C12.0832 26.2997 11.602 26.1531 11.3898 26.3144C11.5501 26.07 11.3945 25.6105 10.9322 25.8891C10.418 26.2019 10.5596 27.0867 10.5312 27.1893C10.6162 27.1747 11.5077 27.292 11.8049 26.7787Z" fill="#7BB246"/>
<path d="M11.3909 26.3145C11.3249 26.3927 11.2541 26.466 11.1881 26.5442L10.9758 26.7642C10.905 26.8375 10.8343 26.9108 10.7588 26.9792L10.6503 27.0868L10.5371 27.1894L10.6362 27.0721L10.7399 26.9597L10.9522 26.7397C11.023 26.6664 11.0937 26.5931 11.1692 26.5246C11.24 26.4513 11.3107 26.3829 11.3909 26.3145Z" fill="#7BB246"/>
<path d="M10.0184 25.8893C9.54664 25.6058 9.40513 26.0946 9.56079 26.3146C9.32494 26.1533 8.87209 26.3097 9.14569 26.779C9.4523 27.302 10.3202 27.1602 10.4193 27.1847C10.4052 27.1016 10.5231 26.1924 10.0184 25.8893Z" fill="#7BB246"/>
<path d="M9.56055 26.3145C9.63602 26.3829 9.71149 26.4513 9.78225 26.5198C9.85773 26.5882 9.92848 26.6615 9.99924 26.7348L10.2115 26.9548L10.3153 27.0672L10.4143 27.1845L10.3011 27.0819L10.1926 26.9792C10.1172 26.9108 10.0464 26.8375 9.97565 26.7642L9.76338 26.5442C9.69734 26.466 9.62659 26.3927 9.56055 26.3145Z" fill="#7BB246"/>
<path d="M10.9348 28.5482C11.4065 28.8317 11.548 28.3429 11.3924 28.123C11.633 28.2843 12.0811 28.1278 11.8075 27.6586C11.5009 27.1356 10.6329 27.2773 10.5339 27.2529C10.548 27.336 10.4301 28.2452 10.9348 28.5482Z" fill="#7BB246"/>
<path d="M11.3905 28.123C11.315 28.0546 11.2395 27.9861 11.1688 27.9177C11.0933 27.8493 11.0225 27.776 10.9518 27.7026L10.7395 27.4827L10.6357 27.3654L10.5367 27.248L10.6499 27.3507L10.7584 27.4582C10.8339 27.5267 10.9046 27.6 10.9754 27.6733L11.1876 27.8933C11.2537 27.9715 11.3244 28.0448 11.3905 28.123ZM10.4753 27.5022L10.5933 28.6118C10.598 28.6754 10.5508 28.7291 10.4895 28.734C10.4235 28.7389 10.3669 28.6949 10.3574 28.6314V28.6069L10.4753 27.5022Z" fill="#7BB246"/>
<path d="M9.62476 31.1895C9.62578 31.2314 9.6245 31.3379 9.52159 31.5838C9.38854 31.9011 9.23635 32.1122 9.13905 32.2131C9.03793 32.34 8.72741 32.6953 8.20774 32.801C8.08797 32.8254 7.51008 32.9449 7.0969 32.5798C7.042 32.5307 6.81907 32.3281 6.79685 32.0275C6.78766 31.903 6.81115 31.7407 6.87116 31.7267C6.9419 31.7099 6.97867 31.9186 7.17709 32.0679C7.20186 32.0865 7.42198 32.2471 7.69599 32.1924C7.94522 32.1427 8.08593 31.9455 8.1416 31.8674C8.26749 31.6908 8.30988 31.5004 8.35432 31.3002C8.40565 31.0703 8.40999 30.8897 8.55376 30.733C8.58083 30.7036 8.60636 30.6762 8.64901 30.6523C8.79431 30.5711 8.9557 30.6321 9.18119 30.7213C9.39723 30.8071 9.53002 30.8618 9.5913 31.0025C9.62169 31.0721 9.62348 31.1361 9.62476 31.1895Z" fill="#EF4D3C"/>
<path d="M8.65723 30.6414C8.70779 30.6141 8.78516 30.5817 8.89829 30.5827C8.92204 30.583 8.95064 30.5841 8.98333 30.5878C9.01142 30.591 9.11867 30.5259 9.14165 30.4877C9.16259 30.4529 9.18047 30.416 9.2009 30.377C9.22592 30.3294 9.26525 30.2476 9.26984 30.2012C9.27929 30.104 9.25937 29.9938 9.09058 30.0185C9.06964 30.0214 9.02086 30.0498 9.00682 30.011C8.97822 29.9332 9.13093 29.8759 9.23333 29.9258C9.34748 29.9816 9.3914 30.1303 9.39753 30.1627C9.4131 30.2415 9.39574 30.3071 9.36203 30.4346C9.3485 30.4861 9.33879 30.5246 9.32858 30.5657C9.31377 30.6263 9.34032 30.7044 9.35999 30.7163C9.48307 30.7899 9.54104 30.8764 9.56811 30.9269C9.60871 31.0026 9.64319 31.1173 9.61791 31.1343C9.60258 31.1446 9.56683 31.1178 9.5556 31.1093C9.51908 31.0817 9.51857 31.0594 9.49329 31.0342C9.4532 30.9941 9.38833 30.985 9.34186 30.9943C9.27444 31.0079 9.26576 31.0602 9.2272 31.053C9.18174 31.0448 9.19043 30.9704 9.11075 30.9062C9.06989 30.873 9.03031 30.8626 9.01933 30.86C8.98598 30.8521 8.95138 30.852 8.91795 30.8594C8.86203 30.8719 8.85666 30.8958 8.81325 30.8974C8.77674 30.8987 8.73205 30.8836 8.72668 30.8594C8.72183 30.8371 8.75401 30.8262 8.75835 30.7851C8.75886 30.7803 8.76192 30.746 8.74175 30.7245C8.72413 30.706 8.69757 30.7057 8.65135 30.7054C8.60896 30.7052 8.59134 30.7115 8.58828 30.7044C8.58342 30.6924 8.6253 30.6587 8.65723 30.6414Z" fill="#C0A519"/>
<path d="M8.49241 31.7577C8.48118 31.7569 8.46968 31.7535 8.45972 31.7463C8.44501 31.7362 8.43476 31.7204 8.43122 31.7024C8.42767 31.6845 8.43113 31.6658 8.44083 31.6504C8.49088 31.5716 8.50595 31.4457 8.5182 31.3448C8.52535 31.2864 8.53148 31.2359 8.54297 31.1953C8.58128 31.0609 8.67193 31.0182 8.68215 31.014C8.69018 31.0104 8.69881 31.0085 8.70753 31.0084C8.71626 31.0083 8.72492 31.01 8.73302 31.0134C8.74112 31.0168 8.7485 31.0218 8.75473 31.0282C8.76096 31.0345 8.76593 31.0421 8.76935 31.0505C8.77277 31.0588 8.77458 31.0678 8.77467 31.0769C8.77475 31.0859 8.77312 31.0949 8.76986 31.1034C8.7666 31.1118 8.76177 31.1195 8.75566 31.1259C8.74955 31.1324 8.74227 31.1376 8.73424 31.1411C8.73067 31.143 8.69006 31.1653 8.6704 31.2346C8.66197 31.2646 8.6561 31.3121 8.64997 31.3623C8.63593 31.4776 8.61856 31.6212 8.55166 31.7269C8.53812 31.7479 8.51539 31.759 8.49241 31.7577ZM8.26335 32.1255C8.25125 32.1251 8.2395 32.1212 8.22937 32.1143C8.21924 32.1074 8.21112 32.0978 8.20589 32.0864C8.1898 32.0519 8.20385 32.0108 8.23679 31.994C8.27561 31.9744 8.31442 31.9067 8.32974 31.8684C8.3331 31.8601 8.338 31.8525 8.34418 31.8461C8.35036 31.8397 8.35769 31.8346 8.36575 31.8312C8.37381 31.8277 8.38245 31.8259 8.39117 31.826C8.39989 31.826 8.40852 31.8278 8.41657 31.8313C8.42464 31.8347 8.43197 31.8398 8.43815 31.8462C8.44433 31.8526 8.44923 31.8603 8.45258 31.8686C8.45592 31.877 8.45764 31.886 8.45764 31.8951C8.45764 31.9042 8.45592 31.9132 8.45257 31.9215C8.4467 31.9367 8.39129 32.07 8.2945 32.1186C8.28454 32.1236 8.27382 32.1257 8.26335 32.1255Z" fill="white"/>
<path d="M19.7886 28.9586C19.6265 29.6454 18.8753 30.0493 18.1106 29.8607C17.3459 29.6721 16.8573 28.9624 17.0193 28.2756C17.1813 27.5888 17.9325 27.1849 18.6972 27.3735C19.462 27.5621 19.9506 28.2718 19.7886 28.9586Z" fill="#EF4D3C"/>
<path d="M18.9965 27.6698C18.9897 27.6714 18.9826 27.6705 18.9763 27.6673L18.9721 27.6651C18.9721 27.6651 18.969 27.6636 18.9637 27.6605C18.9585 27.6573 18.9505 27.6529 18.9411 27.6467C18.9388 27.6451 18.9362 27.6436 18.9337 27.6418L18.9297 27.6392L18.9257 27.6371C18.9201 27.6343 18.9146 27.6311 18.9086 27.6279C18.9024 27.6248 18.897 27.621 18.8899 27.6178C18.883 27.6144 18.8762 27.6108 18.869 27.6072C18.8653 27.6055 18.8621 27.6032 18.8582 27.6017L18.8468 27.5968C18.843 27.5952 18.8393 27.5935 18.8355 27.5917L18.8299 27.5891C18.828 27.5883 18.8259 27.5877 18.8239 27.587C18.8158 27.5843 18.8081 27.5811 18.8003 27.5782C18.7921 27.5759 18.784 27.5735 18.7759 27.571L18.7698 27.5691C18.7677 27.5687 18.7656 27.5683 18.7635 27.5678L18.751 27.5648C18.7468 27.5639 18.7428 27.5627 18.7385 27.562L18.7256 27.5597L18.7128 27.5574L18.7096 27.5567L18.7062 27.5564L18.6995 27.5555L18.6862 27.5537C18.6818 27.5531 18.6776 27.5522 18.6728 27.5521C18.6682 27.5516 18.6636 27.5512 18.659 27.5507C18.6545 27.5499 18.65 27.5494 18.6455 27.5484C18.6364 27.5468 18.6268 27.5456 18.6178 27.5431C18.6132 27.5422 18.6087 27.5404 18.6041 27.5393C18.5994 27.5379 18.5946 27.5369 18.59 27.5353C18.5806 27.5325 18.5714 27.5287 18.5621 27.5252C18.5526 27.5218 18.5431 27.5185 18.5338 27.5149C18.5245 27.5113 18.5153 27.5077 18.506 27.5049C18.4935 27.5009 18.4811 27.4968 18.4687 27.4926C18.4656 27.4963 18.4625 27.5 18.4593 27.5035C18.4538 27.5092 18.4501 27.5152 18.4454 27.5206C18.4409 27.526 18.4369 27.5312 18.4328 27.5359C18.4296 27.5403 18.4262 27.5446 18.4228 27.5489C18.4203 27.5521 18.4177 27.5552 18.4151 27.5583C18.4124 27.5654 18.4096 27.5724 18.4066 27.5793C18.4015 27.5913 18.3961 27.6032 18.3905 27.615C18.389 27.6182 18.3874 27.6213 18.3858 27.6245C18.3842 27.6278 18.3826 27.631 18.3809 27.6343C18.3704 27.6549 18.3593 27.6752 18.3474 27.6951C18.3311 27.7229 18.3136 27.75 18.2951 27.7763C18.286 27.7892 18.2768 27.8016 18.2675 27.8134C18.2588 27.8246 18.2498 27.8356 18.2405 27.8463C18.223 27.8666 18.2068 27.8832 18.1947 27.8947C18.1888 27.9004 18.1835 27.9047 18.1802 27.9078C18.1786 27.9093 18.1771 27.9103 18.1762 27.9111L18.1748 27.9122L18.1704 27.9156C18.1442 27.9355 18.1071 27.93 18.0876 27.9032C18.0834 27.8975 18.0803 27.891 18.0783 27.8842L18.0762 27.8769C18.0751 27.8723 18.0729 27.8654 18.0712 27.857C18.0689 27.8469 18.0671 27.8368 18.0655 27.8266C18.0635 27.8138 18.062 27.8008 18.0609 27.7879C18.0597 27.7738 18.0588 27.7586 18.0587 27.7427C18.0583 27.7268 18.0587 27.7102 18.0597 27.693C18.0607 27.6759 18.0624 27.6584 18.0648 27.6406C18.0672 27.6229 18.0703 27.6049 18.0741 27.5871C18.078 27.5693 18.0824 27.5515 18.0878 27.5341C18.0898 27.5276 18.0919 27.5211 18.0941 27.5147C18.0878 27.5158 18.0815 27.5169 18.0751 27.518C18.0545 27.522 18.0336 27.5266 18.0124 27.5314C17.9913 27.5364 17.9701 27.542 17.9488 27.5476C17.9276 27.5537 17.9064 27.5597 17.8855 27.566C17.8648 27.5725 17.8439 27.5786 17.8241 27.5853C17.804 27.5916 17.7849 27.5984 17.7663 27.6044L17.7147 27.6224C17.7073 27.6253 17.6998 27.6279 17.6922 27.6304C17.685 27.6328 17.6791 27.6351 17.6729 27.637C17.667 27.639 17.6615 27.6406 17.6563 27.6429C17.6513 27.645 17.6468 27.6467 17.6432 27.648C17.6359 27.6507 17.6318 27.6519 17.6318 27.6519C17.626 27.6536 17.6199 27.6538 17.614 27.6526C17.6081 27.6513 17.6025 27.6486 17.5979 27.6447C17.5932 27.6409 17.5895 27.6359 17.5871 27.6302C17.5847 27.6246 17.5837 27.6184 17.5841 27.6122C17.5841 27.6122 17.5844 27.6079 17.5854 27.6001C17.586 27.5962 17.5866 27.5914 17.5876 27.5859C17.5882 27.5831 17.5884 27.5803 17.5894 27.5769L17.5925 27.5664C17.5946 27.559 17.5974 27.5506 17.6006 27.5421C17.6039 27.5329 17.6076 27.5239 17.6115 27.515C17.6162 27.505 17.6212 27.4952 17.6264 27.4855C17.6325 27.4749 17.6388 27.4645 17.6455 27.4543C17.6599 27.4334 17.6769 27.4115 17.6972 27.3907C17.7173 27.3695 17.7408 27.3497 17.7666 27.331C17.7935 27.312 17.822 27.2955 17.8518 27.2818C17.8825 27.2681 17.9151 27.2567 17.9487 27.2486C17.9825 27.241 18.0171 27.2363 18.0516 27.2353C18.0758 27.2348 18.0998 27.2361 18.1232 27.239C18.119 27.2311 18.1143 27.2234 18.1091 27.216C18.106 27.2114 18.1022 27.2066 18.0986 27.2015C18.0943 27.1966 18.0904 27.1916 18.0858 27.1863C18.0769 27.176 18.0668 27.1654 18.0569 27.1549L18.0267 27.1238C18.0174 27.1143 18.0082 27.1046 17.9991 27.0949C17.9907 27.0859 17.9834 27.0778 17.9774 27.0705C17.9708 27.0636 17.9658 27.0571 17.9623 27.0531C17.9606 27.0511 17.9593 27.0493 17.9585 27.0482L17.9571 27.0464L17.9543 27.0427C17.9509 27.0383 17.9487 27.033 17.9477 27.0274C17.9468 27.0219 17.9472 27.0161 17.949 27.0108C17.9507 27.0054 17.9537 27.0006 17.9577 26.9967C17.9617 26.9928 17.9666 26.99 17.9719 26.9885C17.9719 26.9885 17.9745 26.9877 17.9793 26.9866C17.9841 26.9856 17.9912 26.9837 18 26.9821C18.0091 26.9807 18.0207 26.9787 18.0335 26.9776L18.0541 26.9758C18.0614 26.9752 18.069 26.9753 18.0771 26.975C18.0851 26.9749 18.0936 26.9751 18.1025 26.9752C18.1114 26.9754 18.1205 26.9764 18.1301 26.9771C18.1492 26.9793 18.1696 26.9823 18.1913 26.9883C18.213 26.9939 18.236 27.0019 18.2593 27.0139C18.2828 27.0255 18.3065 27.0411 18.329 27.0606C18.3346 27.0655 18.3402 27.0705 18.3457 27.0757C18.3511 27.0811 18.3564 27.0866 18.3617 27.0922C18.3668 27.0979 18.3718 27.1037 18.3769 27.1097C18.3819 27.1156 18.3864 27.1218 18.391 27.128C18.4019 27.143 18.4116 27.1587 18.4198 27.1744C18.4272 27.1669 18.4349 27.1596 18.4431 27.1529C18.4567 27.1408 18.4715 27.1307 18.4865 27.1207C18.4941 27.116 18.5018 27.1115 18.5096 27.1071C18.5174 27.1025 18.5255 27.0991 18.5334 27.0952C18.5655 27.0804 18.5987 27.0696 18.6315 27.0638C18.6642 27.0578 18.6964 27.0554 18.727 27.057C18.7576 27.0584 18.7866 27.0628 18.8133 27.0699C18.84 27.0766 18.8643 27.0862 18.8858 27.0965C18.9074 27.1072 18.9262 27.1185 18.942 27.1305C18.9498 27.1365 18.9571 27.1419 18.9634 27.1479C18.9698 27.1537 18.9754 27.1587 18.9808 27.1644C18.9855 27.1691 18.99 27.174 18.9943 27.179C18.9974 27.1832 18.9999 27.187 19.0019 27.1901C19.0039 27.1931 19.0054 27.1957 19.0064 27.1973L19.008 27.1998C19.0111 27.205 19.013 27.2109 19.0135 27.217C19.0139 27.223 19.0129 27.2291 19.0106 27.2347C19.0082 27.2403 19.0046 27.2453 19 27.2491C18.9953 27.253 18.9899 27.2556 18.984 27.2568L18.9812 27.2574C18.9793 27.2578 18.9765 27.2585 18.9729 27.2591C18.9693 27.2597 18.9649 27.2604 18.9599 27.2611C18.9553 27.2623 18.9502 27.2636 18.9448 27.2649C18.9396 27.2663 18.9332 27.2677 18.9265 27.2693C18.9231 27.2701 18.9197 27.2708 18.9162 27.2716L18.9053 27.2742C18.8904 27.2777 18.8741 27.2818 18.8572 27.2861C18.8401 27.2906 18.8224 27.2951 18.8044 27.3005C18.7954 27.303 18.7864 27.3056 18.7773 27.3084L18.7808 27.3102C18.7938 27.3167 18.8064 27.3253 18.8187 27.3334L18.8369 27.3456C18.8428 27.3499 18.8485 27.3548 18.8541 27.3593L18.8707 27.3731C18.8735 27.3754 18.8762 27.3776 18.8788 27.3799L18.8864 27.3874C18.8963 27.3974 18.9063 27.4067 18.915 27.4168C18.9232 27.4269 18.9312 27.437 18.9391 27.4472C18.941 27.4497 18.943 27.4521 18.9447 27.4546L18.9497 27.4622C18.953 27.4673 18.9562 27.4722 18.9592 27.4772L18.968 27.4916C18.9709 27.4963 18.9731 27.5013 18.9755 27.5059C18.9802 27.5154 18.9847 27.5242 18.9887 27.5328C18.9907 27.5369 18.9924 27.5413 18.9941 27.5457L18.9989 27.558C19.0019 27.566 19.0047 27.5733 19.007 27.5802L19.0088 27.5852L19.0099 27.5898L19.0121 27.5983C19.0148 27.609 19.0166 27.6177 19.018 27.6235L19.0199 27.6325C19.0217 27.6406 19.0202 27.6491 19.0158 27.6561C19.0114 27.6631 19.0044 27.6681 18.9965 27.6698Z" fill="#7BB246"/>
<path d="M19.4205 28.5774C19.3502 28.5774 19.2853 28.5304 19.2644 28.4579C19.211 28.2729 19.1156 28.121 18.9956 28.0301C18.9234 27.9754 18.9081 27.8711 18.9617 27.7972C19.0152 27.7233 19.1172 27.7077 19.1895 27.7624C19.366 27.8961 19.5036 28.1097 19.5768 28.3638C19.6022 28.452 19.5529 28.5446 19.4666 28.5706C19.4517 28.5751 19.4361 28.5774 19.4205 28.5774Z" fill="#C0A519"/>
<path d="M31.081 12.1771C30.757 13.5507 29.2545 14.3585 27.7251 13.9812C26.1957 13.604 25.2185 12.1847 25.5425 10.811C25.8665 9.43743 27.369 8.62969 28.8984 9.00692C30.4278 9.38414 31.405 10.8035 31.081 12.1771Z" fill="#EF4D3C"/>
<path d="M29.4969 9.59955C29.4833 9.60262 29.469 9.60083 29.4565 9.59447L29.448 9.59015C29.448 9.59015 29.442 9.58708 29.4314 9.58083C29.421 9.57443 29.4049 9.5656 29.3862 9.55323C29.3814 9.55016 29.3763 9.54702 29.3712 9.54352L29.3634 9.53828L29.3553 9.53406C29.3442 9.52845 29.3331 9.52204 29.3211 9.51567C29.3087 9.50943 29.2979 9.50193 29.2837 9.49545C29.2699 9.48878 29.2563 9.48141 29.2419 9.4742C29.2346 9.47083 29.228 9.46625 29.2204 9.46323L29.1976 9.45353C29.1899 9.45038 29.1825 9.4468 29.175 9.44335L29.1637 9.43812C29.1599 9.43639 29.1557 9.43529 29.1517 9.43385C29.1356 9.42851 29.1202 9.42218 29.1044 9.41633C29.0881 9.41168 29.0718 9.40685 29.0556 9.40186L29.0436 9.39815C29.0394 9.39722 29.035 9.39647 29.0309 9.39543L29.0059 9.38958C28.9975 9.38774 28.9896 9.3853 28.9809 9.38387L28.955 9.37935L28.9295 9.37459L28.9231 9.37338L28.9163 9.37273L28.9029 9.37095L28.8764 9.36726C28.8675 9.36607 28.8591 9.36435 28.8495 9.36414C28.8403 9.36318 28.831 9.36236 28.8219 9.36121C28.8129 9.3597 28.8038 9.35864 28.795 9.35668C28.7768 9.35355 28.7576 9.35115 28.7395 9.34614C28.7302 9.34419 28.7214 9.34075 28.7121 9.33843C28.7027 9.33576 28.6932 9.33363 28.6838 9.33044C28.665 9.32488 28.6466 9.31734 28.6281 9.31028C28.609 9.30339 28.5901 9.2968 28.5715 9.2897C28.5528 9.28257 28.5346 9.27522 28.5159 9.26965C28.491 9.2617 28.4661 9.25354 28.4412 9.24518C28.4351 9.25254 28.4289 9.25979 28.4225 9.26691C28.4115 9.27828 28.4041 9.29036 28.3947 9.30109C28.3858 9.31196 28.3777 9.32225 28.3695 9.33161C28.363 9.34044 28.3563 9.34913 28.3495 9.35766C28.3445 9.36407 28.3394 9.37036 28.3341 9.37656C28.3287 9.39065 28.3231 9.40465 28.3172 9.41855C28.3069 9.44258 28.2961 9.46636 28.2848 9.4899C28.2819 9.49625 28.2786 9.50249 28.2755 9.50885C28.2724 9.51542 28.2691 9.52194 28.2658 9.5284C28.2448 9.56972 28.2224 9.61031 28.1988 9.65009C28.1661 9.70564 28.1312 9.75979 28.0942 9.81241C28.0759 9.83823 28.0575 9.86319 28.0389 9.88661C28.0214 9.90905 28.0034 9.93103 27.9849 9.95252C27.9499 9.9931 27.9176 10.0263 27.8934 10.0492C27.8816 10.0607 27.8709 10.0694 27.8644 10.0754C27.861 10.0785 27.8581 10.0806 27.8563 10.0821L27.8535 10.0842L27.8446 10.091C27.7922 10.1309 27.7181 10.1199 27.6791 10.0663C27.6708 10.0548 27.6645 10.0419 27.6605 10.0282L27.6563 10.0136C27.654 10.0044 27.6498 9.99069 27.6463 9.97379C27.6418 9.9537 27.638 9.93346 27.6349 9.9131C27.6309 9.88741 27.6278 9.86157 27.6257 9.83565C27.6233 9.8075 27.6216 9.77715 27.6212 9.74539C27.6205 9.71348 27.6213 9.68023 27.6233 9.64598C27.6253 9.61176 27.6288 9.57664 27.6335 9.54115C27.6383 9.50563 27.6445 9.46979 27.6522 9.43413C27.6598 9.39843 27.6687 9.36291 27.6795 9.32818C27.6835 9.31508 27.6877 9.30209 27.6922 9.28921C27.6796 9.29143 27.6669 9.29366 27.6542 9.29586C27.6129 9.30388 27.571 9.31304 27.5288 9.32274C27.4865 9.33268 27.4441 9.34394 27.4015 9.35517C27.3592 9.36738 27.3167 9.37926 27.2749 9.39179C27.2334 9.40492 27.1918 9.41702 27.1521 9.43047C27.112 9.4431 27.0737 9.45662 27.0366 9.46873L26.9334 9.5047C26.9185 9.51041 26.9034 9.51577 26.8883 9.52077C26.8739 9.52555 26.8622 9.53012 26.8498 9.53389C26.8379 9.53788 26.827 9.54113 26.8165 9.54572C26.8065 9.54995 26.7975 9.55324 26.7903 9.55589C26.7758 9.56123 26.7675 9.56363 26.7675 9.56363C26.7559 9.56701 26.7437 9.56747 26.7319 9.56499C26.7201 9.56251 26.709 9.55716 26.6996 9.54938C26.6903 9.5416 26.6829 9.53163 26.6781 9.52031C26.6733 9.50899 26.6712 9.49666 26.6721 9.48435C26.6721 9.48435 26.6727 9.47559 26.6748 9.46001C26.6758 9.4522 26.6772 9.4426 26.6792 9.43165C26.6803 9.42607 26.6807 9.42039 26.6827 9.41364L26.6888 9.39268C26.693 9.37787 26.6988 9.36101 26.705 9.34403C26.7118 9.32573 26.7191 9.30765 26.7269 9.28983C26.7363 9.26988 26.7463 9.2502 26.7567 9.23082C26.7688 9.20964 26.7816 9.18885 26.7949 9.16847C26.8236 9.12669 26.8576 9.08284 26.8983 9.04131C26.9385 8.99894 26.9855 8.95931 27.0371 8.92187C27.0908 8.88386 27.1478 8.85095 27.2074 8.82355C27.2689 8.7961 27.334 8.77333 27.4013 8.7571C27.4688 8.74184 27.5381 8.73241 27.6072 8.73044C27.6555 8.72951 27.7035 8.73199 27.7503 8.73792C27.7419 8.722 27.7325 8.70665 27.7222 8.69198C27.716 8.6827 27.7083 8.6731 27.701 8.66283C27.6926 8.65313 27.6846 8.64312 27.6755 8.63256C27.6578 8.61192 27.6375 8.59078 27.6177 8.56965L27.5572 8.50751C27.5387 8.48842 27.5203 8.46917 27.502 8.44977C27.4853 8.43161 27.4708 8.41557 27.4587 8.40098C27.4454 8.38701 27.4355 8.37406 27.4286 8.36609C27.4251 8.36211 27.4226 8.35846 27.4208 8.35622L27.4182 8.35275L27.4125 8.34532C27.4058 8.33639 27.4013 8.3259 27.3994 8.31476C27.3975 8.30362 27.3984 8.29219 27.4019 8.28146C27.4053 8.27074 27.4114 8.26106 27.4194 8.25328C27.4274 8.24549 27.4371 8.23985 27.4478 8.23684C27.4478 8.23684 27.453 8.23538 27.4625 8.23313C27.4721 8.2311 27.4862 8.22731 27.5038 8.22413C27.5222 8.22135 27.5452 8.21731 27.5709 8.21517L27.6121 8.2114C27.6267 8.21037 27.6419 8.21042 27.6581 8.20995C27.6742 8.20963 27.6912 8.2101 27.7089 8.21027C27.7266 8.21062 27.7449 8.21268 27.764 8.21405C27.8022 8.21852 27.8432 8.22449 27.8866 8.23643C27.9298 8.24777 27.9758 8.26369 28.0225 8.28764C28.0694 8.31092 28.1168 8.34214 28.1619 8.38099C28.1731 8.39088 28.1843 8.40097 28.1953 8.41129C28.206 8.42208 28.2167 8.43308 28.2272 8.44429C28.2374 8.45571 28.2476 8.46738 28.2576 8.47922C28.2677 8.49105 28.2766 8.50349 28.286 8.51588C28.3077 8.54597 28.3271 8.57719 28.3435 8.60871C28.3584 8.59368 28.3737 8.57902 28.3901 8.56566C28.4172 8.54157 28.4469 8.52138 28.4768 8.50122C28.4922 8.49195 28.5076 8.48291 28.5232 8.47409C28.5387 8.46489 28.5548 8.45811 28.5708 8.45023C28.6349 8.42069 28.7014 8.39912 28.7668 8.38749C28.8323 8.37541 28.8968 8.37066 28.9579 8.37389C29.0191 8.37663 29.0772 8.38542 29.1304 8.39968C29.1838 8.41316 29.2325 8.43224 29.2756 8.45287C29.3187 8.47423 29.3563 8.49692 29.3878 8.52093C29.4035 8.53293 29.4181 8.5436 29.4307 8.55573C29.4435 8.56734 29.4548 8.57733 29.4656 8.58876C29.4749 8.59814 29.4839 8.60787 29.4925 8.61796C29.4986 8.62634 29.5036 8.63391 29.5077 8.64008C29.5118 8.64609 29.5147 8.65125 29.5167 8.65452L29.5198 8.65955C29.5261 8.6699 29.5299 8.68165 29.5308 8.69381C29.5318 8.70597 29.5298 8.71817 29.5251 8.72937C29.5204 8.74058 29.5131 8.75045 29.5038 8.75815C29.4946 8.76585 29.4836 8.77114 29.472 8.77358L29.4663 8.77477C29.4625 8.7755 29.4569 8.77689 29.4498 8.77799C29.4426 8.77925 29.4338 8.78075 29.4236 8.78202C29.4144 8.78454 29.4044 8.78705 29.3936 8.78969C29.3832 8.79256 29.3702 8.79527 29.3569 8.79841C29.3501 8.80009 29.3434 8.8015 29.3363 8.80299L29.3144 8.80828C29.2847 8.81523 29.2521 8.82357 29.2182 8.83207C29.1842 8.84117 29.1487 8.85017 29.1127 8.86084C29.0947 8.86579 29.0766 8.87112 29.0585 8.87665L29.0656 8.88038C29.0915 8.89325 29.1167 8.91046 29.1413 8.92666L29.1777 8.95104C29.1895 8.95964 29.2009 8.96947 29.2122 8.97855L29.2454 9.00608C29.2508 9.01068 29.2563 9.0151 29.2615 9.01978L29.2767 9.03467C29.2966 9.05471 29.3165 9.07326 29.334 9.09343C29.3502 9.11359 29.3663 9.13391 29.3822 9.15438C29.3859 9.15937 29.3899 9.16403 29.3933 9.16914L29.4033 9.18439C29.4098 9.19449 29.4164 9.20425 29.4223 9.21421L29.4399 9.24315C29.4457 9.25248 29.45 9.2625 29.4549 9.27177C29.4643 9.29063 29.4733 9.30827 29.4812 9.32539C29.4853 9.33373 29.4888 9.34256 29.4921 9.35119L29.5016 9.37597C29.5076 9.39194 29.5134 9.40651 29.518 9.4203L29.5214 9.43032L29.5238 9.43946L29.528 9.45644C29.5336 9.47784 29.5371 9.49521 29.5399 9.50681L29.5438 9.52486C29.5472 9.54112 29.5442 9.55812 29.5354 9.57212C29.5266 9.58612 29.5128 9.59599 29.4969 9.59955Z" fill="#7BB246"/>
<path d="M30.3469 11.4149C30.2062 11.4149 30.0764 11.3209 30.0346 11.1759C29.928 10.8058 29.7371 10.502 29.4971 10.3203C29.3526 10.2108 29.3222 10.0022 29.4292 9.85437C29.5363 9.70653 29.7403 9.67543 29.8848 9.7849C30.2379 10.0523 30.513 10.4794 30.6595 10.9875C30.7104 11.164 30.6117 11.3492 30.4391 11.4012C30.4092 11.4102 30.3781 11.4149 30.3469 11.4149Z" fill="#C0A519"/>
<path d="M35.1013 20.6229C34.0849 21.5672 32.4045 21.3554 31.3478 20.1497C30.2912 18.9441 30.2585 17.2013 31.2748 16.257C32.2912 15.3127 33.9716 15.5246 35.0283 16.7302C36.0849 17.9358 36.1176 19.6786 35.1013 20.6229Z" fill="#EF4D3C"/>
<path d="M35.1989 17.5693C35.186 17.5639 35.1753 17.5541 35.1684 17.5415L35.1638 17.533C35.1638 17.533 35.1605 17.5269 35.1551 17.5156C35.15 17.5042 35.1416 17.4875 35.1328 17.4664C35.1306 17.4611 35.1281 17.4555 35.1258 17.4496L35.1222 17.4407L35.1178 17.4325C35.1117 17.4214 35.106 17.4096 35.0996 17.3973C35.0927 17.3849 35.088 17.3724 35.0798 17.3588C35.072 17.3452 35.0648 17.3311 35.0568 17.3168C35.0526 17.3097 35.0497 17.3021 35.045 17.2951L35.0315 17.2738C35.0269 17.2667 35.0228 17.2594 35.0184 17.2522L35.0119 17.2412C35.0098 17.2376 35.0069 17.2343 35.0044 17.2308C34.994 17.2169 34.9847 17.2027 34.9749 17.1886C34.964 17.1753 34.9532 17.1618 34.9425 17.1482L34.9346 17.1381C34.9316 17.1348 34.9285 17.1317 34.9256 17.1284L34.9082 17.1089C34.9022 17.1025 34.897 17.0959 34.8907 17.0896L34.8718 17.0708L34.8533 17.0519L34.8487 17.0472L34.8434 17.0427L34.8334 17.0334L34.8135 17.0148C34.8068 17.0086 34.8008 17.0023 34.793 16.9965C34.7859 16.9903 34.7787 16.9842 34.7718 16.978C34.7652 16.9714 34.7583 16.9653 34.752 16.9585C34.7387 16.9452 34.7242 16.932 34.712 16.9173C34.7054 16.9103 34.7 16.9023 34.6936 16.895C34.6873 16.8872 34.6806 16.8799 34.6746 16.8718C34.6621 16.8562 34.6511 16.8393 34.6396 16.8226C34.6276 16.8057 34.6156 16.7893 34.6041 16.7725C34.5926 16.7557 34.5815 16.739 34.5692 16.7235C34.5529 16.7023 34.5368 16.681 34.5209 16.6596C34.5118 16.6621 34.5027 16.6644 34.4936 16.6666C34.4783 16.6696 34.4656 16.6752 34.452 16.6785C34.4387 16.6823 34.4264 16.6861 34.4146 16.689C34.4044 16.6925 34.3941 16.6958 34.3838 16.6988C34.3762 16.7011 34.3685 16.7034 34.3609 16.7054C34.3487 16.7139 34.3364 16.7221 34.324 16.7301C34.3024 16.744 34.2805 16.7573 34.2583 16.7701C34.2525 16.7736 34.2464 16.7769 34.2403 16.7803C34.2341 16.7839 34.2279 16.7874 34.2216 16.7908C34.1818 16.8126 34.1412 16.833 34.1 16.852C34.0427 16.8788 33.9844 16.9031 33.9252 16.9248C33.896 16.9354 33.8672 16.9453 33.8391 16.9537C33.8124 16.9621 33.7856 16.9697 33.7586 16.9766C33.7076 16.9896 33.6628 16.9981 33.6304 17.0029C33.6143 17.0055 33.6008 17.0064 33.5921 17.0075C33.5877 17.0081 33.5841 17.0081 33.5818 17.0083L33.5784 17.0085L33.5673 17.0089C33.5023 17.0112 33.4472 16.9587 33.4442 16.8917C33.4436 16.8773 33.4454 16.863 33.4495 16.8494L33.454 16.8349C33.4572 16.826 33.4612 16.8121 33.4675 16.7961C33.4748 16.7769 33.4827 16.758 33.4912 16.7394C33.5019 16.7159 33.5135 16.6927 33.5258 16.6701C33.5392 16.6454 33.5543 16.6194 33.5714 16.593C33.5881 16.5662 33.607 16.5393 33.6273 16.5122C33.6476 16.4851 33.6696 16.4581 33.6929 16.4316C33.7161 16.4051 33.7408 16.3791 33.7666 16.3542C33.7924 16.3292 33.8191 16.3051 33.8469 16.2827C33.8574 16.2742 33.8679 16.266 33.8786 16.258C33.867 16.2524 33.8553 16.2469 33.8436 16.2412C33.8052 16.2237 33.7656 16.2068 33.7255 16.1901C33.6852 16.1736 33.644 16.158 33.6027 16.1424C33.5612 16.1278 33.5197 16.1127 33.4783 16.0986C33.4369 16.0852 33.3959 16.0709 33.3559 16.0588C33.3158 16.0457 33.2769 16.0345 33.2397 16.0228L33.1349 15.9921C33.1195 15.9881 33.1041 15.9838 33.0889 15.979C33.0744 15.9746 33.0622 15.9715 33.05 15.9674C33.038 15.9637 33.0272 15.96 33.0161 15.9577C33.0054 15.9553 32.9963 15.9528 32.9888 15.9507C32.974 15.9466 32.9659 15.9438 32.9659 15.9438C32.9544 15.9398 32.9441 15.933 32.9357 15.9241C32.9273 15.9151 32.9211 15.9042 32.9176 15.8923C32.9141 15.8804 32.9134 15.8679 32.9156 15.8557C32.9178 15.8436 32.9229 15.8322 32.9303 15.8225C32.9303 15.8225 32.9356 15.8157 32.9458 15.8041C32.9509 15.7982 32.9573 15.7911 32.9649 15.7832C32.9688 15.7792 32.9722 15.7748 32.9776 15.7704L32.9941 15.7567C33.0056 15.7469 33.0196 15.7364 33.034 15.726C33.0495 15.7148 33.0654 15.7042 33.0816 15.6941C33.1002 15.6831 33.1192 15.6727 33.1384 15.6628C33.1599 15.6524 33.1818 15.6427 33.2039 15.6337C33.2504 15.616 33.3023 15.5997 33.3586 15.5892C33.4148 15.5777 33.4752 15.5725 33.5382 15.5717C33.6033 15.5718 33.6683 15.578 33.7324 15.5902C33.7981 15.6035 33.8643 15.6228 33.9286 15.6487C33.9927 15.6756 34.0551 15.7083 34.1131 15.7471C34.1535 15.7746 34.1917 15.8046 34.2271 15.8369C34.2289 15.8189 34.2295 15.8007 34.229 15.7826C34.2289 15.7713 34.2278 15.7589 34.2274 15.7461C34.2258 15.7332 34.2247 15.7203 34.2228 15.7062C34.2195 15.6788 34.2143 15.6495 34.2094 15.6205L34.1934 15.5339C34.1885 15.5073 34.1838 15.4806 34.1793 15.4539C34.1755 15.4292 34.1722 15.4074 34.1702 15.3883C34.1669 15.369 34.1658 15.3526 34.1644 15.3419C34.1637 15.3366 34.1636 15.3321 34.1633 15.3292L34.163 15.3248L34.1625 15.3154C34.1617 15.3041 34.1637 15.2928 34.1683 15.2825C34.1728 15.2722 34.1797 15.2633 34.1884 15.2565C34.1972 15.2496 34.2074 15.2452 34.2183 15.2434C34.2291 15.2417 34.2403 15.2427 34.2507 15.2465C34.2507 15.2465 34.2558 15.2483 34.2649 15.252C34.2738 15.2559 34.2876 15.2611 34.3039 15.2688C34.3205 15.2772 34.3417 15.2873 34.3641 15.3006L34.4002 15.3216C34.4128 15.3293 34.4253 15.3382 34.4389 15.3473C34.4524 15.3564 34.4662 15.3667 34.4807 15.3772C34.4951 15.3879 34.5091 15.4003 34.5241 15.4126C34.5532 15.4386 34.5838 15.4675 34.613 15.5027C34.6426 15.5374 34.6719 15.5774 34.6973 15.6245C34.7234 15.6711 34.7455 15.7246 34.7615 15.783C34.7653 15.7977 34.7691 15.8126 34.7726 15.8276C34.7755 15.8427 34.7783 15.858 34.7809 15.8734C34.7831 15.8888 34.7851 15.9044 34.7869 15.9201C34.7888 15.9357 34.7894 15.9512 34.7904 15.9669C34.7918 16.0044 34.7909 16.0415 34.7872 16.0772C34.8077 16.0734 34.8283 16.0703 34.8491 16.0689C34.8847 16.0648 34.9201 16.0655 34.9559 16.0664C34.9736 16.0677 34.9912 16.0693 35.0089 16.0711C35.0267 16.0726 35.0437 16.0764 35.0612 16.0792C35.1302 16.0924 35.1969 16.1134 35.2572 16.1421C35.3178 16.1704 35.3737 16.2042 35.4224 16.2426C35.4714 16.2806 35.5145 16.3218 35.5507 16.3647C35.5874 16.4071 35.6171 16.4513 35.6415 16.4935C35.6654 16.5364 35.6841 16.5771 35.697 16.6153C35.7034 16.6344 35.7096 16.6517 35.7135 16.6691C35.7177 16.6862 35.7215 16.701 35.7242 16.7168C35.7268 16.73 35.7289 16.7433 35.7305 16.7566C35.731 16.7671 35.731 16.7763 35.731 16.7837C35.7311 16.7911 35.7307 16.7971 35.7306 16.801L35.7304 16.8069C35.73 16.8191 35.7267 16.8311 35.7208 16.8416C35.7149 16.8522 35.7066 16.8611 35.6966 16.8676C35.6866 16.8741 35.6752 16.878 35.6634 16.8789C35.6516 16.8799 35.6397 16.8779 35.6287 16.873L35.6233 16.8707C35.6199 16.8691 35.6144 16.8669 35.608 16.8637C35.6014 16.8606 35.5933 16.8566 35.5842 16.8517C35.5753 16.8485 35.5656 16.8446 35.5552 16.8405C35.5451 16.8368 35.5329 16.8315 35.5202 16.8263C35.5137 16.8237 35.5073 16.8209 35.5007 16.818L35.4798 16.8096C35.4515 16.7979 35.42 16.7858 35.3874 16.773C35.3543 16.7606 35.3202 16.7473 35.2846 16.735C35.2671 16.7286 35.2492 16.7224 35.2313 16.7164L35.235 16.7236C35.2495 16.7494 35.2608 16.7783 35.2723 16.8061L35.2891 16.8475C35.2942 16.8615 35.2982 16.8762 35.3025 16.8903L35.315 16.9325C35.3169 16.9394 35.319 16.9463 35.3208 16.9532L35.3252 16.9744C35.3307 17.0025 35.337 17.0295 35.3404 17.0563C35.3428 17.0825 35.345 17.1086 35.347 17.1348C35.3473 17.1411 35.3481 17.1473 35.3481 17.1535L35.3481 17.172C35.348 17.1841 35.348 17.196 35.3475 17.2077L35.3462 17.2419C35.346 17.253 35.344 17.2637 35.343 17.2743C35.3405 17.2953 35.3383 17.3151 35.3355 17.3339C35.3343 17.3432 35.3324 17.3525 35.3304 17.3615L35.3248 17.3876C35.321 17.4043 35.3178 17.4197 35.3141 17.4337L35.3115 17.444L35.3084 17.4529L35.3027 17.4694C35.2956 17.4903 35.289 17.5067 35.285 17.5179L35.2784 17.5351C35.2723 17.5505 35.2606 17.5628 35.2457 17.5692C35.2308 17.5756 35.214 17.5757 35.1989 17.5693Z" fill="#7BB246"/>
<path d="M34.9113 19.5646C34.7951 19.4823 34.7393 19.3289 34.7838 19.1847C34.8976 18.817 34.9057 18.4546 34.8067 18.1643C34.7471 17.9894 34.8357 17.7995 35.0047 17.7401C35.1736 17.6806 35.3589 17.7742 35.4186 17.9491C35.5642 18.3763 35.5584 18.8896 35.4023 19.3947C35.348 19.57 35.1656 19.6652 34.9949 19.6072C34.9652 19.5972 34.9371 19.5828 34.9113 19.5646Z" fill="#C0A519"/>
</svg>
