<svg width="27" height="26" viewBox="0 0 27 26" fill="none" xmlns="http://www.w3.org/2000/svg">
<path d="M13.4965 8.66482C11.1094 8.66482 9.16141 10.6129 9.16141 13C9.16141 15.3871 11.1094 17.3352 13.4965 17.3352C15.8836 17.3352 17.8316 15.3871 17.8316 13C17.8316 10.6129 15.8836 8.66482 13.4965 8.66482ZM26.4985 13C26.4985 11.2048 26.5148 9.42584 26.414 7.63387C26.3132 5.55247 25.8384 3.70522 24.3164 2.18319C22.7911 0.657911 20.9472 0.186343 18.8658 0.0855244C17.0706 -0.0152937 15.2917 0.000967347 13.4998 0.000967347C11.7046 0.000967347 9.92566 -0.0152937 8.13373 0.0855244C6.05236 0.186343 4.20515 0.661163 2.68315 2.18319C1.1579 3.70847 0.686339 5.55247 0.585523 7.63387C0.484707 9.42909 0.500967 11.208 0.500967 13C0.500967 14.792 0.484707 16.5742 0.585523 18.3661C0.686339 20.4475 1.16115 22.2948 2.68315 23.8168C4.2084 25.3421 6.05236 25.8137 8.13373 25.9145C9.92891 26.0153 11.7078 25.999 13.4998 25.999C15.2949 25.999 17.0739 26.0153 18.8658 25.9145C20.9472 25.8137 22.7944 25.3388 24.3164 23.8168C25.8416 22.2915 26.3132 20.4475 26.414 18.3661C26.5181 16.5742 26.4985 14.7952 26.4985 13ZM13.4965 19.6703C9.80533 19.6703 6.82637 16.6912 6.82637 13C6.82637 9.30876 9.80533 6.32974 13.4965 6.32974C17.1877 6.32974 20.1666 9.30876 20.1666 13C20.1666 16.6912 17.1877 19.6703 13.4965 19.6703ZM20.4398 7.61436C19.578 7.61436 18.882 6.91839 18.882 6.05656C18.882 5.19473 19.578 4.49876 20.4398 4.49876C21.3016 4.49876 21.9976 5.19473 21.9976 6.05656C21.9978 6.2612 21.9577 6.46389 21.8795 6.65301C21.8013 6.84212 21.6866 7.01396 21.5419 7.15866C21.3972 7.30337 21.2254 7.41811 21.0363 7.4963C20.8471 7.5745 20.6445 7.61462 20.4398 7.61436Z" fill="white"/>
</svg>
