<svg width="27" height="26" viewBox="0 0 27 26" fill="none" xmlns="http://www.w3.org/2000/svg">
<path d="M8.66725 26C18.479 26 23.8464 15.9945 23.8464 7.33299C23.8464 7.05301 23.8464 6.76902 23.8366 6.48904C24.8816 5.55806 25.7835 4.40545 26.5 3.08522C25.5239 3.61489 24.4895 3.96399 23.4304 4.12117C24.546 3.30049 25.3815 2.00922 25.7817 0.48736C24.7336 1.25157 23.5864 1.78804 22.3904 2.07328C21.5863 1.01938 20.5223 0.321205 19.3631 0.0868966C18.204 -0.147411 17.0144 0.0952241 15.9787 0.777219C14.9429 1.45921 14.1188 2.54251 13.634 3.8593C13.1492 5.17609 13.0307 6.6529 13.2969 8.06096C11.1758 7.93007 9.10083 7.25194 7.20644 6.07055C5.31206 4.88916 3.64061 3.2309 2.3005 1.20332C1.62018 2.64941 1.41256 4.35995 1.7198 5.9876C2.02704 7.61524 2.82611 9.03796 3.95475 9.96685C3.109 9.93149 2.28185 9.65199 1.54 9.1509V9.24089C1.54146 10.7558 1.96787 12.2236 2.74717 13.3962C3.52647 14.5688 4.61084 15.3743 5.817 15.6766C5.35918 15.8318 4.88625 15.9092 4.41138 15.9065C4.0766 15.9078 3.74249 15.8696 3.41363 15.7925C3.75453 17.0966 4.41832 18.2367 5.31203 19.0533C6.20573 19.8699 7.28459 20.322 8.3975 20.3463C6.5069 22.1738 4.17153 23.165 1.7675 23.1602C1.3439 23.1624 0.920588 23.1323 0.5 23.0702C2.93996 24.9846 5.77361 26.0011 8.66725 26Z" fill="white"/>
</svg>
