<svg width="9" height="8" viewBox="0 0 9 8" fill="none" xmlns="http://www.w3.org/2000/svg">
<path d="M6.57562 2.49555C6.48478 2.41244 6.38583 2.33866 6.28025 2.27532L6.02703 2.12332C5.79227 1.98252 5.53414 1.885 5.26494 1.83537L5.17442 1.81862C4.68772 1.72877 4.21834 1.56232 3.78376 1.32547C3.76416 1.2386 3.72089 1.15885 3.65874 1.09506C3.5966 1.03127 3.518 0.985941 3.43167 0.964087C3.34533 0.942233 3.25463 0.944711 3.16962 0.971247C3.08461 0.997783 3.00861 1.04734 2.95003 1.11443C2.89146 1.18151 2.85261 1.26351 2.83778 1.35132C2.82296 1.43913 2.83274 1.52934 2.86604 1.61194C2.89934 1.69453 2.95486 1.7663 3.02645 1.81927C3.09803 1.87225 3.18289 1.90436 3.27161 1.91207C3.55765 2.19188 3.79932 2.51369 3.98828 2.86641" stroke="black" stroke-width="0.552741" stroke-linecap="round" stroke-linejoin="round"/>
<path d="M2.31341 4.13997C2.26815 4.18833 1.74219 4.76698 1.74219 5.34563C1.74219 5.95019 2.0113 6.20929 2.26038 6.38202C2.50946 6.55475 2.90294 6.72748 3.22941 6.72748C3.55587 6.72748 5.28318 6.90021 6.06047 6.72748C6.83777 6.55475 6.92413 6.38202 7.26959 6.03656C7.45632 5.84983 7.59467 5.58711 7.68242 5.38536C7.76652 5.18962 7.8344 4.98731 7.88538 4.78045C7.94756 4.53241 8.01027 4.17624 7.96052 3.87741C7.87415 3.35922 7.61506 3.01376 6.7514 2.58193C5.95614 2.1843 5.25779 2.37258 5.15225 2.40488C5.14292 2.40779 5.13365 2.4109 5.12444 2.41421C4.98626 2.46309 3.86955 2.86262 3.3954 3.18649C2.91141 3.5171 2.36558 4.08504 2.31963 4.13323C2.31754 4.1354 2.31547 4.13759 2.31341 4.13979V4.13997Z" stroke="black" stroke-width="0.552741" stroke-linecap="round" stroke-linejoin="round"/>
<path d="M1.41517 3.27458C1.32645 3.26688 1.24159 3.23476 1.17 3.18179C1.09841 3.12881 1.04289 3.05705 1.00959 2.97445C0.976292 2.89186 0.966513 2.80165 0.98134 2.71384C0.996166 2.62602 1.03502 2.54403 1.09359 2.47694C1.15216 2.40986 1.22816 2.3603 1.31318 2.33377C1.39819 2.30723 1.48889 2.30475 1.57522 2.32661C1.66155 2.34846 1.74015 2.39379 1.8023 2.45758C1.86445 2.52137 1.90772 2.60112 1.92732 2.68799C2.3619 2.92478 2.83128 3.09117 3.31798 3.18096L3.40849 3.19772C3.67778 3.24747 3.93584 3.34506 4.17058 3.48584L4.42381 3.63784C4.59299 3.73936 4.74475 3.86743 4.87325 4.01716L4.94338 4.09886C5.04787 4.22066 5.12546 4.36315 5.17106 4.51702C5.21667 4.67088 5.22926 4.83264 5.20801 4.99171L5.20317 5.02833C5.17389 5.2475 5.07473 5.45139 4.92041 5.60974L4.84061 5.69144C4.71083 5.82463 4.55076 5.92443 4.37405 5.98233C4.19733 6.04023 4.00924 6.05451 3.82581 6.02395C3.53789 5.97595 3.27134 5.84163 3.06147 5.63876L2.93382 5.51526C2.83118 5.41608 2.74219 5.30368 2.6692 5.18102L2.29403 4.55021L2.18452 4.33084C1.98876 3.93832 1.72872 3.5813 1.41517 3.27458V3.27458Z" stroke="black" stroke-width="0.552741" stroke-linecap="round" stroke-linejoin="round"/>
</svg>
