<svg width="10" height="10" viewBox="0 0 10 10" fill="none" xmlns="http://www.w3.org/2000/svg">
<path d="M7.2044 1.77475H5.82255V1.42929H4.4407V1.77475H2.02246V4.53846H3.48377L3.70487 5.96522L3.05885 6.61124V8.33855H7.2044V6.61124L6.55839 5.96522L7.2044 1.77475ZM2.71339 3.84753V2.46568H3.16594L3.38013 3.84753H2.71339ZM5.13163 7.30216C4.94162 7.30216 4.78616 7.1467 4.78616 6.9567C4.78616 6.76669 4.94162 6.61124 5.13163 6.61124C5.32163 6.61124 5.47709 6.76669 5.47709 6.9567C5.47709 7.1467 5.32163 7.30216 5.13163 7.30216ZM5.92274 5.57485H4.34397L3.86378 2.46568H6.39948L5.92274 5.57485Z" fill="black"/>
</svg>
