<svg width="15" height="15" viewBox="0 0 15 15" fill="none" xmlns="http://www.w3.org/2000/svg">
<g id="ic:sharp-blender">
<path id="Vector" d="M11.25 1.875H8.75V1.25H6.25V1.875H1.875V6.875H4.51875L4.91875 9.45625L3.75 10.625V13.75H11.25V10.625L10.0813 9.45625L11.25 1.875ZM3.125 5.625V3.125H3.94375L4.33125 5.625H3.125ZM7.5 11.875C7.15625 11.875 6.875 11.5938 6.875 11.25C6.875 10.9063 7.15625 10.625 7.5 10.625C7.84375 10.625 8.125 10.9063 8.125 11.25C8.125 11.5938 7.84375 11.875 7.5 11.875ZM8.93125 8.75H6.075L5.20625 3.125H9.79375L8.93125 8.75Z" fill="white"/>
</g>
</svg>
