<svg width="9" height="8" viewBox="0 0 9 8" fill="none" xmlns="http://www.w3.org/2000/svg">
<path d="M8.45187 3.64024C8.35095 2.94146 8.33476 2.69959 8.34033 2.62251C8.35328 2.59323 8.3937 2.53234 8.4213 2.49114C8.51327 2.35382 8.62741 2.18308 8.62741 1.9723C8.62741 1.0687 7.42481 0.256561 5.83421 0.256561C4.51152 0.256561 3.14634 0.731486 2.18431 1.26872C1.99889 1.36004 1.82279 1.46916 1.65847 1.59454C1.65649 1.59595 1.65446 1.59729 1.65238 1.59856C1.65199 1.59881 1.65212 1.59933 1.65186 1.59972C1.15802 1.98072 0.854492 2.46433 0.854492 2.90376C0.854492 3.11453 0.968624 3.28528 1.06073 3.4226C1.08859 3.46418 1.12952 3.52572 1.14196 3.55474C1.14779 3.62508 1.13263 3.86423 1.03016 4.57195C1.02329 4.62028 1.01746 4.6594 1.01371 4.68647C0.826251 6.06021 0.859804 6.71585 1.1382 7.10644C1.378 7.44249 1.7603 7.51128 2.26074 7.51128C2.4346 7.51128 2.63164 7.50312 2.84021 7.49457C3.10164 7.48369 3.39766 7.47151 3.72555 7.47151C4.05344 7.47151 4.34971 7.48369 4.61088 7.49457C4.81959 7.50325 5.0165 7.51128 5.19035 7.51128C5.28324 7.51128 5.37043 7.50778 5.45489 7.5017L5.4545 7.50312C5.48002 7.50312 5.50891 7.50001 5.53949 7.49561C5.76646 7.47177 5.96026 7.4158 6.11805 7.30219C6.95908 6.93013 8.16362 6.14843 8.34383 5.89555C8.62235 5.50509 8.65604 5.12862 8.46832 3.75502C8.46443 3.72794 8.45861 3.68856 8.45187 3.64024ZM6.20627 4.73117C6.5076 6.93622 6.23179 7.23198 5.19035 7.23198C4.80832 7.23198 4.32303 7.19207 3.72555 7.19207C3.12807 7.19207 2.64291 7.23198 2.26074 7.23198C1.21956 7.23198 0.943751 6.93596 1.24482 4.73117C1.27164 4.53672 1.40443 3.68442 1.37061 3.49152C1.34147 3.32583 1.08872 3.10469 1.08872 2.90376C1.08872 2.1779 2.26929 1.18789 3.72555 1.18789C5.1818 1.18789 6.36238 2.17803 6.36238 2.90376C6.36238 3.10469 6.10963 3.32583 6.08048 3.49152C6.04654 3.68442 6.17959 4.53672 6.20627 4.73117Z" fill="black"/>
</svg>
