<svg width="15" height="15" viewBox="0 0 15 15" fill="none" xmlns="http://www.w3.org/2000/svg">
<g id="emojione-monotone:bread" clip-path="url(#clip0_94_1256)">
<path id="Vector" d="M14.2137 7.05914C14.0311 5.79492 14.0018 5.35734 14.0119 5.21789C14.0353 5.16492 14.1084 5.05477 14.1584 4.98023C14.3248 4.7318 14.5312 4.42289 14.5312 4.04156C14.5312 2.4068 12.3555 0.9375 9.47789 0.9375C7.08492 0.9375 4.61508 1.79672 2.87461 2.76867C2.53916 2.93388 2.22055 3.1313 1.92328 3.35812C1.9197 3.36068 1.91603 3.36311 1.91227 3.36539C1.91156 3.36586 1.9118 3.3668 1.91133 3.3675C1.01789 4.0568 0.46875 4.93172 0.46875 5.72672C0.46875 6.10805 0.675234 6.41695 0.841875 6.66539C0.892266 6.74062 0.966328 6.85195 0.988828 6.90445C0.999375 7.03172 0.971953 7.46438 0.786562 8.74477C0.774141 8.83219 0.763594 8.90297 0.756797 8.95195C0.417656 11.4373 0.478359 12.6234 0.982031 13.3301C1.41586 13.938 2.1075 14.0625 3.01289 14.0625C3.32742 14.0625 3.68391 14.0477 4.06125 14.0323C4.53422 14.0126 5.06977 13.9905 5.66297 13.9905C6.25617 13.9905 6.79219 14.0126 7.26469 14.0323C7.64227 14.048 7.99852 14.0625 8.31305 14.0625C8.48109 14.0625 8.63883 14.0562 8.79164 14.0452L8.79094 14.0477C8.83711 14.0477 8.88937 14.0421 8.94469 14.0341C9.35531 13.991 9.70594 13.8898 9.99141 13.6842C11.513 13.0111 13.6922 11.5969 14.0182 11.1394C14.5221 10.433 14.583 9.75187 14.2434 7.2668C14.2364 7.21781 14.2259 7.14656 14.2137 7.05914ZM10.151 9.03281C10.6962 13.0221 10.1972 13.5572 8.31305 13.5572C7.62187 13.5572 6.74391 13.485 5.66297 13.485C4.58203 13.485 3.7043 13.5572 3.01289 13.5572C1.12922 13.5572 0.630234 13.0216 1.17492 9.03281C1.22344 8.68102 1.46367 7.13906 1.4025 6.79008C1.34977 6.49031 0.8925 6.09023 0.8925 5.72672C0.8925 4.41352 3.02836 2.62242 5.66297 2.62242C8.29758 2.62242 10.4334 4.41375 10.4334 5.72672C10.4334 6.09023 9.97617 6.49031 9.92344 6.79008C9.86203 7.13906 10.1027 8.68102 10.151 9.03281Z" fill="white"/>
</g>
<defs>
<clipPath id="clip0_94_1256">
<rect width="15" height="15" fill="white"/>
</clipPath>
</defs>
</svg>
