<svg width="9" height="10" viewBox="0 0 9 10" fill="none" xmlns="http://www.w3.org/2000/svg">
<path d="M7.85443 4.474H5.81866V2.85387H5.15241C5.35864 2.60282 5.46945 2.29728 5.46803 1.98361C5.46803 1.51715 5.22598 1.07885 4.83633 0.8398L4.67103 0.738373L4.50574 0.8398C4.11602 1.07889 3.87405 1.51717 3.87405 1.98361C3.87266 2.29729 3.9835 2.60282 4.18976 2.85386H3.44977V4.47398H1.71012C1.42554 4.47428 1.1527 4.5775 0.951468 4.761C0.750236 4.9445 0.637042 5.1933 0.636719 5.45281V8.48944C0.636895 8.63262 0.699346 8.76989 0.810371 8.87113C0.921396 8.97237 1.07193 9.02932 1.22894 9.02948H8.33561C8.49262 9.02932 8.64315 8.97237 8.75418 8.87113C8.8652 8.76989 8.92765 8.63262 8.92783 8.48944V5.45283C8.92751 5.19332 8.81431 4.94452 8.61308 4.76102C8.41185 4.57752 8.13901 4.4743 7.85443 4.474ZM4.67103 1.4274C4.80039 1.57395 4.87581 1.77279 4.87581 1.98363C4.87581 2.19446 4.80039 2.39332 4.67103 2.53985C4.54168 2.39332 4.46627 2.19446 4.46627 1.98361C4.46627 1.77276 4.54168 1.57395 4.67103 1.4274ZM4.042 3.39392H5.22644V4.474H4.042V3.39392ZM1.22894 5.45283C1.22909 5.3365 1.27983 5.22497 1.37004 5.14271C1.46024 5.06045 1.58255 5.01418 1.71012 5.01404H7.85443C7.982 5.01418 8.1043 5.06045 8.19451 5.14271C8.28472 5.22497 8.33546 5.3365 8.33561 5.45283V5.98573L7.93586 6.14658C7.85768 6.17795 7.77319 6.19415 7.68778 6.19415C7.60237 6.19415 7.51789 6.17795 7.4397 6.14658L6.74401 5.86665L6.04815 6.14656C5.96996 6.17794 5.88548 6.19414 5.80006 6.19414C5.71465 6.19414 5.63016 6.17794 5.55198 6.14656L4.8563 5.86664L4.16044 6.14655C4.08226 6.17792 3.99777 6.19413 3.91235 6.19413C3.82694 6.19413 3.74245 6.17792 3.66427 6.14655L2.96859 5.86665L2.27286 6.14655C2.19468 6.17792 2.11019 6.19413 2.02478 6.19413C1.93936 6.19413 1.85487 6.17792 1.77669 6.14655L1.22894 5.92621V5.45283ZM8.33561 8.48944H1.22894V6.51648L1.5376 6.64065C1.69112 6.70225 1.85701 6.73406 2.02474 6.73406C2.19247 6.73406 2.35836 6.70225 2.51188 6.64065L2.96859 6.4569L3.42533 6.64065C3.57884 6.70225 3.74473 6.73406 3.91246 6.73406C4.08018 6.73406 4.24607 6.70225 4.39959 6.64065L4.8563 6.4569L5.313 6.64065C5.46651 6.70225 5.6324 6.73406 5.80012 6.73406C5.96784 6.73406 6.13373 6.70225 6.28724 6.64065L6.74401 6.4569L7.20072 6.64067C7.35424 6.70226 7.52012 6.73407 7.68784 6.73407C7.85555 6.73407 8.02143 6.70226 8.17495 6.64067L8.33583 6.57595L8.33598 8.48944H8.33561Z" fill="black"/>
</svg>
