<svg width="9" height="9" viewBox="0 0 9 9" fill="none" xmlns="http://www.w3.org/2000/svg">
<g clip-path="url(#clip0_236_3730)">
<path d="M7.89021 5.42948C7.70953 5.42948 7.52885 5.48165 7.37201 5.58632C7.21856 5.68864 7.03825 5.74323 6.85382 5.74323C6.66939 5.74323 6.48908 5.68864 6.33562 5.58632C6.18217 5.48401 6.00186 5.42942 5.81743 5.42942C5.633 5.42942 5.45269 5.48401 5.29924 5.58632C5.14578 5.68864 4.96548 5.74323 4.78104 5.74323C4.59661 5.74323 4.4163 5.68864 4.26285 5.58632C4.10939 5.48401 3.92909 5.42942 3.74465 5.42942C3.56022 5.42942 3.37991 5.48401 3.22646 5.58632C3.073 5.68864 2.8927 5.74323 2.70826 5.74323C2.52383 5.74323 2.34352 5.68864 2.19007 5.58632C2.03663 5.48398 1.85631 5.4294 1.67188 5.42948H7.89021ZM3.74465 2.1317V2.82262V2.1317ZM4.78104 2.1317V2.82262V2.1317ZM5.81743 2.1317V2.82262V2.1317ZM3.74465 1.09531H3.74811H3.74465ZM4.78104 1.09531H4.7845H4.78104ZM5.81743 1.09531H5.82088H5.81743ZM7.89021 7.31364V4.8954C7.89021 4.71215 7.81741 4.53641 7.68784 4.40684C7.55827 4.27727 7.38253 4.20447 7.19928 4.20447H2.3628C2.17956 4.20447 2.00382 4.27727 1.87424 4.40684C1.74467 4.53641 1.67188 4.71215 1.67188 4.8954V7.31364H7.89021ZM6.85382 4.20447V3.51355C6.85382 3.3303 6.78102 3.15456 6.65145 3.02499C6.52188 2.89541 6.34614 2.82262 6.16289 2.82262H3.39919C3.21594 2.82262 3.0402 2.89541 2.91063 3.02499C2.78106 3.15456 2.70826 3.3303 2.70826 3.51355V4.20447H6.85382Z" stroke="black" stroke-width="0.958084" stroke-linecap="round" stroke-linejoin="round"/>
</g>
<defs>
<clipPath id="clip0_236_3730">
<rect width="8.29111" height="8.29111" fill="white" transform="translate(0.636719 0.0589294)"/>
</clipPath>
</defs>
</svg>
