<svg width="15" height="15" viewBox="0 0 15 15" fill="none" xmlns="http://www.w3.org/2000/svg">
<g id="bx:coffee-togo">
<path id="Vector" d="M4.375 13.75H10.625C10.7754 13.75 10.9208 13.6958 11.0344 13.5973C11.1481 13.4988 11.2224 13.3626 11.2437 13.2137L12.4169 5H13.125V3.75H12.2612L11.1837 1.59563C11.132 1.49173 11.0523 1.40434 10.9536 1.34328C10.8549 1.28222 10.7411 1.24992 10.625 1.25H4.375C4.13812 1.25 3.92188 1.38375 3.81562 1.59563L2.73875 3.75H1.875V5H2.58312L3.75625 13.2137C3.77761 13.3626 3.85193 13.4988 3.96558 13.5973C4.07924 13.6958 4.2246 13.75 4.375 13.75ZM10.8862 6.875H4.11375L3.84562 5H11.1538L10.8862 6.875ZM4.91688 12.5L4.64875 10.625H10.3506L10.0825 12.5H4.91688ZM4.76125 2.5H10.2388L10.8638 3.75H4.13625L4.76125 2.5Z" fill="white"/>
</g>
</svg>
