<svg width="9" height="9" viewBox="0 0 9 9" fill="none" xmlns="http://www.w3.org/2000/svg">
<path d="M3.01271 7.97972H6.46734C6.55047 7.97973 6.63082 7.94977 6.69364 7.89532C6.75646 7.84088 6.79754 7.7656 6.80935 7.68332L7.45778 3.14324H7.84919V2.45232H7.37176L6.77618 1.26151C6.74758 1.20408 6.70352 1.15578 6.64895 1.12203C6.59439 1.08828 6.5315 1.07042 6.46734 1.07047H3.01271C2.88178 1.07047 2.76225 1.14439 2.70352 1.26151L2.10829 2.45232H1.63086V3.14324H2.02227L2.6707 7.68332C2.68251 7.7656 2.72359 7.84088 2.78641 7.89532C2.84923 7.94977 2.92958 7.97973 3.01271 7.97972ZM6.61174 4.17963H2.86831L2.7201 3.14324H6.7596L6.61174 4.17963ZM3.31223 7.2888L3.16402 6.25241H6.31568L6.16748 7.2888H3.31223ZM3.22621 1.76139H6.25384L6.59931 2.45232H2.88074L3.22621 1.76139Z" fill="black"/>
</svg>
