<svg width="9" height="9" viewBox="0 0 9 9" fill="none" xmlns="http://www.w3.org/2000/svg">
<path d="M4.78227 0.379517C5.07827 0.379517 5.37053 0.410608 5.65533 0.471548C5.70997 0.483249 5.76045 0.509461 5.80146 0.547427C5.84247 0.585394 5.87248 0.63371 5.88835 0.687293C5.90422 0.740877 5.90535 0.797746 5.89163 0.851918C5.8779 0.906091 5.84983 0.955563 5.81037 0.995131C5.67999 1.12604 5.58696 1.28942 5.5409 1.46835C5.49485 1.64728 5.49745 1.83527 5.54843 2.01286C5.59941 2.19046 5.69692 2.3512 5.83088 2.47845C5.96483 2.60571 6.13036 2.69486 6.31033 2.73668C6.38441 2.75378 6.44966 2.79743 6.49373 2.85939C6.53781 2.92134 6.55766 2.99729 6.54952 3.07288C6.52743 3.29108 6.57513 3.51067 6.68576 3.70004C6.79638 3.88941 6.96423 4.03881 7.16515 4.12673C7.36607 4.21466 7.5897 4.23658 7.80386 4.18934C8.01803 4.1421 8.21169 4.02814 8.35699 3.86386C8.39673 3.81886 8.44865 3.78633 8.50648 3.7702C8.56431 3.75407 8.62557 3.75503 8.68287 3.77296C8.74017 3.79089 8.79105 3.82502 8.82937 3.87124C8.86769 3.91746 8.8918 3.97378 8.89881 4.03341C8.91829 4.19509 8.92783 4.35966 8.92783 4.52507C8.92783 6.81466 7.07186 8.67063 4.78227 8.67063C2.49268 8.67063 0.636719 6.81466 0.636719 4.52507C0.636719 2.23548 2.49268 0.379517 4.78227 0.379517ZM4.78227 1.00135C4.09887 1.00139 3.43023 1.20015 2.85778 1.57343C2.28533 1.94672 1.83378 2.4784 1.55813 3.10374C1.28247 3.72908 1.19461 4.42109 1.30523 5.09547C1.41586 5.76986 1.7202 6.39753 2.18119 6.90203C2.64218 7.40653 3.23993 7.76609 3.90164 7.93692C4.56334 8.10776 5.26044 8.08249 5.90804 7.86419C6.55564 7.6459 7.12579 7.244 7.54904 6.70744C7.9723 6.17089 8.23039 5.52283 8.2919 4.84221L8.29978 4.73567L8.30268 4.67058L8.22226 4.70706C8.08545 4.76468 7.94036 4.80365 7.78987 4.82314L7.67629 4.83309L7.58052 4.83599C7.18365 4.836 6.79993 4.6937 6.49902 4.43493C6.19811 4.17616 5.99996 3.81807 5.94054 3.42567L5.93018 3.34234L5.92437 3.26482L5.86426 3.23995C5.59958 3.12074 5.3708 2.93421 5.20073 2.69896C5.03065 2.46372 4.92525 2.18798 4.89503 1.89928L4.88799 1.80973L4.88591 1.72682C4.88591 1.54152 4.91659 1.36118 4.97463 1.19122L5.01235 1.09048L5.04759 1.01171L4.93317 1.00467L4.78227 1.00135ZM6.02594 6.18329C6.13589 6.18329 6.24133 6.22697 6.31908 6.30471C6.39682 6.38246 6.4405 6.4879 6.4405 6.59785C6.4405 6.7078 6.39682 6.81324 6.31908 6.89098C6.24133 6.96873 6.13589 7.0124 6.02594 7.0124C5.91599 7.0124 5.81055 6.96873 5.73281 6.89098C5.65506 6.81324 5.61138 6.7078 5.61138 6.59785C5.61138 6.4879 5.65506 6.38246 5.73281 6.30471C5.81055 6.22697 5.91599 6.18329 6.02594 6.18329ZM3.12405 5.76874C3.234 5.76874 3.33944 5.81241 3.41719 5.89016C3.49493 5.9679 3.53861 6.07335 3.53861 6.18329C3.53861 6.29324 3.49493 6.39868 3.41719 6.47643C3.33944 6.55417 3.234 6.59785 3.12405 6.59785C3.0141 6.59785 2.90866 6.55417 2.83092 6.47643C2.75317 6.39868 2.7095 6.29324 2.7095 6.18329C2.7095 6.07335 2.75317 5.9679 2.83092 5.89016C2.90866 5.81241 3.0141 5.76874 3.12405 5.76874ZM4.78227 4.11052C4.89222 4.11052 4.99766 4.15419 5.07541 4.23194C5.15315 4.30968 5.19683 4.41512 5.19683 4.52507C5.19683 4.63502 5.15315 4.74046 5.07541 4.81821C4.99766 4.89595 4.89222 4.93963 4.78227 4.93963C4.67233 4.93963 4.56688 4.89595 4.48914 4.81821C4.41139 4.74046 4.36772 4.63502 4.36772 4.52507C4.36772 4.41512 4.41139 4.30968 4.48914 4.23194C4.56688 4.15419 4.67233 4.11052 4.78227 4.11052ZM2.7095 2.86685C2.81944 2.86685 2.92489 2.91053 3.00263 2.98827C3.08038 3.06601 3.12405 3.17146 3.12405 3.2814C3.12405 3.39135 3.08038 3.4968 3.00263 3.57454C2.92489 3.65228 2.81944 3.69596 2.7095 3.69596C2.59955 3.69596 2.49411 3.65228 2.41636 3.57454C2.33862 3.4968 2.29494 3.39135 2.29494 3.2814C2.29494 3.17146 2.33862 3.06601 2.41636 2.98827C2.49411 2.91053 2.59955 2.86685 2.7095 2.86685Z" fill="black"/>
</svg>
