<svg width="9" height="9" viewBox="0 0 9 9" fill="none" xmlns="http://www.w3.org/2000/svg">
<path d="M8.62147 4.41052C8.5856 4.16579 8.40896 3.95188 8.09516 3.77307C8.19646 3.51287 8.33578 2.95515 7.91979 2.50356C7.53551 2.0861 7.06219 1.89541 6.64493 1.7271C6.47551 1.65883 6.31509 1.5943 6.16369 1.51706C6.0541 1.46123 5.9045 1.3703 5.89603 1.28974C5.88575 1.19205 6.03067 1.05939 6.14206 0.946629L6.41621 0.669567L5.99318 0.538291C5.97137 0.531935 5.44903 0.379517 4.79908 0.379517C3.73331 0.379517 2.93375 0.784261 2.51956 1.52604C2.51214 1.52524 2.50468 1.52474 2.49721 1.52452C2.47032 1.5233 2.44339 1.5227 2.41646 1.52272H2.4161C1.76002 1.52272 1.10123 1.88339 0.696409 2.46418C0.200743 3.17542 0.218948 4.00301 0.742911 4.57233C0.85333 4.69316 0.985219 4.80158 1.13476 4.89444C1.20037 5.08845 1.31932 5.24225 1.47848 5.36607L1.57202 5.92585C1.58446 6.07855 1.69513 6.27671 2.10896 6.42608L2.4644 7.90964C2.521 8.67063 4.12533 8.67063 4.73311 8.67063C5.34088 8.67063 6.9454 8.67063 7.00199 7.9095L7.35689 6.42622C7.77091 6.27684 7.88139 6.07855 7.89401 5.92585L7.98017 5.4107C8.03262 5.37436 8.08164 5.33539 8.1267 5.29283C8.20096 5.24059 8.68996 4.87744 8.62147 4.41052ZM3.00999 1.59499C3.1486 1.32222 3.39445 1.07279 3.71961 0.901027C3.92725 0.788683 4.16282 0.712681 4.40453 0.66708C4.53515 0.651706 4.66711 0.643992 4.79926 0.644003C5.39009 0.644003 5.86449 0.784537 5.86449 0.784537C5.72966 0.921202 5.60097 1.05607 5.54402 1.19039C5.48508 1.32899 5.53572 1.48016 6.0386 1.81802C6.19595 1.92374 6.37006 2.02544 6.54292 2.13336C6.88628 2.35031 7.24063 2.58882 7.50505 2.8938C7.88356 3.33032 7.70998 3.81162 7.70295 3.8282C7.59787 3.53401 7.37762 3.31001 7.1114 3.1095C6.81815 2.88799 6.47262 2.69205 6.12818 2.47413C5.95641 2.36427 5.78194 2.25123 5.61701 2.12065C5.45444 1.99006 5.29023 1.84442 5.19002 1.65096C5.14154 1.55492 5.11378 1.44382 5.13306 1.33521C5.15128 1.23038 5.20663 1.1314 5.29312 1.04902C5.33061 1.01434 5.37134 0.983386 5.4128 0.954505C5.22066 1.07182 5.08314 1.20766 5.00834 1.35649C4.87496 1.60702 4.8746 1.89002 4.9548 2.16611C5.03681 2.44304 5.19867 2.71388 5.43209 2.96468C5.66388 3.21825 5.96993 3.44654 6.34663 3.67717C5.85043 3.66819 5.35729 3.5119 4.96904 3.26082C4.58026 3.00987 4.29476 2.66427 4.18427 2.28233C4.07252 1.90494 4.13669 1.47076 4.47392 1.13373C4.61679 0.992997 4.80244 0.881221 5.01465 0.808167C4.96328 0.817011 4.91137 0.825026 4.86126 0.836219C4.54025 0.901856 4.25565 1.01876 4.03629 1.17353C3.592 1.48196 3.42509 1.94819 3.51449 2.38555C3.59993 2.82539 3.9395 3.23497 4.46347 3.49849C4.6994 3.62106 4.96958 3.70978 5.25959 3.77542C4.891 3.80858 4.50546 3.82737 4.13579 3.72912C3.79927 3.63972 3.53666 3.46201 3.3256 3.24479C3.09834 3.01089 2.94921 2.73791 2.89122 2.44967C2.83552 2.16445 2.87121 1.86846 3.00999 1.59499ZM7.54344 5.9025C7.53695 6.04428 7.35581 6.15469 7.04453 6.23719L7.04435 6.23774H7.04201C6.54706 6.36832 5.723 6.42816 4.73275 6.42816C3.74268 6.42816 2.91807 6.36832 2.42331 6.23774H2.4206C2.4206 6.23774 2.96584 6.59343 4.73275 6.59343C6.49605 6.59343 7.04219 6.23912 7.04417 6.23788L6.65124 7.88062C6.63881 8.24806 5.96092 8.40628 4.73257 8.40628C3.50404 8.40628 2.82633 8.24806 2.81389 7.88062L2.42006 6.23705C2.10897 6.15455 1.92818 6.04428 1.92169 5.9025L1.86888 5.58205C2.56768 5.85953 3.64409 5.86132 4.76285 5.86132C5.89585 5.86132 6.90899 5.85801 7.59373 5.6025L7.54344 5.9025ZM7.88428 5.10117L7.88211 5.09771C7.40718 5.59435 6.19163 5.59684 4.76267 5.59684C3.05199 5.59684 1.64448 5.59504 1.45162 4.74396C1.28799 4.65633 1.14582 4.54724 1.03166 4.42171C0.110802 3.42125 1.18577 1.78707 2.41628 1.78735C2.4343 1.78735 2.45287 1.78776 2.47125 1.78845C2.35229 2.06441 2.26956 2.37159 2.36545 2.66731C1.98171 3.40301 2.35409 4.25506 3.26504 4.61766C3.4442 4.68882 3.63814 4.74589 3.83785 4.7955L3.83965 4.79965C3.83965 4.79965 2.57813 5.24833 1.59203 4.86694L1.59221 4.86708C2.2263 5.55787 3.3393 5.13986 3.92725 5.14829C4.56909 5.15727 5.03555 5.43295 6.49263 5.17413C7.45801 5.00264 7.76946 4.937 7.90843 5.0832C7.89347 5.09481 7.88428 5.10117 7.88428 5.10117ZM7.27903 4.34916C7.01551 4.31047 6.74425 4.30674 6.4719 4.3189C6.20064 4.33161 4.81169 4.67901 3.78431 4.27026C3.49845 4.15653 3.22538 4.02719 3.0127 3.85764C2.80402 3.69236 2.63723 3.4988 2.52082 3.28679C2.42223 3.09389 2.34833 2.88937 2.37122 2.68666C2.44241 2.88592 2.83336 3.29882 3.31334 3.61084C4.21167 4.19522 6.17576 3.93958 6.48434 3.96266C6.79093 3.98532 7.10239 4.03534 7.38483 4.13995C7.66402 4.24359 7.91798 4.40955 8.01009 4.61752C7.79722 4.46634 7.54308 4.38592 7.27903 4.34916Z" fill="black"/>
</svg>
