<svg width="15" height="15" viewBox="0 0 15 15" fill="none" xmlns="http://www.w3.org/2000/svg">
<path id="Vector" d="M14.9881 7.29275C14.9232 6.85 14.6037 6.463 14.036 6.1395C14.2192 5.66875 14.4713 4.65975 13.7187 3.84275C13.0235 3.0875 12.1672 2.7425 11.4123 2.438C11.1057 2.3145 10.8155 2.19775 10.5416 2.058C10.3433 1.957 10.0727 1.7925 10.0574 1.64675C10.0388 1.47 10.301 1.23 10.5025 1.026L10.9985 0.52475L10.2331 0.28725C10.1937 0.27575 9.24867 0 8.07279 0C6.14464 0 4.69811 0.73225 3.94876 2.07425C3.93535 2.07281 3.92186 2.07189 3.90833 2.0715C3.85969 2.0693 3.81097 2.06821 3.76224 2.06825H3.76159C2.57463 2.06825 1.38278 2.72075 0.650385 3.7715C-0.246356 5.05825 -0.213421 6.5555 0.734516 7.5855C0.934283 7.8041 1.17289 8.00025 1.44343 8.16825C1.56213 8.51925 1.77734 8.7975 2.06528 9.0215L2.23452 10.0343C2.25702 10.3105 2.45724 10.669 3.20594 10.9392L3.84898 13.6233C3.95137 15 6.85388 15 7.95345 15C9.05301 15 11.9558 15 12.0582 13.623L12.7003 10.9395C13.4493 10.6692 13.6492 10.3105 13.672 10.0343L13.8279 9.10225C13.9228 9.0365 14.0115 8.966 14.093 8.889C14.2274 8.7945 15.1121 8.1375 14.9881 7.29275ZM4.83605 2.199C5.08681 1.7055 5.53159 1.25425 6.11985 0.9435C6.49551 0.74025 6.9217 0.60275 7.35899 0.52025C7.5953 0.492437 7.83404 0.47848 8.07312 0.4785C9.14204 0.4785 10.0003 0.73275 10.0003 0.73275C9.75638 0.98 9.52356 1.224 9.42052 1.467C9.31388 1.71775 9.40551 1.99125 10.3153 2.6025C10.6 2.79375 10.915 2.97775 11.2277 3.173C11.8489 3.5655 12.49 3.997 12.9684 4.54875C13.6531 5.3385 13.3391 6.20925 13.3264 6.23925C13.1363 5.707 12.7378 5.30175 12.2562 4.939C11.7256 4.53825 11.1005 4.18375 10.4774 3.7895C10.1666 3.59075 9.85095 3.38625 9.55258 3.15C9.25845 2.91375 8.96138 2.65025 8.78008 2.30025C8.69236 2.1265 8.64214 1.9255 8.67704 1.729C8.70998 1.53936 8.81014 1.36028 8.9666 1.21125C9.03443 1.1485 9.10812 1.0925 9.18312 1.04025C8.83551 1.2525 8.58671 1.49825 8.45138 1.7675C8.21008 2.22075 8.20942 2.73275 8.35453 3.23225C8.5029 3.73325 8.79573 4.22325 9.21801 4.677C9.63736 5.13575 10.1911 5.54875 10.8726 5.966C9.97486 5.94975 9.08269 5.667 8.3803 5.21275C7.67692 4.75875 7.1604 4.1335 6.96051 3.4425C6.75833 2.75975 6.87442 1.97425 7.48453 1.3645C7.74302 1.10989 8.07888 0.907667 8.4628 0.7755C8.36986 0.7915 8.27595 0.806 8.1853 0.82625C7.60453 0.945 7.08964 1.1565 6.69279 1.4365C5.88898 1.9945 5.58703 2.838 5.74877 3.62925C5.90333 4.425 6.51768 5.166 7.46562 5.64275C7.89247 5.8645 8.38127 6.025 8.90595 6.14375C8.2391 6.20375 7.5416 6.23775 6.87279 6.06C6.26399 5.89825 5.78888 5.57675 5.40703 5.18375C4.99588 4.7606 4.72607 4.26673 4.62116 3.74525C4.5204 3.22925 4.58496 2.69375 4.83605 2.199ZM13.0378 9.992C13.0261 10.2485 12.6983 10.4482 12.1352 10.5975L12.1349 10.5985H12.1306C11.2352 10.8348 9.74432 10.943 7.95279 10.943C6.16159 10.943 4.66974 10.8348 3.77463 10.5985H3.76974C3.76974 10.5985 4.75616 11.242 7.95279 11.242C11.1429 11.242 12.131 10.601 12.1345 10.5987L11.4237 13.5708C11.4012 14.2355 10.1748 14.5217 7.95247 14.5217C5.72985 14.5217 4.50376 14.2355 4.48126 13.5708L3.76876 10.5972C3.20594 10.448 2.87887 10.2485 2.86713 9.992L2.77159 9.41225C4.03583 9.91425 5.98322 9.9175 8.00725 9.9175C10.057 9.9175 11.89 9.9115 13.1288 9.44925L13.0378 9.992ZM13.6544 8.54225L13.6505 8.536C12.7913 9.4345 10.5921 9.439 8.00693 9.439C4.91203 9.439 2.36561 9.43575 2.01669 7.896C1.72065 7.73746 1.46344 7.5401 1.25691 7.313C-0.409074 5.503 1.53571 2.5465 3.76191 2.547C3.79452 2.547 3.82811 2.54775 3.86137 2.549C3.64615 3.04825 3.49648 3.604 3.66996 4.139C2.97572 5.47 3.64941 7.0115 5.29746 7.6675C5.62159 7.79625 5.97246 7.8995 6.33377 7.98925L6.33703 7.99675C6.33703 7.99675 4.05474 8.8085 2.27072 8.1185L2.27104 8.11875C3.41822 9.3685 5.43181 8.61225 6.49551 8.6275C7.65671 8.64375 8.50062 9.1425 11.1367 8.67425C12.8832 8.364 13.4467 8.24525 13.6981 8.50975C13.6711 8.53075 13.6544 8.54225 13.6544 8.54225ZM12.5594 7.18175C12.0827 7.11175 11.5919 7.105 11.0992 7.127C10.6085 7.15 8.09562 7.7785 6.23692 7.039C5.71975 6.83325 5.22572 6.59925 4.84094 6.2925C4.46341 5.99349 4.16166 5.64329 3.95105 5.25975C3.77268 4.91075 3.63898 4.54075 3.68039 4.174C3.8092 4.5345 4.51648 5.2815 5.38485 5.846C7.01007 6.90325 10.5635 6.44075 11.1217 6.4825C11.6764 6.5235 12.2399 6.614 12.7509 6.80325C13.256 6.99075 13.7154 7.291 13.882 7.66725C13.4969 7.39375 13.0372 7.24825 12.5594 7.18175Z" fill="white"/>
</svg>
