<svg width="20" height="20" viewBox="0 0 20 20" fill="none" xmlns="http://www.w3.org/2000/svg">
<path d="M10 3.67188C8.06055 3.67188 6.23633 4.42773 4.86328 5.80078C3.49023 7.17188 2.73438 8.99609 2.73438 10.9375C2.73438 13 3.60352 14.9512 5.12891 16.3281H14.8711C15.6258 15.6476 16.229 14.8161 16.6415 13.8874C17.054 12.9587 17.2667 11.9537 17.2656 10.9375C17.2656 8.99805 16.5098 7.17383 15.1367 5.80078C13.7656 4.42773 11.9414 3.67188 10 3.67188ZM9.41406 4.53125C9.41406 4.44531 9.48438 4.375 9.57031 4.375H10.4297C10.5156 4.375 10.5859 4.44531 10.5859 4.53125V6.09375C10.5859 6.17969 10.5156 6.25 10.4297 6.25H9.57031C9.48438 6.25 9.41406 6.17969 9.41406 6.09375V4.53125ZM5.27344 11.3672C5.27344 11.4531 5.20312 11.5234 5.11719 11.5234H3.55469C3.46875 11.5234 3.39844 11.4531 3.39844 11.3672V10.5078C3.39844 10.4219 3.46875 10.3516 3.55469 10.3516H5.11719C5.20312 10.3516 5.27344 10.4219 5.27344 10.5078V11.3672ZM7.04492 7.375L6.4375 7.98242C6.40813 8.0115 6.36848 8.02781 6.32715 8.02781C6.28582 8.02781 6.24616 8.0115 6.2168 7.98242L5.11133 6.87695C5.08225 6.84759 5.06594 6.80793 5.06594 6.7666C5.06594 6.72527 5.08225 6.68562 5.11133 6.65625L5.71875 6.04883C5.7793 5.98828 5.87891 5.98828 5.93945 6.04883L7.04492 7.1543C7.10547 7.21484 7.10547 7.31445 7.04492 7.375ZM12.7305 9.00586L11.0801 10.6562C11.1777 11.0215 11.084 11.4258 10.7969 11.7129C10.6954 11.8146 10.5748 11.8953 10.4421 11.9503C10.3094 12.0054 10.1671 12.0337 10.0234 12.0337C9.87976 12.0337 9.73749 12.0054 9.60477 11.9503C9.47206 11.8953 9.3515 11.8146 9.25 11.7129C9.14831 11.6114 9.06763 11.4908 9.01258 11.3581C8.95754 11.2254 8.9292 11.0831 8.9292 10.9395C8.9292 10.7958 8.95754 10.6535 9.01258 10.5208C9.06763 10.3881 9.14831 10.2675 9.25 10.166C9.38562 10.03 9.55474 9.93217 9.74027 9.88244C9.9258 9.83272 10.1212 9.83284 10.3066 9.88281L11.957 8.23242C12.0176 8.17188 12.1172 8.17188 12.1777 8.23242L12.7305 8.78516C12.791 8.8457 12.791 8.94531 12.7305 9.00586ZM13.5703 7.98242L12.9629 7.375C12.9338 7.34563 12.9175 7.30598 12.9175 7.26465C12.9175 7.22332 12.9338 7.18366 12.9629 7.1543L14.0684 6.04883C14.1289 5.98828 14.2285 5.98828 14.2891 6.04883L14.8965 6.65625C14.957 6.7168 14.957 6.81641 14.8965 6.87695L13.791 7.98242C13.7616 8.0115 13.722 8.02781 13.6807 8.02781C13.6393 8.02781 13.5997 8.0115 13.5703 7.98242ZM16.5234 10.5078V11.3672C16.5234 11.4531 16.4531 11.5234 16.3672 11.5234H14.8047C14.7188 11.5234 14.6484 11.4531 14.6484 11.3672V10.5078C14.6484 10.4219 14.7188 10.3516 14.8047 10.3516H16.3672C16.4531 10.3516 16.5234 10.4219 16.5234 10.5078Z" fill="white" fill-opacity="0.15"/>
<path d="M12.1782 8.23242C12.1488 8.20334 12.1092 8.18703 12.0679 8.18703C12.0265 8.18703 11.9869 8.20334 11.9575 8.23242L10.3071 9.88281C9.94189 9.78516 9.53759 9.87891 9.25048 10.166C9.14879 10.2675 9.06811 10.3881 9.01307 10.5208C8.95802 10.6535 8.92969 10.7958 8.92969 10.9395C8.92969 11.0831 8.95802 11.2254 9.01307 11.3581C9.06811 11.4908 9.14879 11.6114 9.25048 11.7129C9.35198 11.8146 9.47254 11.8953 9.60526 11.9503C9.73797 12.0054 9.88024 12.0337 10.0239 12.0337C10.1676 12.0337 10.3099 12.0054 10.4426 11.9503C10.5753 11.8953 10.6958 11.8146 10.7973 11.7129C10.9334 11.5773 11.0312 11.4082 11.0809 11.2226C11.1306 11.0371 11.1305 10.8417 11.0806 10.6562L12.7309 9.00586C12.7915 8.94531 12.7915 8.8457 12.7309 8.78516L12.1782 8.23242ZM9.57079 6.25H10.4302C10.5161 6.25 10.5864 6.17969 10.5864 6.09375V4.53125C10.5864 4.44531 10.5161 4.375 10.4302 4.375H9.57079C9.48486 4.375 9.41454 4.44531 9.41454 4.53125V6.09375C9.41454 6.17969 9.48486 6.25 9.57079 6.25Z" fill="#282B30"/>
<path d="M18.0625 7.53125C17.6233 6.49162 16.9865 5.54708 16.1875 4.75C15.3904 3.95099 14.4459 3.31423 13.4062 2.875C12.3262 2.41797 11.1816 2.1875 10 2.1875C8.81836 2.1875 7.67383 2.41797 6.59375 2.875C5.55412 3.31423 4.60958 3.95099 3.8125 4.75C3.01349 5.54708 2.37673 6.49162 1.9375 7.53125C1.48047 8.61133 1.25 9.75586 1.25 10.9375C1.25 13.5293 2.38867 15.9707 4.37305 17.6387L4.40625 17.666C4.51953 17.7598 4.66211 17.8125 4.80859 17.8125H15.1934C15.3398 17.8125 15.4824 17.7598 15.5957 17.666L15.6289 17.6387C17.6113 15.9707 18.75 13.5293 18.75 10.9375C18.75 9.75586 18.5176 8.61133 18.0625 7.53125ZM14.8711 16.3281H5.12891C4.37421 15.6476 3.77103 14.8161 3.35851 13.8874C2.94599 12.9587 2.73334 11.9537 2.73438 10.9375C2.73438 8.99609 3.49023 7.17188 4.86328 5.80078C6.23633 4.42773 8.06055 3.67188 10 3.67188C11.9414 3.67188 13.7656 4.42773 15.1367 5.80078C16.5098 7.17383 17.2656 8.99805 17.2656 10.9375C17.2656 13 16.3965 14.9512 14.8711 16.3281Z" fill="#282B30"/>
<path d="M14.8965 6.65623L14.2891 6.04881C14.2597 6.01973 14.22 6.00342 14.1787 6.00342C14.1374 6.00342 14.0977 6.01973 14.0684 6.04881L12.9629 7.15428C12.9338 7.18364 12.9175 7.2233 12.9175 7.26463C12.9175 7.30596 12.9338 7.34561 12.9629 7.37498L13.5703 7.9824C13.6309 8.04295 13.7305 8.04295 13.791 7.9824L14.8965 6.87693C14.957 6.81639 14.957 6.71678 14.8965 6.65623ZM14.6484 10.5078V11.3672C14.6484 11.4531 14.7188 11.5234 14.8047 11.5234H16.3672C16.4531 11.5234 16.5234 11.4531 16.5234 11.3672V10.5078C16.5234 10.4219 16.4531 10.3515 16.3672 10.3515H14.8047C14.7188 10.3515 14.6484 10.4219 14.6484 10.5078ZM5.93945 6.04881C5.91009 6.01973 5.87043 6.00342 5.8291 6.00342C5.78777 6.00342 5.74812 6.01973 5.71875 6.04881L5.11133 6.65623C5.08225 6.6856 5.06594 6.72525 5.06594 6.76658C5.06594 6.80791 5.08225 6.84757 5.11133 6.87693L6.2168 7.9824C6.27734 8.04295 6.37695 8.04295 6.4375 7.9824L7.04492 7.37498C7.10547 7.31443 7.10547 7.21482 7.04492 7.15428L5.93945 6.04881ZM5.11719 10.3515H3.55469C3.46875 10.3515 3.39844 10.4219 3.39844 10.5078V11.3672C3.39844 11.4531 3.46875 11.5234 3.55469 11.5234H5.11719C5.20312 11.5234 5.27344 11.4531 5.27344 11.3672V10.5078C5.27344 10.4219 5.20312 10.3515 5.11719 10.3515Z" fill="#282B30"/>
</svg>
