<svg width="10" height="9" viewBox="0 0 10 9" fill="none" xmlns="http://www.w3.org/2000/svg">
<path d="M8.54783 0.613837C8.53068 0.602092 8.51385 0.593111 8.49702 0.583784C8.29091 0.465913 8.0614 0.404718 7.82855 0.405543H7.826C7.57128 0.40597 7.32109 0.478807 7.10023 0.616834C6.87936 0.754861 6.6955 0.953284 6.56687 1.19243L6.56306 1.20003C6.45894 1.39527 6.39582 1.61314 6.37823 1.83804L6.37792 1.84391H3.32931L2.98825 0.949594C2.91167 0.747159 2.77127 0.581046 2.59224 0.48108C2.4132 0.381113 2.20727 0.353842 2.01142 0.404161L2.01714 0.40278L0.986328 0.657706L1.05016 0.963757L2.08097 0.70883C2.20921 0.677038 2.34365 0.69546 2.46063 0.760854C2.57761 0.826248 2.66965 0.934424 2.72054 1.06635L2.72181 1.07049L3.01778 1.84426H1.08191L4.31884 5.36521V7.94315C3.56716 8.00118 3.04858 8.272 3.04858 8.6081V8.67063H6.16832V8.6081C6.16832 8.27235 5.64879 8.00015 4.89807 7.94315V5.36521L6.89332 3.19488C6.95588 3.25257 7.02575 3.30611 7.09942 3.35309L7.10641 3.35724C7.44012 3.56365 7.83537 3.61801 8.20581 3.50844C8.57625 3.39887 8.89177 3.13427 9.08342 2.77245C9.27508 2.41064 9.3273 1.98102 9.22866 1.57745C9.13003 1.17389 8.88857 0.829195 8.55703 0.618673L8.55005 0.614528L8.54783 0.613837ZM8.86507 1.82526L8.07307 1.82767L8.46716 1.08155C8.68239 1.26214 8.82481 1.52653 8.86444 1.81904L8.86507 1.82526ZM8.21788 0.924032L7.82378 1.67223L7.42556 0.928523C7.55285 0.871433 7.68927 0.842318 7.82696 0.842856C7.96764 0.842856 8.10197 0.872563 8.22486 0.926796L8.21788 0.924032ZM6.91238 1.41765C6.9816 1.28673 7.06989 1.17654 7.17436 1.08777L7.17659 1.08604L7.57481 1.82975L6.78472 1.83217C6.8025 1.67707 6.84759 1.53682 6.91492 1.41212L6.91238 1.4173V1.41765ZM2.05271 2.28157H3.18355L3.33915 2.69159H2.42997L2.05271 2.28157ZM6.78249 2.69194H6.52431V2.69401H3.64941L3.49381 2.28399H7.15658L6.78249 2.69194ZM7.43191 3.04635L7.826 2.29815L8.22423 3.04186C8.10578 3.09644 7.96796 3.12822 7.82346 3.12822C7.68247 3.12822 7.54782 3.09816 7.42492 3.04324L7.43191 3.046V3.04635ZM8.73741 2.55515C8.67052 2.6824 8.58167 2.79441 8.47574 2.88503L8.47352 2.88676L8.07529 2.14305L8.86539 2.14098C8.8471 2.2886 8.80278 2.43099 8.73487 2.56033L8.73773 2.5548L8.73741 2.55515Z" fill="black"/>
</svg>
