<svg width="15" height="15" viewBox="0 0 15 15" fill="none" xmlns="http://www.w3.org/2000/svg">
<path id="Vector" d="M13.68 0.423924C13.649 0.402676 13.6185 0.386428 13.5881 0.369555C13.2152 0.156306 12.8 0.0455943 12.3787 0.0470861H12.3741C11.9133 0.0478577 11.4606 0.179633 11.0611 0.429347C10.6615 0.67906 10.3288 1.03804 10.0961 1.4707L10.0892 1.48445C9.90086 1.83766 9.78667 2.23183 9.75486 2.63871L9.75428 2.64933H4.23884L3.6218 1.03136C3.48327 0.665127 3.22925 0.3646 2.90535 0.183744C2.58146 0.0028884 2.2089 -0.0464504 1.85457 0.0445863L1.86491 0.0420865L0 0.503291L0.115479 1.05699L1.98039 0.595782C2.21239 0.538267 2.45561 0.571595 2.66726 0.689903C2.8789 0.808211 3.04541 1.00392 3.13748 1.24259L3.13978 1.25009L3.67524 2.64996H0.172932L6.02906 9.01996V13.6839C4.66916 13.7889 3.73096 14.2788 3.73096 14.8869V15H9.3751V14.8869C9.3751 14.2794 8.43517 13.787 7.077 13.6839V9.01996L10.6867 5.09347C10.7999 5.19783 10.9263 5.2947 11.0596 5.37969L11.0722 5.38719C11.676 5.76063 12.3911 5.85898 13.0612 5.66075C13.7314 5.46251 14.3023 4.98381 14.649 4.32922C14.9957 3.67463 15.0902 2.89738 14.9118 2.16727C14.7333 1.43716 14.2965 0.813543 13.6967 0.432673L13.684 0.425174L13.68 0.423924ZM14.254 2.61559L12.8211 2.61996L13.5341 1.27009C13.9235 1.59682 14.1811 2.07513 14.2528 2.60434L14.254 2.61559ZM13.0831 0.985119L12.3701 2.33874L11.6496 0.993244C11.8799 0.889959 12.1267 0.837285 12.3758 0.838259C12.6304 0.838259 12.8734 0.892003 13.0957 0.990119L13.0831 0.985119ZM10.7212 1.87816C10.8465 1.64131 11.0062 1.44195 11.1952 1.28134L11.1992 1.27822L11.9197 2.62371L10.4902 2.62808C10.5224 2.34749 10.604 2.09376 10.7258 1.86816L10.7212 1.87753V1.87816ZM1.92925 3.44113H3.97514L4.25665 4.18293H2.61179L1.92925 3.44113ZM10.4862 4.18356H10.0191V4.18731H4.81797L4.53645 3.4455H11.163L10.4862 4.18356ZM11.6611 4.82474L12.3741 3.47113L13.0946 4.81662C12.8803 4.91536 12.6309 4.97285 12.3695 4.97285C12.1144 4.97285 11.8708 4.91848 11.6485 4.81912L11.6611 4.82412V4.82474ZM14.023 3.93608C13.902 4.16631 13.7412 4.36895 13.5496 4.5329L13.5456 4.53602L12.8251 3.19053L14.2545 3.18678C14.2214 3.45385 14.1413 3.71145 14.0184 3.94546L14.0236 3.93546L14.023 3.93608Z" fill="white"/>
</svg>
