<svg width="9" height="9" viewBox="0 0 9 9" fill="none" xmlns="http://www.w3.org/2000/svg">
<path d="M8.57816 2.68525C8.36224 2.49353 8.14093 2.47984 7.91422 2.64417C7.48239 2.87696 7.12613 3.28093 6.84545 3.85607C6.54317 3.1166 6.07355 2.58939 5.43661 2.27443V1.57605C5.43661 1.34325 5.35564 1.11046 5.1937 0.877665C5.02097 0.727033 4.82125 0.672258 4.59454 0.713339C3.98998 0.877665 3.59054 1.32956 3.39621 2.06903C2.61892 2.27443 1.95769 2.68525 1.4125 3.30147C0.867318 3.91769 0.594727 4.64346 0.594727 5.47878C0.594727 6.46474 0.972577 7.29664 1.72828 7.97448C2.48398 8.65232 3.31525 8.99124 4.22209 8.99124C4.82665 8.99124 5.35834 8.82692 5.81715 8.49827C6.27597 8.16962 6.61874 7.71772 6.84545 7.14258C7.12613 7.71772 7.48239 8.12853 7.91422 8.37502C8.06536 8.4298 8.15713 8.45719 8.18951 8.45719C8.32986 8.45719 8.45941 8.4161 8.57816 8.33394C8.78328 8.15592 8.88584 7.90943 8.88584 7.59448V3.38363C8.88584 3.04129 8.78328 2.80849 8.57816 2.68525ZM4.22209 1.98686C4.27607 1.82254 4.4488 1.6856 4.74028 1.57605V1.98686H4.22209ZM1.29105 5.47878C1.29105 5.06797 1.4071 4.6777 1.63921 4.30796C1.87132 3.93823 2.1817 3.63012 2.57034 3.38363C2.86183 3.83553 3.00757 4.53391 3.00757 5.47878C3.00757 6.42366 2.86183 7.12889 2.57034 7.59448C2.1817 7.34799 1.87132 7.03645 1.63921 6.65987C1.4071 6.28329 1.29105 5.8896 1.29105 5.47878ZM4.22209 8.10799C3.96299 8.10799 3.62832 8.05322 3.21809 7.94367C3.54196 7.24528 3.70389 6.42366 3.70389 5.47878C3.70389 4.5476 3.54196 3.73282 3.21809 3.03444C3.47718 2.91119 3.81185 2.84957 4.22209 2.84957C4.89142 2.84957 5.43391 3.08921 5.84954 3.5685C6.26518 4.04778 6.47299 4.68454 6.47299 5.47878C6.47299 6.27302 6.26518 6.90979 5.84954 7.38907C5.43391 7.86835 4.89142 8.10799 4.22209 8.10799ZM8.18951 7.71772C7.49859 7.14258 7.15312 6.42366 7.15312 5.56095C7.15312 5.10905 7.25838 4.67427 7.4689 4.25661C7.67942 3.83895 7.91962 3.56165 8.18951 3.42471V7.71772ZM2.6675 5.04743C2.6675 5.17067 2.63242 5.27338 2.56225 5.35554C2.49207 5.4377 2.4138 5.47878 2.32744 5.47878C2.23028 5.47878 2.14661 5.4377 2.07644 5.35554C2.00627 5.27338 1.97118 5.17067 1.97118 5.04743C1.97118 4.92418 2.00627 4.82148 2.07644 4.73932C2.14661 4.65716 2.23028 4.61607 2.32744 4.61607C2.4138 4.61607 2.49207 4.65716 2.56225 4.73932C2.63242 4.82148 2.6675 4.92418 2.6675 5.04743Z" fill="black"/>
</svg>
