<svg width="9" height="9" viewBox="0 0 9 9" fill="none" xmlns="http://www.w3.org/2000/svg">
<g clip-path="url(#clip0_236_3780)">
<path d="M4.43582 6.84591C4.43647 7.02015 4.39566 7.44507 4.45072 7.78189C4.48052 7.96391 4.8141 8.25086 4.8724 8.54105C4.90608 8.70817 4.86592 8.81828 4.86657 8.91739C5.18397 8.90638 5.50848 8.95042 5.82717 8.92516C5.94441 8.91609 6.05583 8.87917 6.16724 8.84354C6.22165 8.82606 6.32464 8.81569 6.37193 8.78654C6.48139 8.71788 6.47621 8.46462 6.48139 8.34673C6.48593 8.23791 6.51832 8.11548 6.46455 8.02933C6.39654 7.91986 6.20481 7.8363 6.09663 7.77801C5.9781 7.71323 5.84725 7.66724 5.73325 7.59664C5.56743 7.4943 5.35821 7.29609 5.27271 7.12249C5.21311 7.00201 5.3174 6.84331 5.23902 6.75069C5.06348 6.74939 4.8873 6.73579 4.71176 6.74162C4.65865 6.74356 4.61719 6.73385 4.57509 6.77401" fill="black"/>
<path d="M2.96214 8.24762C2.89866 8.23337 2.81445 8.27223 2.81445 8.32923C2.81445 8.37652 2.87016 8.40696 2.92004 8.42639C3.11824 8.50348 3.50106 8.53651 3.84372 8.54105C3.89035 8.54169 3.9791 8.52679 4.00565 8.49376C4.03415 8.45813 4.01083 8.40567 3.97003 8.3804C3.92922 8.35579 3.8774 8.35061 3.82752 8.34737C3.41362 8.3234 3.28342 8.31822 2.96214 8.24762Z" fill="black"/>
<path d="M7.95145 2.05718L7.52783 2.13038L7.44362 1.64846L8.36018 1.48911L8.3116 1.18921L7.3918 1.34855L7.21238 0.317993L6.91247 0.367222L7.0919 1.40102L6.59573 1.48717L6.49209 0.891246L6.19218 0.940474L6.29582 1.53899L5.68176 1.64522L5.73099 1.94512L6.34829 1.8376L6.43185 2.31952L5.32227 2.51255L5.37149 2.8131L6.48432 2.61942L6.64884 3.56837L6.9494 3.51914L6.78422 2.56696L7.27974 2.48081L7.36913 2.99512L7.66969 2.94589L7.57965 2.42899L8.00068 2.35579L7.95145 2.05718ZM6.73111 2.269L6.64755 1.78707L7.14372 1.70028L7.22728 2.1822L6.73111 2.269Z" fill="black"/>
<path d="M7.4792 4.63775C7.4792 6.13274 6.04963 7.34532 4.28647 7.34532C2.52332 7.34532 1.09375 6.13339 1.09375 4.63775C1.09375 3.14211 7.4792 3.14211 7.4792 4.63775Z" fill="black"/>
<path d="M4.28647 6.04399C6.04977 6.04399 7.4792 5.41149 7.4792 4.63126C7.4792 3.85104 6.04977 3.21854 4.28647 3.21854C2.52318 3.21854 1.09375 3.85104 1.09375 4.63126C1.09375 5.41149 2.52318 6.04399 4.28647 6.04399Z" fill="black"/>
<path d="M7.47859 4.63452C7.47535 5.18899 6.75117 5.66767 5.69859 5.89827C5.4084 6.17356 4.97571 6.53111 4.50998 6.73709C4.00474 6.96057 3.17758 7.18145 3.34016 7.2242C3.63877 7.30257 3.95616 7.34533 4.28586 7.34533C6.04902 7.34533 7.47859 6.1334 7.47859 4.63776C7.47924 4.63646 7.47859 4.63582 7.47859 4.63452Z" fill="black"/>
<path d="M1.37193 4.20637C1.4244 3.97447 1.51832 3.75295 1.64009 3.54891C1.73661 3.38632 1.769 3.10715 1.98016 3.05468C2.01319 3.04626 2.04817 3.04367 2.07667 3.02488C2.17189 2.9627 2.12202 2.78004 2.22501 2.73081C2.26711 2.71073 2.31763 2.72433 2.36233 2.71137C2.47633 2.67769 2.49188 2.49827 2.60458 2.46135C2.66223 2.44256 2.72571 2.46912 2.78595 2.45876C2.9155 2.43673 2.9589 2.26832 3.06902 2.19707C3.13249 2.15626 3.21152 2.15173 3.28666 2.14849C3.49523 2.13942 3.7038 2.1297 3.91238 2.12063C3.96873 1.99886 4.13844 1.99627 4.27187 2.01246L4.57113 2.04938C4.72141 2.06752 4.87168 2.0863 5.02261 2.08889C5.08738 2.09019 5.1554 2.08825 5.21434 2.11545C5.27393 2.14201 5.32122 2.20808 5.30438 2.27091C5.44623 2.23982 5.61465 2.21585 5.71893 2.3169C5.74225 2.33957 5.76039 2.36742 5.78824 2.38362C5.8433 2.416 5.91261 2.39333 5.97673 2.39722C6.09138 2.4037 6.19049 2.51381 6.18531 2.62846C6.18595 2.61551 6.32133 2.70684 6.33234 2.71915C6.37898 2.77356 6.37898 2.84092 6.41461 2.89728C6.49946 3.03136 6.65103 3.14342 6.74884 3.27232C6.95871 3.54955 7.12324 3.8663 7.20032 4.20701C7.32857 4.77379 7.08049 4.93572 6.59986 5.23498C5.9288 5.65342 4.28612 5.73504 4.28612 5.73504C3.01655 5.73504 2.36557 5.47724 2.01902 5.26348C1.5371 4.96617 1.24368 4.77314 1.37193 4.20637Z" fill="black"/>
<path d="M4.17114 4.41494C4.04872 4.44539 3.9237 4.51858 3.79286 4.52117C3.71837 4.52247 3.65165 4.48749 3.57846 4.48943C3.45409 4.49397 3.39774 4.55356 3.27596 4.53348C3.23127 4.527 3.18981 4.49591 3.14706 4.49138C3.06544 4.48296 3.00715 4.51793 2.93201 4.52959C2.76165 4.5555 2.51292 4.37802 2.34321 4.27179C2.27131 4.21673 2.02517 4.08524 2.11326 3.99326C2.2752 4.08006 2.46239 4.11309 2.61332 4.20313C2.7053 4.09301 2.74287 4.20961 2.83096 4.23746C2.86205 4.24718 2.921 4.22515 2.96375 4.23228C3.0065 4.2394 3.03759 4.27892 3.08099 4.28734C3.10042 4.29122 3.13281 4.26467 3.15548 4.26596C3.22284 4.2692 3.31547 4.26272 3.38025 4.27503C3.5357 4.30483 3.64906 4.34045 3.81683 4.356C3.8952 4.36377 3.96516 4.32232 4.04354 4.33268C4.09406 4.33916 4.13422 4.37608 4.18928 4.39098L4.17114 4.41494ZM4.82666 4.64424C5.03199 4.60927 5.09158 4.65849 5.28979 4.68505C5.39732 4.6993 5.54695 4.64748 5.6467 4.61574C5.94077 4.52312 6.23291 4.53089 6.40974 4.26596C6.67078 4.37478 6.35209 4.49008 6.27695 4.55939C6.24845 4.5853 6.19987 4.68505 6.17591 4.69801C6.1202 4.7278 6.0768 4.69153 6.02109 4.71226C5.94337 4.74141 5.85398 4.79841 5.78208 4.84699C5.63957 4.9435 5.60071 5.03742 5.4025 4.97848C5.29951 4.94804 5.23085 4.86253 5.12786 4.84051C4.9873 4.81071 4.69128 4.94026 4.82666 4.64424ZM4.22685 3.73999C4.30263 3.90646 5.30599 3.63765 5.31765 3.82614C5.31894 3.81772 5.31894 3.81708 5.31765 3.82485C5.31635 3.84363 5.31376 3.86177 5.30599 3.87861C5.2438 3.85529 5.11685 3.91489 5.04559 3.92007C5.04689 3.92007 4.94584 3.94857 4.93936 3.94986C4.88042 3.96347 4.83249 3.92331 4.77289 4.00168C4.6414 3.97059 4.51768 4.02176 4.38813 3.98614C4.3117 3.96541 4.11479 3.82938 4.22685 3.73999ZM2.89185 4.8295C3.07192 4.85606 3.28697 4.94091 3.44243 4.97459C3.51627 4.99079 3.54866 5.04973 3.66849 5.05556C3.70088 5.05686 3.91593 5.00115 3.92888 5.00698C4.03447 5.05427 3.98459 5.15531 4.11414 5.16892C4.17049 5.17475 4.20288 5.11062 4.26377 5.09831C4.43089 5.06528 4.52546 5.11969 4.67185 5.15531C4.68221 5.18835 4.68091 5.26478 4.6712 5.29652C4.62262 5.3315 4.58894 5.33798 4.541 5.39498C4.53517 5.37166 4.48465 5.31271 4.47688 5.28292C4.37583 5.32243 4.27931 5.26802 4.17956 5.28875C4.12321 5.30041 4.00273 5.38785 3.94378 5.41247C3.9399 5.37036 3.90298 5.29846 3.8965 5.25183C3.83885 5.32567 3.77861 5.29328 3.73586 5.21296C3.66396 5.27191 3.5098 5.30883 3.43012 5.25312C3.3783 5.21685 3.36664 5.12811 3.31353 5.08536C3.28049 5.0588 3.19953 5.14106 3.13216 5.02188C2.99873 5.06722 2.90351 4.92472 2.87501 4.81201L2.89185 4.8295ZM1.66114 4.21414C1.70583 4.29382 1.70907 4.29252 1.75959 4.36571C1.7732 4.35665 1.77449 4.34175 1.7868 4.33333C1.83538 4.37737 1.90469 4.43114 1.93384 4.50563C1.99537 4.46806 2.01157 4.50368 2.06015 4.45186C2.08087 4.55809 2.10873 4.63323 2.04719 4.73039C2.01092 4.63582 1.92282 4.59372 1.84315 4.58854C1.83085 4.63194 1.7868 4.59048 1.77708 4.62805C1.77061 4.54125 1.77449 4.52959 1.75312 4.44085C1.74923 4.44863 1.74534 4.47518 1.73822 4.48749C1.74016 4.48749 1.68575 4.49267 1.69093 4.48814C1.63717 4.41041 1.63652 4.30159 1.66114 4.21414ZM6.06061 4.02241C6.13834 3.95245 6.19728 3.73999 6.28537 3.71408C6.37476 3.68753 6.3644 3.82355 6.45379 3.79635C6.61508 3.74712 6.4946 3.49903 6.63386 3.48737C6.63451 3.48673 6.65459 3.43426 6.652 3.43556C6.66949 3.46665 6.69151 3.50357 6.69734 3.54308C6.71936 3.57288 6.74398 3.66421 6.74333 3.72574C6.7239 3.7251 6.70317 3.71409 6.68438 3.71149C6.65394 3.78404 6.63969 3.82161 6.61508 3.89157C6.44731 3.77951 6.49071 4.07553 6.35792 3.9382C6.34173 3.98873 6.2912 4.02954 6.27501 4.08265C6.25104 4.06322 6.20505 4.06063 6.18044 4.03213C6.16813 4.05545 6.12538 4.08848 6.11631 4.11892C6.10789 4.0969 6.07097 4.05868 6.06061 4.02241ZM2.2603 3.2801C2.27584 3.41029 2.36782 3.53725 2.52652 3.43167C2.54401 3.44721 2.53365 3.47377 2.54336 3.49126C2.65283 3.4958 2.6755 3.48673 2.7202 3.58259C2.73898 3.57612 2.72862 3.54308 2.75129 3.54697C2.74999 3.59296 2.77331 3.62534 2.78108 3.6681C2.82124 3.66939 2.83096 3.66227 2.86464 3.65449C2.8925 3.68105 2.88213 3.71149 2.90675 3.74129C2.92553 3.75295 2.9333 3.71668 2.94626 3.7251C2.95403 3.76007 2.9495 3.79441 2.9482 3.83003C2.88991 3.82226 2.79987 3.81967 2.75777 3.81125C2.73574 3.77886 2.6755 3.74906 2.64959 3.71991C2.62951 3.7387 2.58547 3.75813 2.56668 3.77627C2.55697 3.74194 2.52134 3.70566 2.51357 3.67133C2.49737 3.68235 2.47146 3.70307 2.45009 3.70696C2.39892 3.64542 2.34062 3.60591 2.29463 3.5528C2.28167 3.5949 2.25317 3.58842 2.23828 3.61951C2.16962 3.52818 2.19488 3.3928 2.19488 3.27945" fill="black"/>
</g>
<defs>
<clipPath id="clip0_236_3780">
<rect width="8.29111" height="8.29111" fill="white" transform="translate(0.336914 0.700134)"/>
</clipPath>
</defs>
</svg>
