<svg width="15" height="15" viewBox="0 0 15 15" fill="none" xmlns="http://www.w3.org/2000/svg">
<g id="noto-v1:ice-cream" clip-path="url(#clip0_99_579)">
<path id="Vector" d="M7.41586 11.1188C7.41703 11.434 7.3432 12.2028 7.44281 12.8121C7.49672 13.1414 8.10023 13.6606 8.2057 14.1856C8.26664 14.4879 8.19398 14.6871 8.19515 14.8664C8.76937 14.8465 9.35648 14.9262 9.93304 14.8805C10.1452 14.8641 10.3467 14.7973 10.5483 14.7328C10.6467 14.7012 10.833 14.6824 10.9186 14.6297C11.1166 14.5055 11.1073 14.0473 11.1166 13.834C11.1248 13.6371 11.1834 13.4157 11.0862 13.2598C10.9631 13.0617 10.6162 12.9106 10.4205 12.8051C10.2061 12.6879 9.96937 12.6047 9.76312 12.477C9.46312 12.2918 9.08461 11.9332 8.92992 11.6192C8.82211 11.4012 9.01078 11.1141 8.86898 10.9465C8.5514 10.9442 8.23265 10.9196 7.91508 10.9301C7.81898 10.9336 7.74398 10.916 7.66781 10.9887" fill="white"/>
<path id="Vector_2" d="M4.75156 13.6546C4.63672 13.6289 4.48438 13.6992 4.48438 13.8023C4.48438 13.8878 4.58516 13.9429 4.67539 13.9781C5.03398 14.1175 5.72656 14.1773 6.34649 14.1855C6.43086 14.1867 6.59141 14.1597 6.63945 14.1C6.69102 14.0355 6.64883 13.9406 6.575 13.8949C6.50117 13.8503 6.40742 13.841 6.31719 13.8351C5.56836 13.7918 5.33281 13.7824 4.75156 13.6546Z" fill="white"/>
<path id="Vector_3" d="M13.7762 2.45508L13.0098 2.5875L12.8574 1.71563L14.5156 1.42734L14.4277 0.884766L12.7637 1.17305L12.4391 -0.691406L11.8965 -0.602344L12.2211 1.26797L11.3234 1.42383L11.1359 0.345703L10.5934 0.434766L10.7809 1.51758L9.66992 1.70977L9.75898 2.25234L10.8758 2.05781L11.027 2.92969L9.01953 3.27891L9.10859 3.82266L11.1219 3.47227L11.4195 5.18906L11.9633 5.1L11.6645 3.37734L12.5609 3.22149L12.7227 4.15195L13.2664 4.06289L13.1035 3.12774L13.8652 2.99531L13.7762 2.45508ZM11.5684 2.83828L11.4172 1.96641L12.3148 1.80938L12.466 2.68125L11.5684 2.83828Z" fill="white"/>
<path id="Vector_4" d="M12.9215 7.12388C12.9215 9.82856 10.3352 12.0223 7.14531 12.0223C3.95547 12.0223 1.36914 9.82974 1.36914 7.12388C1.36914 4.41802 12.9215 4.41802 12.9215 7.12388Z" fill="white"/>
<path id="Vector_5" d="M7.14531 9.66799C10.3354 9.66799 12.9215 8.5237 12.9215 7.11213C12.9215 5.70057 10.3354 4.55627 7.14531 4.55627C3.95522 4.55627 1.36914 5.70057 1.36914 7.11213C1.36914 8.5237 3.95522 9.66799 7.14531 9.66799Z" fill="white"/>
<path id="Vector_6" d="M12.9213 7.11792C12.9154 8.12104 11.6053 8.98706 9.70096 9.40425C9.17596 9.90229 8.39314 10.5492 7.55056 10.9218C6.6365 11.3261 5.14002 11.7257 5.43416 11.8031C5.97439 11.9449 6.54861 12.0222 7.1451 12.0222C10.3349 12.0222 12.9213 9.82964 12.9213 7.12378C12.9224 7.12144 12.9213 7.12026 12.9213 7.11792Z" fill="white"/>
<path id="Vector_7" d="M1.87287 6.34336C1.9678 5.92383 2.13772 5.52305 2.35803 5.15391C2.53264 4.85977 2.59123 4.35469 2.97326 4.25977C3.03303 4.24453 3.09631 4.23985 3.14787 4.20586C3.32014 4.09336 3.22991 3.76289 3.41623 3.67383C3.4924 3.6375 3.58381 3.66211 3.66467 3.63867C3.87092 3.57774 3.89905 3.25313 4.10295 3.18633C4.20725 3.15235 4.32209 3.20039 4.43108 3.18164C4.66545 3.1418 4.74397 2.83711 4.94319 2.70821C5.05803 2.63438 5.201 2.62617 5.33694 2.62031C5.71428 2.60391 6.09162 2.58633 6.46897 2.56992C6.57092 2.34961 6.87795 2.34492 7.11936 2.37422L7.66076 2.44102C7.93264 2.47383 8.20451 2.50781 8.47756 2.5125C8.59475 2.51485 8.71779 2.51133 8.82443 2.56055C8.93225 2.6086 9.01779 2.72813 8.98732 2.8418C9.24397 2.78555 9.54865 2.74219 9.73733 2.925C9.77951 2.96602 9.81233 3.01641 9.86272 3.04571C9.96233 3.1043 10.0877 3.06328 10.2037 3.07031C10.4112 3.08203 10.5905 3.28125 10.5811 3.48867C10.5822 3.46524 10.8272 3.63047 10.8471 3.65274C10.9315 3.75117 10.9315 3.87305 10.9959 3.975C11.1494 4.21758 11.4237 4.42031 11.6006 4.65352C11.9803 5.15508 12.2779 5.72813 12.4174 6.34453C12.6494 7.36992 12.2006 7.66289 11.3311 8.2043C10.117 8.96133 7.14514 9.10899 7.14514 9.10899C4.84826 9.10899 3.67053 8.64258 3.04358 8.25586C2.1717 7.71797 1.64084 7.36875 1.87287 6.34336Z" fill="white"/>
<path id="Vector_8" d="M6.93843 6.72068C6.71695 6.77576 6.49078 6.90818 6.25406 6.91287C6.11929 6.91521 5.99859 6.85193 5.86617 6.85544C5.64117 6.86365 5.53921 6.97146 5.3189 6.93513C5.23804 6.92341 5.16304 6.86716 5.0857 6.85896C4.93804 6.84373 4.83257 6.90701 4.69663 6.9281C4.38843 6.97498 3.93843 6.65388 3.6314 6.46169C3.50132 6.36208 3.05601 6.12419 3.21538 5.95779C3.50835 6.11482 3.84703 6.17459 4.12007 6.33748C4.28648 6.13826 4.35445 6.34919 4.51382 6.39959C4.57007 6.41716 4.67671 6.37732 4.75406 6.39021C4.8314 6.4031 4.88765 6.47459 4.96617 6.48982C5.00132 6.49685 5.05992 6.4488 5.10093 6.45115C5.22281 6.45701 5.39038 6.44529 5.50757 6.46755C5.78882 6.52146 5.9939 6.58591 6.29742 6.61404C6.43921 6.6281 6.56578 6.5531 6.70757 6.57185C6.79898 6.58357 6.87163 6.65037 6.97124 6.67732L6.93843 6.72068ZM8.12437 7.13552C8.49585 7.07224 8.60367 7.1613 8.96226 7.20935C9.15679 7.23513 9.42749 7.14138 9.60796 7.08396C10.14 6.91638 10.6685 6.93044 10.9884 6.45115C11.4607 6.64802 10.8841 6.85662 10.7482 6.98201C10.6966 7.02888 10.6087 7.20935 10.5654 7.23279C10.4646 7.28669 10.3861 7.22107 10.2853 7.25857C10.1447 7.3113 9.98296 7.41443 9.85289 7.50232C9.59507 7.67693 9.52476 7.84685 9.16617 7.74021C8.97984 7.68513 8.85562 7.53044 8.66929 7.4906C8.41499 7.43669 7.87945 7.67107 8.12437 7.13552ZM7.03921 5.49959C7.17632 5.80076 8.99156 5.31443 9.01265 5.65544C9.01499 5.64021 9.01499 5.63904 9.01265 5.6531C9.01031 5.68709 9.00562 5.7199 8.99156 5.75037C8.87906 5.70818 8.64937 5.81599 8.52046 5.82537C8.52281 5.82537 8.33999 5.87693 8.32828 5.87927C8.22163 5.90388 8.13492 5.83123 8.0271 5.97302C7.78921 5.91677 7.56538 6.00935 7.33101 5.9449C7.19273 5.9074 6.83648 5.6613 7.03921 5.49959ZM4.62398 7.47068C4.94976 7.51873 5.33882 7.67224 5.62007 7.73318C5.75367 7.76248 5.81226 7.86912 6.02906 7.87966C6.08765 7.88201 6.47671 7.78123 6.50015 7.79177C6.69117 7.87732 6.60093 8.06013 6.83531 8.08474C6.93726 8.09529 6.99585 7.97927 7.10601 7.95701C7.40835 7.89724 7.57945 7.99568 7.84429 8.06013C7.86304 8.1199 7.8607 8.25818 7.84312 8.3156C7.75523 8.37888 7.69429 8.3906 7.60757 8.49373C7.59703 8.45154 7.50562 8.3449 7.49156 8.29099C7.30874 8.36248 7.13413 8.26404 6.95367 8.30154C6.85171 8.32263 6.63374 8.48083 6.5271 8.52537C6.52007 8.44919 6.45328 8.31912 6.44156 8.23474C6.33726 8.36833 6.22828 8.30974 6.15093 8.16443C6.02085 8.27107 5.74195 8.33787 5.59781 8.23709C5.50406 8.17146 5.48296 8.01091 5.38687 7.93357C5.3271 7.88552 5.18062 8.03435 5.05874 7.81873C4.81734 7.90076 4.64507 7.64294 4.59351 7.43904L4.62398 7.47068ZM2.39742 6.3574C2.47828 6.50154 2.48413 6.49919 2.57554 6.63162C2.60015 6.61521 2.60249 6.58826 2.62476 6.57302C2.71265 6.65271 2.83804 6.74998 2.89078 6.88474C3.0021 6.81677 3.0314 6.88123 3.11929 6.78748C3.15679 6.97966 3.20718 7.1156 3.09585 7.29138C3.03023 7.12029 2.87085 7.04412 2.72671 7.03474C2.70445 7.11326 2.62476 7.03826 2.60718 7.10623C2.59546 6.94919 2.60249 6.9281 2.56382 6.76755C2.55679 6.78162 2.54976 6.82966 2.53687 6.85193C2.54038 6.85193 2.44195 6.8613 2.45132 6.8531C2.35406 6.71248 2.35288 6.5156 2.39742 6.3574ZM10.3568 6.01052C10.4974 5.88396 10.6041 5.49958 10.7634 5.45271C10.9252 5.40466 10.9064 5.65076 11.0681 5.60154C11.3599 5.51248 11.1419 5.06365 11.3939 5.04255C11.3951 5.04138 11.4314 4.94646 11.4267 4.9488C11.4584 5.00505 11.4982 5.07185 11.5087 5.14333C11.5486 5.19724 11.5931 5.36248 11.5919 5.4738C11.5568 5.47263 11.5193 5.45271 11.4853 5.44802C11.4302 5.57927 11.4044 5.64724 11.3599 5.7738C11.0564 5.57107 11.1349 6.10662 10.8947 5.85818C10.8654 5.94959 10.774 6.02341 10.7447 6.11951C10.7013 6.08435 10.6181 6.07966 10.5736 6.0281C10.5513 6.07029 10.474 6.13005 10.4576 6.18513C10.4423 6.14529 10.3755 6.07615 10.3568 6.01052ZM3.4814 4.66755C3.50953 4.9031 3.67593 5.13279 3.96304 4.94177C3.99468 4.9699 3.97593 5.01794 3.99351 5.04959C4.19156 5.05779 4.23257 5.04138 4.31343 5.21482C4.34742 5.2031 4.32867 5.14334 4.36968 5.15037C4.36734 5.23357 4.40953 5.29216 4.42359 5.36951C4.49624 5.37185 4.51382 5.35896 4.57476 5.3449C4.62515 5.39294 4.6064 5.44802 4.65093 5.50193C4.68492 5.52302 4.69898 5.4574 4.72242 5.47263C4.73648 5.53591 4.72828 5.59802 4.72593 5.66248C4.62046 5.64841 4.45757 5.64373 4.3814 5.62849C4.34156 5.5699 4.23257 5.51599 4.1857 5.46326C4.14937 5.49724 4.06968 5.5324 4.0357 5.56521C4.01812 5.5031 3.95367 5.43748 3.9396 5.37537C3.91031 5.39529 3.86343 5.43279 3.82476 5.43982C3.73218 5.32849 3.62671 5.25701 3.54351 5.16091C3.52007 5.23709 3.46851 5.22537 3.44156 5.28162C3.31734 5.11638 3.36304 4.87146 3.36304 4.66638" fill="white"/>
</g>
<defs>
<clipPath id="clip0_99_579">
<rect width="15" height="15" fill="white"/>
</clipPath>
</defs>
</svg>
