<svg width="15" height="15" viewBox="0 0 15 15" fill="none" xmlns="http://www.w3.org/2000/svg">
<g id="bi:emoji-smile" clip-path="url(#clip0_94_1265)">
<g id="Group">
<path id="Vector" d="M7.49805 14.0626C5.75756 14.0626 4.08837 13.3712 2.85766 12.1405C1.62695 10.9098 0.935547 9.2406 0.935547 7.50012C0.935547 5.75964 1.62695 4.09044 2.85766 2.85973C4.08837 1.62903 5.75756 0.937622 7.49805 0.937622C9.23853 0.937622 10.9077 1.62903 12.1384 2.85973C13.3691 4.09044 14.0605 5.75964 14.0605 7.50012C14.0605 9.2406 13.3691 10.9098 12.1384 12.1405C10.9077 13.3712 9.23853 14.0626 7.49805 14.0626ZM7.49805 15.0001C9.48717 15.0001 11.3948 14.2099 12.8013 12.8034C14.2079 11.3969 14.998 9.48925 14.998 7.50012C14.998 5.511 14.2079 3.60334 12.8013 2.19682C11.3948 0.790298 9.48717 0.00012207 7.49805 0.00012207C5.50892 0.00012207 3.60127 0.790298 2.19475 2.19682C0.788223 3.60334 -0.00195312 5.511 -0.00195312 7.50012C-0.00195312 9.48925 0.788223 11.3969 2.19475 12.8034C3.60127 14.2099 5.50892 15.0001 7.49805 15.0001Z" fill="white"/>
<path id="Vector_2" d="M4.01561 8.96918C4.12327 8.90703 4.25122 8.89018 4.3713 8.92236C4.49138 8.95453 4.59376 9.03309 4.65592 9.14075C4.94384 9.63981 5.35816 10.0542 5.85717 10.3422C6.35618 10.6302 6.92226 10.7817 7.49842 10.7814C8.07459 10.7817 8.64067 10.6302 9.13968 10.3422C9.63869 10.0542 10.053 9.63981 10.3409 9.14075C10.3715 9.08701 10.4124 9.03984 10.4612 9.00197C10.5101 8.96409 10.5659 8.93625 10.6256 8.92005C10.6853 8.90386 10.7475 8.89962 10.8088 8.90759C10.8701 8.91556 10.9293 8.93557 10.9828 8.96648C11.0363 8.99739 11.0832 9.03859 11.1208 9.08769C11.1583 9.1368 11.1858 9.19285 11.2016 9.25262C11.2174 9.31238 11.2212 9.37468 11.2128 9.43593C11.2045 9.49718 11.1841 9.55617 11.1528 9.6095C10.7826 10.2511 10.2499 10.7838 9.60842 11.1541C8.96689 11.5244 8.23915 11.7192 7.49842 11.7189C6.7577 11.7192 6.02996 11.5244 5.38843 11.1541C4.74691 10.7838 4.21425 10.2511 3.84405 9.6095C3.78189 9.50183 3.76505 9.37389 3.79722 9.25381C3.8294 9.13373 3.90795 9.03135 4.01561 8.96918ZM6.56092 6.09387C6.56092 6.87012 6.14092 7.50012 5.62342 7.50012C5.10592 7.50012 4.68592 6.87012 4.68592 6.09387C4.68592 5.31762 5.10592 4.68762 5.62342 4.68762C6.14092 4.68762 6.56092 5.31762 6.56092 6.09387ZM10.3109 6.09387C10.3109 6.87012 9.89092 7.50012 9.37342 7.50012C8.85592 7.50012 8.43592 6.87012 8.43592 6.09387C8.43592 5.31762 8.85592 4.68762 9.37342 4.68762C9.89092 4.68762 10.3109 5.31762 10.3109 6.09387Z" fill="white"/>
</g>
</g>
<defs>
<clipPath id="clip0_94_1265">
<rect width="15" height="15" fill="white"/>
</clipPath>
</defs>
</svg>
