<svg width="10" height="9" viewBox="0 0 10 9" fill="none" xmlns="http://www.w3.org/2000/svg">
<g clip-path="url(#clip0_236_3752)">
<path d="M5.12993 8.47308C4.16789 8.47308 3.24526 8.09091 2.565 7.41065C1.88474 6.73039 1.50257 5.80775 1.50257 4.84572C1.50257 3.88368 1.88474 2.96105 2.565 2.28079C3.24526 1.60053 4.16789 1.21836 5.12993 1.21836C6.09197 1.21836 7.0146 1.60053 7.69486 2.28079C8.37512 2.96105 8.75729 3.88368 8.75729 4.84572C8.75729 5.80775 8.37512 6.73039 7.69486 7.41065C7.0146 8.09091 6.09197 8.47308 5.12993 8.47308ZM5.12993 8.99127C6.2294 8.99127 7.28384 8.55451 8.06128 7.77707C8.83872 6.99963 9.27549 5.94519 9.27549 4.84572C9.27549 3.74625 8.83872 2.69181 8.06128 1.91437C7.28384 1.13693 6.2294 0.700165 5.12993 0.700165C4.03046 0.700165 2.97602 1.13693 2.19858 1.91437C1.42114 2.69181 0.984375 3.74625 0.984375 4.84572C0.984375 5.94519 1.42114 6.99963 2.19858 7.77707C2.97602 8.55451 4.03046 8.99127 5.12993 8.99127Z" fill="black"/>
<path d="M3.20571 5.65773C3.26522 5.62337 3.33594 5.61406 3.40232 5.63185C3.46869 5.64963 3.52528 5.69305 3.55964 5.75256C3.71878 6.02842 3.94779 6.25747 4.22362 6.41667C4.49944 6.57587 4.81234 6.65959 5.13081 6.6594C5.44927 6.65959 5.76217 6.57587 6.03799 6.41667C6.31382 6.25747 6.54283 6.02842 6.70197 5.75256C6.71886 5.72286 6.74146 5.69679 6.76846 5.67585C6.79547 5.65492 6.82635 5.63953 6.85932 5.63058C6.8923 5.62162 6.92672 5.61928 6.9606 5.62369C6.99449 5.62809 7.02717 5.63915 7.05676 5.65624C7.08635 5.67332 7.11227 5.69609 7.13303 5.72324C7.15378 5.75038 7.16896 5.78136 7.1777 5.8144C7.18643 5.84743 7.18855 5.88187 7.18392 5.91572C7.17929 5.94958 7.16801 5.98218 7.15073 6.01166C6.9461 6.36629 6.65168 6.66076 6.29708 6.86544C5.94249 7.07012 5.54023 7.17778 5.13081 7.1776C4.72138 7.17778 4.31912 7.07012 3.96453 6.86544C3.60993 6.66076 3.31551 6.36629 3.11088 6.01166C3.07653 5.95215 3.06722 5.88143 3.085 5.81506C3.10278 5.74868 3.14621 5.69209 3.20571 5.65773ZM4.61261 4.06843C4.61261 4.49749 4.38046 4.84572 4.09442 4.84572C3.80837 4.84572 3.57622 4.49749 3.57622 4.06843C3.57622 3.63936 3.80837 3.29114 4.09442 3.29114C4.38046 3.29114 4.61261 3.63936 4.61261 4.06843ZM6.68539 4.06843C6.68539 4.49749 6.45324 4.84572 6.16719 4.84572C5.88115 4.84572 5.649 4.49749 5.649 4.06843C5.649 3.63936 5.88115 3.29114 6.16719 3.29114C6.45324 3.29114 6.68539 3.63936 6.68539 4.06843Z" fill="black"/>
</g>
<defs>
<clipPath id="clip0_236_3752">
<rect width="8.29111" height="8.29111" fill="white" transform="translate(0.986328 0.700134)"/>
</clipPath>
</defs>
</svg>
