<svg width="54" height="54" viewBox="0 0 54 54" fill="none" xmlns="http://www.w3.org/2000/svg">
<g id="Group 138">
<g id="Group 127">
<path id="Vector" d="M3.73406 35.4817H2.28906V36.3546H3.73406V35.4817Z" fill="white"/>
<path id="Vector_2" d="M6.62469 35.4817H5.17969V36.3546H6.62469V35.4817Z" fill="white"/>
<path id="Vector_3" d="M9.51531 35.4817H8.07031V36.3546H9.51531V35.4817Z" fill="white"/>
<path id="Vector_4" d="M12.402 35.4817H10.957V36.3546H12.402V35.4817Z" fill="white"/>
<path id="Vector_5" d="M15.2927 35.4817H13.8477V36.3546H15.2927V35.4817Z" fill="white"/>
<path id="Vector_6" d="M18.1833 35.4817H16.7383V36.3546H18.1833V35.4817Z" fill="white"/>
<path id="Vector_7" d="M21.0739 35.4817H19.6289V36.3546H21.0739V35.4817Z" fill="white"/>
<path id="Vector_8" d="M23.9606 35.4817H22.5156V36.3546H23.9606V35.4817Z" fill="white"/>
<path id="Vector_9" d="M26.8513 35.4817H25.4062V36.3546H26.8513V35.4817Z" fill="white"/>
<path id="Vector_10" d="M29.7419 35.4817H28.2969V36.3546H29.7419V35.4817Z" fill="white"/>
<path id="Vector_11" d="M32.6325 35.4817H31.1875V36.3546H32.6325V35.4817Z" fill="white"/>
<path id="Vector_12" d="M35.9457 36.0428C35.9457 40.8054 34.1188 45.3729 30.8669 48.7405C27.615 52.1082 23.2045 54.0001 18.6056 54.0001C14.0068 54.0001 9.59628 52.1082 6.3444 48.7405C3.09252 45.3729 1.26562 40.8054 1.26562 36.0428H35.9457Z" fill="#FDA47A"/>
<path id="Vector_13" d="M42.1747 34.9846L31.1445 0.935706C33.3033 0.184033 35.584 -0.119554 37.8561 0.042308C40.1283 0.20417 42.3473 0.828305 44.3863 1.87902C46.4254 2.92973 48.2444 4.38641 49.7394 6.16574C51.2344 7.94508 52.376 10.0122 53.0989 12.2488C53.2157 12.6092 53.3217 12.972 53.4156 13.3349C54.551 17.7473 54.0206 22.4418 51.9325 26.4636C49.8443 30.4854 46.3551 33.5323 42.1747 34.9846Z" fill="#FDA47A"/>
<path id="Vector_14" d="M35.523 38.8486C36.72 38.8486 37.6905 37.8436 37.6905 36.6039C37.6905 35.3642 36.72 34.3593 35.523 34.3593C34.3259 34.3593 33.3555 35.3642 33.3555 36.6039C33.3555 37.8436 34.3259 38.8486 35.523 38.8486Z" fill="white"/>
<path id="Vector_15" d="M13.4849 40.7192C13.3252 40.7192 13.1721 40.7849 13.0592 40.9019C12.9462 41.0188 12.8828 41.1774 12.8828 41.3428C12.8828 41.5081 12.9462 41.6667 13.0592 41.7836C13.1721 41.9006 13.3252 41.9663 13.4849 41.9663H23.8407C24.0004 41.9663 24.1536 41.9006 24.2665 41.7836C24.3794 41.6667 24.4428 41.5081 24.4428 41.3428C24.4428 41.1774 24.3794 41.0188 24.2665 40.9019C24.1536 40.7849 24.0004 40.7192 23.8407 40.7192H13.4849Z" fill="white"/>
<path id="Vector_16" d="M0.541875 36.3546C0.398161 36.3546 0.26033 36.4137 0.158708 36.519C0.0570871 36.6242 0 36.7669 0 36.9158C0 37.0646 0.0570871 37.2073 0.158708 37.3126C0.26033 37.4178 0.398161 37.4769 0.541875 37.4769H2.10729C2.25101 37.4769 2.38884 37.4178 2.49046 37.3126C2.59208 37.2073 2.64917 37.0646 2.64917 36.9158C2.64917 36.7669 2.59208 36.6242 2.49046 36.519C2.38884 36.4137 2.25101 36.3546 2.10729 36.3546H0.541875Z" fill="white"/>
<path id="Vector_17" opacity="0.2" d="M11.1992 35.6064V35.357C12.2616 35.357 13.1259 33.9584 13.1259 32.2394H13.3667C13.3667 34.0959 12.3944 35.6064 11.1992 35.6064Z" fill="#FDA47A"/>
<path id="Vector_18" opacity="0.2" d="M20.4727 35.6064V35.357C21.535 35.357 22.3993 33.9584 22.3993 32.2394H22.6402C22.6402 34.0959 21.6678 35.6064 20.4727 35.6064Z" fill="#FDA47A"/>
</g>
<g id="Group 132">
<path id="Vector_19" d="M18.6852 35.4572C18.7229 36.2635 18.0677 36.9441 17.2758 36.9441C16.4839 36.9441 15.7816 36.2216 15.8617 35.4205C15.9748 34.2948 16.7243 34.2215 17.2758 34.2215C17.6105 34.2215 18.6004 33.8969 18.6852 35.4572Z" fill="#EF4D3C"/>
<path id="Vector_20" d="M16.2812 35.2163C16.5735 34.7137 17.0731 34.8603 17.2051 34.6718C17.2051 35.0331 17.4408 34.855 17.5587 35.0173C17.7095 35.2268 17.7661 35.5985 17.9452 35.6718C17.7708 35.2582 18.0536 35.2739 17.6576 34.7189C17.8698 34.8655 17.9782 34.7189 18.2657 34.8498C18.0159 34.41 17.6246 34.5356 17.6246 34.5356C17.6246 34.5356 17.8698 34.2843 18.0772 34.4152C17.8603 34.0592 17.2334 34.5095 17.2334 34.5095C17.2334 34.5095 16.9742 34.0173 16.4179 34.5356C16.7432 34.389 17.1014 34.5356 17.1014 34.5356C17.1014 34.5356 16.5122 34.3733 16.2812 35.2163Z" fill="#7BB246"/>
<g id="Group">
<path id="Vector_21" d="M16.2812 35.2162C16.2812 35.2162 16.6253 34.5094 17.2193 34.5722C16.6961 34.3052 16.2812 34.8707 16.2812 35.2162Z" fill="#7BB246"/>
<path id="Vector_22" d="M16.418 34.5354C16.418 34.5354 16.8516 34.1742 17.2334 34.5354C17.1203 34.0956 16.5405 34.2998 16.418 34.5354ZM17.3277 34.5826C17.9028 34.8758 17.7095 35.2109 17.9452 35.6821C17.7849 35.2894 18.1809 34.5826 17.3277 34.5826Z" fill="#7BB246"/>
<path id="Vector_23" d="M17.1016 34.5356C17.1016 34.5356 17.2335 34.3157 17.2807 34.0434C17.2854 34.0068 17.4268 34.012 17.4221 34.0487C17.375 34.3995 17.5022 34.5932 17.5022 34.5932C17.5022 34.5932 17.4032 34.6299 17.2807 34.6299C17.1581 34.6351 17.1016 34.5356 17.1016 34.5356Z" fill="#7BB246"/>
</g>
<path id="Vector_24" d="M17.352 34.0748C17.391 34.0748 17.4227 34.0607 17.4227 34.0434C17.4227 34.026 17.391 34.012 17.352 34.012C17.3129 34.012 17.2812 34.026 17.2812 34.0434C17.2812 34.0607 17.3129 34.0748 17.352 34.0748Z" fill="#7BB246"/>
</g>
<g id="Group 131">
<path id="Vector_25" d="M27.1551 30.332C27.1276 30.2088 26.9928 29.9758 26.6793 29.9758C26.5055 29.9791 26.3401 30.0364 26.2177 30.1357C26.1586 30.0844 26.0867 30.0436 26.0068 30.0161C25.9268 29.9885 25.8405 29.9749 25.7535 29.976C25.672 29.9805 25.5929 29.9997 25.5219 30.0322C25.4509 30.0647 25.3899 30.1096 25.3434 30.1636C25.2811 30.1066 25.2049 30.0606 25.1196 30.0283C25.0343 29.996 24.9417 29.9782 24.8474 29.9758C24.5339 29.9758 24.3991 30.2088 24.3709 30.3356C24.3646 30.3782 24.2218 31.3872 24.7285 31.9685C24.89 32.154 25.049 32.2476 25.2013 32.2476C25.2158 32.2476 25.2302 32.2468 25.2445 32.2452C25.3358 32.2313 25.4172 32.1903 25.4727 32.1303C25.5571 32.2015 25.6713 32.245 25.7932 32.2525L25.8024 32.2526C25.9079 32.2498 26.0086 32.2166 26.0861 32.159C26.1379 32.2043 26.2069 32.2346 26.2823 32.2451C26.2966 32.2467 26.311 32.2476 26.3254 32.2476C26.4778 32.2476 26.6367 32.154 26.7984 31.9685C27.305 31.3873 27.1622 30.3782 27.1551 30.332H27.1551Z" fill="#EF4D3C"/>
<path id="Vector_26" d="M26.0788 29.7146C26.0975 29.7061 26.146 29.6997 26.2593 29.7527C26.2959 29.7702 26.3378 29.7793 26.3803 29.7789C26.4229 29.7786 26.4645 29.7688 26.5006 29.7507C26.5368 29.7326 26.566 29.7068 26.5851 29.6762C26.6042 29.6456 26.6124 29.6113 26.6089 29.5772C26.6063 29.5499 26.5962 29.5234 26.5792 29.4997C26.5622 29.4759 26.5388 29.4556 26.5107 29.4401C26.4018 29.3838 26.2799 29.346 26.1523 29.3288C26.0839 29.3167 26.0128 29.3179 25.9451 29.3323C25.8773 29.3467 25.8148 29.3739 25.7628 29.4116C25.6136 29.5263 25.5958 29.7206 25.597 29.8168C25.406 29.8644 25.2427 29.9656 25.1368 30.102L25.1365 30.1022L25.1362 30.1026C25.1354 30.1036 25.1345 30.1044 25.1336 30.1055C25.1316 30.1085 25.13 30.1116 25.1287 30.1148C25.1262 30.1185 25.1242 30.1224 25.1227 30.1264C25.1219 30.1303 25.1216 30.1341 25.1217 30.138C25.1201 30.1459 25.1217 30.1539 25.1262 30.1609C25.1276 30.1649 25.1295 30.1687 25.1318 30.1724C25.1347 30.1756 25.138 30.1786 25.1416 30.1813C25.1442 30.1842 25.1471 30.187 25.1503 30.1895C25.2026 30.2224 25.2492 30.2608 25.2888 30.3037L25.2889 30.3038C25.2951 30.3106 25.303 30.3163 25.3122 30.3206C25.3132 30.321 25.3143 30.3212 25.3154 30.3216C25.3168 30.3222 25.3183 30.3226 25.3197 30.3231C25.3294 30.3267 25.34 30.3287 25.3508 30.3289H25.351L25.3521 30.3288C25.3591 30.3286 25.366 30.3278 25.3727 30.3262C25.375 30.3256 25.3772 30.3247 25.3795 30.324C25.3843 30.3225 25.3889 30.3205 25.3933 30.3183C25.3945 30.3176 25.3958 30.3175 25.3969 30.3168C25.3979 30.3161 25.3983 30.3153 25.3993 30.3147C25.4056 30.3106 25.4111 30.3057 25.4156 30.3002C25.4162 30.2994 25.4171 30.2987 25.4177 30.2979H25.4177C25.4804 30.2109 25.5907 30.1058 25.7604 30.1C25.8345 30.1008 25.9075 30.1148 25.9739 30.1412C26.0404 30.1675 26.0987 30.2054 26.1446 30.2522C26.149 30.261 26.1558 30.2689 26.1647 30.2752C26.1723 30.2805 26.1812 30.2846 26.1909 30.2872C26.2005 30.2897 26.2107 30.2908 26.2208 30.2902C26.2309 30.2896 26.2408 30.2874 26.2499 30.2837C26.2589 30.2801 26.267 30.275 26.2736 30.2688C26.3139 30.2311 26.3602 30.1978 26.4112 30.1697C26.4133 30.1686 26.4143 30.1669 26.4162 30.1658C26.4197 30.1645 26.4232 30.1631 26.4264 30.1614C26.4424 30.1511 26.4526 30.1361 26.4548 30.1197C26.457 30.1033 26.451 30.0869 26.4382 30.0741C26.322 29.9731 26.1798 29.8938 26.0216 29.8416C26.0309 29.7472 26.0637 29.7215 26.0788 29.7146Z" fill="#C0A519"/>
<path id="Vector_27" d="M24.7322 31.9681C24.8952 32.1551 25.0494 32.2464 25.2035 32.2471H25.2052C25.265 32.2446 25.3232 32.2305 25.3746 32.2058C25.4261 32.1811 25.4693 32.1467 25.5005 32.1056C25.5016 32.1044 25.5017 32.103 25.5027 32.1017C25.5074 32.0946 25.511 32.087 25.5133 32.0792C25.5161 32.0676 25.514 32.0555 25.5075 32.0449C25.5056 32.041 25.5031 32.0372 25.5002 32.0337C25.4992 32.0325 25.4983 32.0313 25.4976 32.0299C24.9757 31.0298 25.4126 30.3017 25.4182 30.2905C25.4189 30.289 25.4186 30.2876 25.4191 30.2861C25.4246 30.2705 25.4229 30.2538 25.4142 30.2391C25.4134 30.2378 25.4134 30.2363 25.4124 30.235C25.4036 30.2235 25.1801 29.9753 24.8511 29.9753C24.5376 29.9753 24.4028 30.2083 24.3754 30.3315C24.3684 30.3778 24.2254 31.3868 24.7322 31.968V31.9681Z" fill="#781E32"/>
</g>
<g id="Group 128">
<path id="Vector_28" d="M26.708 19.5432C26.708 19.5432 26.431 19.478 26.202 19.6763C25.9357 19.9072 26.0677 20.2596 26.1886 20.521C26.3095 20.7824 26.3648 20.8761 26.4253 21.0979C26.4708 21.2637 26.5213 21.5591 26.9053 21.6551C27.1737 21.722 27.4502 21.5706 27.4502 21.5706C27.4502 21.5706 27.5637 21.6688 27.8144 21.6922C28.0857 21.7173 28.3736 21.6521 28.4738 21.469C28.5262 21.3733 28.5771 21.0664 28.6131 20.8712C28.6602 20.6152 28.8284 20.3374 28.8704 20.1171C28.906 19.9291 28.8462 19.4942 28.0921 19.4826C27.8284 19.4787 27.5319 19.5597 27.5319 19.5597C27.5319 19.5597 27.2997 19.4654 27.1225 19.4501C26.7815 19.4206 26.708 19.5432 26.708 19.5432Z" fill="#7BB246"/>
<path id="Vector_29" d="M28.4591 19.533C28.3617 19.5 28.2453 19.4695 28.037 19.4594C27.7418 19.4452 27.5328 19.5594 27.5328 19.5594C27.5328 19.5594 27.3006 19.4651 27.1234 19.4498C26.7821 19.4203 26.6771 19.5377 26.6771 19.5377C26.6771 19.5377 26.7328 19.5451 26.8225 19.5707C26.8953 19.5913 26.8683 19.6416 26.8082 19.6462C26.6902 19.6553 26.5938 19.7154 26.582 19.7479C26.582 19.7479 26.7707 19.6851 26.9672 19.7331C27.2287 19.7971 27.2993 19.9472 27.2993 19.9472C27.2993 19.9472 27.4466 19.8143 27.7965 19.7528C28.1292 19.6942 28.3684 19.8052 28.3684 19.8052C28.349 19.7402 28.301 19.7078 28.258 19.6767C28.1807 19.6209 28.2062 19.5719 28.2851 19.5547C28.3506 19.5404 28.4591 19.533 28.4591 19.533Z" fill="#7BB246"/>
<path id="Vector_30" d="M26.6603 18.9326C26.6631 19.0502 26.7789 19.1049 26.8321 19.1073C26.9396 19.112 27.0194 19.0111 27.2198 19.16C27.3012 19.2205 27.333 19.3067 27.3305 19.3923C27.3295 19.4206 27.3384 19.5265 27.2742 19.5501C27.2542 19.5575 27.2408 19.5631 27.1784 19.5447C27.1088 19.524 27.0468 19.5752 27.0468 19.5752L27.1664 19.6808L27.4625 19.7551L27.7596 19.7093L27.9314 19.5924C27.9314 19.5924 27.8515 19.5444 27.7822 19.5636C27.7446 19.574 27.6721 19.557 27.6718 19.523C27.6705 19.4514 27.6744 19.3832 27.6572 19.3119C27.6285 19.194 27.5637 19.0812 27.4596 18.9917C27.3105 18.8632 27.097 18.7965 26.8804 18.7694C26.7026 18.7475 26.6574 18.8164 26.6603 18.9326Z" fill="#C0A519"/>
<path id="Vector_31" d="M27.3536 18.9173C27.2172 18.8365 27.0492 18.7905 26.8791 18.7693C26.8218 18.7622 26.7785 18.7647 26.7461 18.7748C26.8123 18.776 26.9404 18.8011 27.1475 18.9116C27.2779 18.981 27.5356 19.2303 27.3212 19.488C27.3155 19.5094 27.3053 19.5288 27.2881 19.5412C27.3412 19.5227 27.4449 19.4594 27.4685 19.2911C27.4933 19.1129 27.4386 18.9953 27.3536 18.9173Z" fill="#C0A519"/>
<path id="Vector_32" opacity="0.6" d="M27.2072 20.5364C27.2047 20.6296 27.2241 20.8378 27.2992 21.1344C27.3631 21.3869 27.2982 21.5703 27.2133 21.6522C27.3507 21.6234 27.4499 21.5708 27.4499 21.5708C27.4499 21.5708 27.4853 21.4694 27.4875 21.3658C27.4903 21.2412 27.4232 20.9912 27.3447 20.7928C27.2893 20.6535 27.2728 20.4433 27.2702 20.3252C27.2702 20.325 27.2117 20.3678 27.2072 20.5364Z" fill="#7BB246"/>
<path id="Vector_33" opacity="0.75" d="M27.0215 20.2146C26.9878 20.2176 26.9573 20.2011 26.9318 20.1851C26.839 20.1263 26.7862 20.077 26.6818 20.0281C26.601 19.9902 26.4417 19.9646 26.4951 19.8678C26.5209 19.8213 26.6198 19.8154 26.6869 19.8243C26.9207 19.8548 27.0247 19.9611 27.074 20.094C27.0826 20.1171 27.0941 20.1405 27.0874 20.1644C27.081 20.188 27.0562 20.2109 27.0231 20.2146H27.0215ZM27.7532 19.952C27.9071 19.8811 28.1342 19.8826 28.3244 19.9579C28.3715 19.9766 28.4167 20.001 28.444 20.0362C28.4647 20.0628 28.4701 20.1026 28.4374 20.1206C28.41 20.1354 28.3725 20.1265 28.3407 20.1186C28.1498 20.0719 27.9338 20.0896 27.7601 20.1666C27.6946 20.1957 27.554 20.3032 27.5127 20.2279C27.4716 20.1518 27.5617 20.0401 27.7532 19.952Z" fill="#C0A519"/>
</g>
<g id="Group 133">
<path id="Vector_34" d="M14.8154 19.5585C14.7207 19.3019 14.8154 18.8741 15.1943 18.7886C15.5732 18.703 15.7626 18.8741 15.7626 18.9597C15.7626 19.0452 15.6679 19.2163 15.5732 19.1308C15.4784 19.0452 15.289 19.0452 15.1943 19.2163C15.0996 19.3874 15.1943 19.5585 15.1943 19.5585H14.8154Z" fill="#7BB246"/>
<path id="Vector_35" d="M15.5686 20.5823C15.5686 21.1982 15.2757 21.3504 14.5267 21.6119C13.7915 21.8685 13.8863 21.1841 13.7689 20.5823C13.7195 20.3288 13.6723 20.2589 13.621 20.0701C13.5496 19.8073 13.566 19.4672 14.0531 19.4672C14.8901 19.4672 15.5686 19.9664 15.5686 20.5823Z" fill="#7BB246"/>
<path id="Vector_36" d="M14.4414 20.5823C14.4414 21.1982 14.7343 21.3504 15.4833 21.6119C16.2184 21.8685 16.1237 21.1841 16.241 20.5823C16.2905 20.3288 16.3377 20.2589 16.389 20.0701C16.4604 19.8074 16.444 19.4672 15.9569 19.4672C15.1199 19.4672 14.4414 19.9664 14.4414 20.5823Z" fill="#7BB246"/>
<path id="Vector_37" d="M15.6641 20.6222C15.6641 21.26 15.5769 21.6975 15.0038 21.6975C14.4308 21.6975 14.3436 21.26 14.3436 20.6222C14.3436 19.9843 13.8719 19.3876 15.0038 19.3876C16.1358 19.3876 15.6641 19.9843 15.6641 20.6222Z" fill="#7BB246"/>
</g>
<g id="Group 136">
<path id="Vector_38" d="M20.6281 14.9715C20.7168 14.4297 21.2997 13.7926 22.0363 14.0439C22.7728 14.2953 22.9313 14.7894 22.8473 14.9368C22.7634 15.0841 22.4323 15.2792 22.3531 15.0321C22.2739 14.7851 21.9476 14.5857 21.6165 14.7808C21.2854 14.9758 21.2807 15.3703 21.2807 15.3703L20.6281 14.9715Z" fill="#7BB246"/>
<path id="Vector_39" d="M20.9235 17.527C20.3192 18.5879 19.6653 18.5419 18.1185 18.204C16.6004 17.8725 17.4352 16.7932 17.8235 15.6331C17.9872 15.1442 17.9745 14.9742 18.0713 14.5951C18.2063 14.0673 18.5683 13.4986 19.4073 14.0112C20.8491 14.8921 21.5279 16.4661 20.9235 17.527Z" fill="#7BB246"/>
<path id="Vector_40" d="M18.9799 16.3419C18.3755 17.4028 18.7307 17.9731 19.7644 19.2118C20.7788 20.4275 21.2873 19.1489 22.0799 18.2358C22.4139 17.851 22.5638 17.7803 22.8374 17.5092C23.2182 17.1318 23.5239 16.5285 22.6848 16.0158C21.2429 15.1349 19.5843 15.2809 18.9799 16.3419Z" fill="#7BB246"/>
<path id="Vector_41" d="M21.0515 17.6979C20.4255 18.7967 19.846 19.4584 18.8589 18.8553C17.8718 18.2522 18.1508 17.4069 18.7767 16.3081C19.4026 15.2093 19.1757 13.685 21.1256 14.8763C23.0755 16.0676 21.6774 16.5991 21.0515 17.6979Z" fill="#7BB246"/>
</g>
<g id="Group 134">
<path id="Vector_42" d="M34.2164 29.4305C34.5026 29.2502 34.5733 28.7234 34.516 28.7835C34.5733 28.7234 34.0581 28.7835 33.8864 29.084C33.8864 28.9638 33.772 28.483 33.6003 28.9037C33.4285 29.3244 33.4857 29.3845 33.4857 29.5047C33.4857 29.6249 33.7147 29.6249 33.7147 29.6249C33.7147 29.6249 33.7046 29.8547 33.8191 29.8547C33.9336 29.8547 33.9808 29.9043 34.3814 29.724C34.7821 29.5436 34.3309 29.4305 34.2164 29.4305Z" fill="#7BB246"/>
<path id="Vector_43" d="M33.5124 30.6766C32.896 31.3238 31.8811 31.7883 31.738 31.6381C31.5949 31.4878 32.0374 30.4223 32.6538 29.7751C33.2702 29.1279 33.5871 29.1324 33.8558 29.4145C34.1245 29.6966 34.1288 30.0294 33.5124 30.6766Z" fill="#FDA47A"/>
<path id="Vector_44" d="M33.4685 29.9087C33.3898 29.8261 33.2443 29.672 33.0887 29.3898C33.0208 29.4369 32.9557 29.4882 32.8937 29.5434C33.1206 29.8505 33.5511 29.9953 33.4685 29.9087ZM32.8626 30.5948C32.7783 30.5063 32.6173 30.3355 32.4493 30.0129C32.3936 30.0838 32.3402 30.1567 32.2891 30.2313C32.5163 30.5371 32.9448 30.6811 32.8626 30.5948ZM33.6155 30.5649C33.3256 30.3943 33.1711 30.2326 33.0892 30.1467C33.0066 30.0598 33.1452 30.5134 33.4386 30.7513C33.4985 30.6902 33.5575 30.6281 33.6155 30.5649ZM32.6293 31.3574C32.7038 31.3144 32.7771 31.2691 32.8491 31.2217C32.5841 31.0597 32.4387 30.9086 32.3606 30.8266C32.286 30.7482 32.3919 31.1111 32.6293 31.3574Z" fill="#FDA47A"/>
</g>
<g id="Group 130">
<path id="Vector_45" d="M10.4719 27.3554C10.5449 27.3554 10.604 27.2941 10.604 27.2185C10.604 27.1429 10.5449 27.0817 10.4719 27.0817C10.399 27.0817 10.3398 27.1429 10.3398 27.2185C10.3398 27.2941 10.399 27.3554 10.4719 27.3554Z" fill="#7BB246"/>
<path id="Vector_46" d="M9.14301 27.6586C8.8647 28.1376 9.34584 28.2842 9.55811 28.1229C9.39773 28.3673 9.5534 28.8268 10.0157 28.5482C10.5298 28.2353 10.3883 27.3506 10.4166 27.248C10.3317 27.2626 9.44019 27.1453 9.14301 27.6586Z" fill="#7BB246"/>
<path id="Vector_47" d="M9.55859 28.123C9.62463 28.0448 9.69539 27.9715 9.76143 27.8933L9.9737 27.6733C10.0445 27.6 10.1152 27.5267 10.1907 27.4582L10.2992 27.3507L10.4124 27.248L10.3133 27.3654L10.2096 27.4778L9.99729 27.6977C9.92653 27.7711 9.85577 27.8444 9.7803 27.9128C9.70954 27.9861 9.63878 28.0546 9.55859 28.123Z" fill="#7BB246"/>
<path id="Vector_48" d="M11.8049 26.7787C12.0832 26.2997 11.602 26.1531 11.3898 26.3144C11.5501 26.07 11.3945 25.6105 10.9322 25.8891C10.418 26.2019 10.5596 27.0867 10.5312 27.1893C10.6162 27.1747 11.5077 27.292 11.8049 26.7787Z" fill="#7BB246"/>
<path id="Vector_49" d="M11.389 26.3145C11.3229 26.3927 11.2522 26.466 11.1861 26.5442L10.9738 26.7642C10.9031 26.8375 10.8323 26.9108 10.7569 26.9792L10.6484 27.0868L10.5352 27.1894L10.6342 27.0721L10.738 26.9597L10.9503 26.7397C11.021 26.6664 11.0918 26.5931 11.1673 26.5246C11.238 26.4513 11.3088 26.3829 11.389 26.3145Z" fill="#7BB246"/>
<path id="Vector_50" d="M10.0164 25.8893C9.54469 25.6058 9.40317 26.0946 9.55884 26.3146C9.32298 26.1533 8.87014 26.3097 9.14373 26.779C9.45035 27.302 10.3183 27.1602 10.4174 27.1847C10.4032 27.1016 10.5211 26.1924 10.0164 25.8893Z" fill="#7BB246"/>
<path id="Vector_51" d="M9.55859 26.3145C9.63407 26.3829 9.70954 26.4513 9.7803 26.5198C9.85577 26.5882 9.92653 26.6615 9.99729 26.7348L10.2096 26.9548L10.3133 27.0672L10.4124 27.1845L10.2992 27.0819L10.1907 26.9792C10.1152 26.9108 10.0445 26.8375 9.9737 26.7642L9.76143 26.5442C9.69539 26.466 9.62463 26.3927 9.55859 26.3145Z" fill="#7BB246"/>
<path id="Vector_52" d="M10.9309 28.5482C11.4026 28.8317 11.5441 28.3429 11.3885 28.123C11.629 28.2843 12.0772 28.1278 11.8036 27.6586C11.497 27.1356 10.629 27.2773 10.53 27.2529C10.5441 27.336 10.4262 28.2452 10.9309 28.5482Z" fill="#7BB246"/>
<path id="Vector_53" d="M11.3885 28.123C11.313 28.0546 11.2376 27.9861 11.1668 27.9177C11.0913 27.8493 11.0206 27.776 10.9498 27.7026L10.7376 27.4827L10.6338 27.3654L10.5347 27.248L10.6479 27.3507L10.7564 27.4582C10.8319 27.5267 10.9027 27.6 10.9734 27.6733L11.1857 27.8933C11.2517 27.9715 11.3225 28.0448 11.3885 28.123ZM10.4734 27.5022L10.5913 28.6118C10.596 28.6754 10.5489 28.7291 10.4875 28.734C10.4215 28.7389 10.3649 28.6949 10.3555 28.6314V28.6069L10.4734 27.5022Z" fill="#7BB246"/>
</g>
<g id="Group 129">
<path id="Vector_54" d="M9.6228 31.1895C9.62382 31.2314 9.62255 31.3379 9.51964 31.5838C9.38659 31.9011 9.23439 32.1122 9.1371 32.2131C9.03598 32.34 8.72545 32.6953 8.20579 32.801C8.08602 32.8254 7.50813 32.9449 7.09495 32.5798C7.04005 32.5307 6.81711 32.3281 6.7949 32.0275C6.7857 31.903 6.8092 31.7407 6.86921 31.7267C6.93994 31.7099 6.97672 31.9186 7.17513 32.0679C7.19991 32.0865 7.42003 32.2471 7.69404 32.1924C7.94327 32.1427 8.08398 31.9455 8.13965 31.8674C8.26554 31.6908 8.30793 31.5004 8.35236 31.3002C8.40369 31.0703 8.40803 30.8897 8.5518 30.733C8.57887 30.7036 8.60441 30.6762 8.64706 30.6523C8.79236 30.5711 8.95375 30.6321 9.17923 30.7213C9.39527 30.8071 9.52806 30.8618 9.58935 31.0025C9.61974 31.0721 9.62153 31.1361 9.6228 31.1895Z" fill="#EF4D3C"/>
<path id="Vector_55" d="M8.65527 30.6414C8.70583 30.6141 8.78321 30.5817 8.89634 30.5827C8.92008 30.583 8.94869 30.5841 8.98137 30.5878C9.00946 30.591 9.11672 30.5259 9.1397 30.4877C9.16064 30.4529 9.17851 30.416 9.19894 30.377C9.22397 30.3294 9.26329 30.2476 9.26789 30.2012C9.27734 30.104 9.25742 29.9938 9.08863 30.0185C9.06769 30.0214 9.01891 30.0498 9.00487 30.011C8.97627 29.9332 9.12897 29.8759 9.23137 29.9258C9.34552 29.9816 9.38944 30.1303 9.39557 30.1627C9.41115 30.2415 9.39379 30.3071 9.36008 30.4346C9.34654 30.4861 9.33684 30.5246 9.32663 30.5657C9.31181 30.6263 9.33837 30.7044 9.35803 30.7163C9.48112 30.7899 9.53909 30.8764 9.56616 30.9269C9.60676 31.0026 9.64123 31.1173 9.61595 31.1343C9.60063 31.1446 9.56488 31.1178 9.55364 31.1093C9.51713 31.0817 9.51662 31.0594 9.49134 31.0342C9.45124 30.9941 9.38638 30.985 9.3399 30.9943C9.27249 31.0079 9.26381 31.0602 9.22525 31.053C9.17979 31.0448 9.18847 30.9704 9.1088 30.9062C9.06794 30.873 9.02836 30.8626 9.01738 30.86C8.98402 30.8521 8.94943 30.852 8.916 30.8594C8.86007 30.8719 8.85471 30.8958 8.8113 30.8974C8.77478 30.8987 8.73009 30.8836 8.72473 30.8594C8.71988 30.8371 8.75206 30.8262 8.7564 30.7851C8.75691 30.7803 8.75997 30.746 8.7398 30.7245C8.72218 30.706 8.69562 30.7057 8.6494 30.7054C8.60701 30.7052 8.58939 30.7115 8.58632 30.7044C8.58147 30.6924 8.62335 30.6587 8.65527 30.6414Z" fill="#C0A519"/>
<path id="Vector_56" d="M8.4885 31.7577C8.47727 31.7569 8.46578 31.7535 8.45582 31.7463C8.44111 31.7362 8.43085 31.7204 8.42731 31.7024C8.42377 31.6845 8.42722 31.6658 8.43692 31.6504C8.48697 31.5716 8.50204 31.4457 8.5143 31.3448C8.52145 31.2864 8.52758 31.2359 8.53907 31.1953C8.57737 31.0609 8.66803 31.0182 8.67824 31.014C8.68627 31.0104 8.6949 31.0085 8.70363 31.0084C8.71236 31.0083 8.72102 31.01 8.72912 31.0134C8.73721 31.0168 8.74459 31.0218 8.75082 31.0282C8.75706 31.0345 8.76203 31.0421 8.76545 31.0505C8.76887 31.0588 8.77067 31.0678 8.77076 31.0769C8.77085 31.0859 8.76921 31.0949 8.76595 31.1034C8.76269 31.1118 8.75787 31.1195 8.75176 31.1259C8.74565 31.1324 8.73837 31.1376 8.73033 31.1411C8.72676 31.143 8.68616 31.1653 8.66649 31.2346C8.65807 31.2646 8.65219 31.3121 8.64606 31.3623C8.63202 31.4776 8.61465 31.6212 8.54775 31.7269C8.53422 31.7479 8.51149 31.759 8.4885 31.7577ZM8.25944 32.1255C8.24735 32.1251 8.2356 32.1212 8.22546 32.1143C8.21533 32.1074 8.20721 32.0978 8.20199 32.0864C8.1859 32.0519 8.19994 32.0108 8.23289 31.994C8.2717 31.9744 8.31052 31.9067 8.32584 31.8684C8.32919 31.8601 8.3341 31.8525 8.34028 31.8461C8.34645 31.8397 8.35378 31.8346 8.36185 31.8312C8.36991 31.8277 8.37855 31.8259 8.38726 31.826C8.39598 31.826 8.40461 31.8278 8.41266 31.8313C8.42073 31.8347 8.42807 31.8398 8.43425 31.8462C8.44043 31.8526 8.44533 31.8603 8.44867 31.8686C8.45202 31.877 8.45374 31.886 8.45374 31.8951C8.45374 31.9042 8.45201 31.9132 8.44867 31.9215C8.44279 31.9367 8.38738 32.07 8.2906 32.1186C8.28064 32.1236 8.26991 32.1257 8.25944 32.1255Z" fill="white"/>
</g>
<g id="Group 135">
<path id="Vector_57" d="M19.7886 28.9586C19.6265 29.6454 18.8753 30.0493 18.1106 29.8607C17.3459 29.6721 16.8573 28.9624 17.0193 28.2756C17.1813 27.5888 17.9325 27.1849 18.6972 27.3735C19.462 27.5621 19.9506 28.2718 19.7886 28.9586Z" fill="#EF4D3C"/>
<path id="Vector_58" d="M18.9984 27.6698C18.9916 27.6714 18.9845 27.6705 18.9783 27.6673L18.974 27.6651C18.974 27.6651 18.971 27.6636 18.9657 27.6605C18.9605 27.6573 18.9525 27.6529 18.9431 27.6467C18.9407 27.6451 18.9381 27.6436 18.9356 27.6418L18.9317 27.6392L18.9276 27.6371C18.9221 27.6343 18.9165 27.6311 18.9105 27.6279C18.9043 27.6248 18.899 27.621 18.8919 27.6178C18.885 27.6144 18.8781 27.6108 18.8709 27.6072C18.8673 27.6055 18.864 27.6032 18.8602 27.6017L18.8488 27.5968C18.8449 27.5952 18.8413 27.5935 18.8375 27.5917L18.8318 27.5891C18.8299 27.5883 18.8278 27.5877 18.8259 27.587C18.8178 27.5843 18.8101 27.5811 18.8022 27.5782C18.7941 27.5759 18.7859 27.5735 18.7778 27.571L18.7718 27.5691C18.7697 27.5687 18.7675 27.5683 18.7654 27.5678L18.7529 27.5648C18.7487 27.5639 18.7448 27.5627 18.7405 27.562L18.7275 27.5597L18.7147 27.5574L18.7116 27.5567L18.7082 27.5564L18.7015 27.5555L18.6882 27.5537C18.6837 27.5531 18.6796 27.5522 18.6747 27.5521C18.6701 27.5516 18.6655 27.5512 18.661 27.5507C18.6565 27.5499 18.6519 27.5494 18.6475 27.5484C18.6384 27.5468 18.6288 27.5456 18.6197 27.5431C18.6151 27.5422 18.6107 27.5404 18.6061 27.5393C18.6013 27.5379 18.5966 27.5369 18.5919 27.5353C18.5825 27.5325 18.5733 27.5287 18.564 27.5252C18.5545 27.5218 18.5451 27.5185 18.5357 27.5149C18.5264 27.5113 18.5173 27.5077 18.508 27.5049C18.4955 27.5009 18.483 27.4968 18.4706 27.4926C18.4676 27.4963 18.4644 27.5 18.4613 27.5035C18.4558 27.5092 18.452 27.5152 18.4473 27.5206C18.4429 27.526 18.4389 27.5312 18.4348 27.5359C18.4315 27.5403 18.4282 27.5446 18.4247 27.5489C18.4222 27.5521 18.4197 27.5552 18.4171 27.5583C18.4144 27.5654 18.4115 27.5724 18.4086 27.5793C18.4035 27.5913 18.3981 27.6032 18.3924 27.615C18.3909 27.6182 18.3893 27.6213 18.3877 27.6245C18.3862 27.6278 18.3846 27.631 18.3829 27.6343C18.3724 27.6549 18.3612 27.6752 18.3494 27.6951C18.333 27.7229 18.3156 27.75 18.2971 27.7763C18.2879 27.7892 18.2787 27.8016 18.2694 27.8134C18.2607 27.8246 18.2517 27.8356 18.2424 27.8463C18.225 27.8666 18.2088 27.8832 18.1967 27.8947C18.1908 27.9004 18.1855 27.9047 18.1822 27.9078C18.1805 27.9093 18.1791 27.9103 18.1782 27.9111L18.1768 27.9122L18.1723 27.9156C18.1461 27.9355 18.1091 27.93 18.0895 27.9032C18.0854 27.8975 18.0822 27.891 18.0802 27.8842L18.0781 27.8769C18.077 27.8723 18.0749 27.8654 18.0731 27.857C18.0709 27.8469 18.069 27.8368 18.0675 27.8266C18.0655 27.8138 18.0639 27.8008 18.0628 27.7879C18.0616 27.7738 18.0608 27.7586 18.0606 27.7427C18.0602 27.7268 18.0607 27.7102 18.0617 27.693C18.0627 27.6759 18.0644 27.6584 18.0668 27.6406C18.0691 27.6229 18.0723 27.6049 18.0761 27.5871C18.0799 27.5693 18.0844 27.5515 18.0897 27.5341C18.0917 27.5276 18.0939 27.5211 18.0961 27.5147C18.0898 27.5158 18.0835 27.5169 18.0771 27.518C18.0564 27.522 18.0355 27.5266 18.0144 27.5314C17.9932 27.5364 17.972 27.542 17.9507 27.5476C17.9296 27.5537 17.9084 27.5597 17.8875 27.566C17.8667 27.5725 17.8459 27.5786 17.8261 27.5853C17.806 27.5916 17.7868 27.5984 17.7683 27.6044L17.7167 27.6224C17.7092 27.6253 17.7017 27.6279 17.6941 27.6304C17.6869 27.6328 17.6811 27.6351 17.6749 27.637C17.669 27.639 17.6635 27.6406 17.6583 27.6429C17.6532 27.645 17.6488 27.6467 17.6451 27.648C17.6379 27.6507 17.6338 27.6519 17.6338 27.6519C17.628 27.6536 17.6219 27.6538 17.6159 27.6526C17.61 27.6513 17.6045 27.6486 17.5998 27.6447C17.5951 27.6409 17.5914 27.6359 17.589 27.6302C17.5866 27.6246 17.5856 27.6184 17.586 27.6122C17.586 27.6122 17.5863 27.6079 17.5874 27.6001C17.5879 27.5962 17.5886 27.5914 17.5896 27.5859C17.5901 27.5831 17.5903 27.5803 17.5914 27.5769L17.5944 27.5664C17.5965 27.559 17.5994 27.5506 17.6025 27.5421C17.6059 27.5329 17.6095 27.5239 17.6135 27.515C17.6182 27.505 17.6231 27.4952 17.6284 27.4855C17.6344 27.4749 17.6408 27.4645 17.6475 27.4543C17.6618 27.4334 17.6788 27.4115 17.6992 27.3907C17.7192 27.3695 17.7428 27.3497 17.7685 27.331C17.7954 27.312 17.8239 27.2955 17.8537 27.2818C17.8844 27.2681 17.917 27.2567 17.9506 27.2486C17.9844 27.241 18.0191 27.2363 18.0536 27.2353C18.0777 27.2348 18.1017 27.2361 18.1251 27.239C18.1209 27.2311 18.1162 27.2234 18.1111 27.216C18.108 27.2114 18.1041 27.2066 18.1005 27.2015C18.0963 27.1966 18.0923 27.1916 18.0877 27.1863C18.0789 27.176 18.0688 27.1654 18.0588 27.1549L18.0286 27.1238C18.0193 27.1143 18.0101 27.1046 18.001 27.0949C17.9927 27.0859 17.9854 27.0778 17.9793 27.0705C17.9727 27.0636 17.9678 27.0571 17.9643 27.0531C17.9625 27.0511 17.9613 27.0493 17.9604 27.0482L17.9591 27.0464L17.9563 27.0427C17.9529 27.0383 17.9506 27.033 17.9497 27.0274C17.9488 27.0219 17.9492 27.0161 17.9509 27.0108C17.9527 27.0054 17.9557 27.0006 17.9597 26.9967C17.9637 26.9928 17.9686 26.99 17.9739 26.9885C17.9739 26.9885 17.9765 26.9877 17.9813 26.9866C17.986 26.9856 17.9931 26.9837 18.0019 26.9821C18.0111 26.9807 18.0226 26.9787 18.0354 26.9776L18.0561 26.9758C18.0634 26.9752 18.071 26.9753 18.079 26.975C18.0871 26.9749 18.0956 26.9751 18.1045 26.9752C18.1133 26.9754 18.1225 26.9764 18.132 26.9771C18.1511 26.9793 18.1716 26.9823 18.1933 26.9883C18.2149 26.9939 18.2379 27.0019 18.2613 27.0139C18.2847 27.0255 18.3084 27.0411 18.331 27.0606C18.3365 27.0655 18.3421 27.0705 18.3477 27.0757C18.353 27.0811 18.3583 27.0866 18.3636 27.0922C18.3687 27.0979 18.3738 27.1037 18.3788 27.1097C18.3839 27.1156 18.3883 27.1218 18.393 27.128C18.4038 27.143 18.4136 27.1587 18.4218 27.1744C18.4292 27.1669 18.4368 27.1596 18.4451 27.1529C18.4586 27.1408 18.4734 27.1307 18.4884 27.1207C18.4961 27.116 18.5038 27.1115 18.5116 27.1071C18.5193 27.1025 18.5274 27.0991 18.5354 27.0952C18.5675 27.0804 18.6007 27.0696 18.6334 27.0638C18.6661 27.0578 18.6984 27.0554 18.729 27.057C18.7596 27.0584 18.7886 27.0628 18.8152 27.0699C18.8419 27.0766 18.8662 27.0862 18.8878 27.0965C18.9093 27.1072 18.9282 27.1185 18.9439 27.1305C18.9518 27.1365 18.959 27.1419 18.9654 27.1479C18.9718 27.1537 18.9774 27.1587 18.9828 27.1644C18.9875 27.1691 18.992 27.174 18.9963 27.179C18.9993 27.1832 19.0018 27.187 19.0038 27.1901C19.0059 27.1931 19.0073 27.1957 19.0084 27.1973L19.0099 27.1998C19.0131 27.205 19.015 27.2109 19.0154 27.217C19.0159 27.223 19.0149 27.2291 19.0125 27.2347C19.0102 27.2403 19.0065 27.2453 19.0019 27.2491C18.9973 27.253 18.9918 27.2556 18.986 27.2568L18.9831 27.2574C18.9813 27.2578 18.9784 27.2585 18.9749 27.2591C18.9713 27.2597 18.9669 27.2604 18.9618 27.2611C18.9572 27.2623 18.9522 27.2636 18.9468 27.2649C18.9416 27.2663 18.9351 27.2677 18.9284 27.2693C18.9251 27.2701 18.9217 27.2708 18.9182 27.2716L18.9072 27.2742C18.8924 27.2777 18.8761 27.2818 18.8591 27.2861C18.8421 27.2906 18.8244 27.2951 18.8064 27.3005C18.7974 27.303 18.7883 27.3056 18.7793 27.3084L18.7828 27.3102C18.7958 27.3167 18.8083 27.3253 18.8207 27.3334L18.8389 27.3456C18.8448 27.3499 18.8504 27.3548 18.8561 27.3593L18.8727 27.3731C18.8754 27.3754 18.8781 27.3776 18.8808 27.3799L18.8884 27.3874C18.8983 27.3974 18.9082 27.4067 18.917 27.4168C18.9251 27.4269 18.9331 27.437 18.9411 27.4472C18.943 27.4497 18.9449 27.4521 18.9466 27.4546L18.9516 27.4622C18.9549 27.4673 18.9582 27.4722 18.9612 27.4772L18.9699 27.4916C18.9729 27.4963 18.975 27.5013 18.9775 27.5059C18.9821 27.5154 18.9867 27.5242 18.9906 27.5328C18.9926 27.5369 18.9944 27.5413 18.996 27.5457L19.0008 27.558C19.0038 27.566 19.0067 27.5733 19.009 27.5802L19.0107 27.5852L19.0119 27.5898L19.014 27.5983C19.0168 27.609 19.0186 27.6177 19.0199 27.6235L19.0219 27.6325C19.0236 27.6406 19.0221 27.6491 19.0177 27.6561C19.0133 27.6631 19.0064 27.6681 18.9984 27.6698Z" fill="#7BB246"/>
<path id="Vector_59" d="M19.4205 28.5774C19.3502 28.5774 19.2853 28.5304 19.2644 28.4579C19.211 28.2729 19.1156 28.121 18.9956 28.0301C18.9234 27.9754 18.9081 27.8711 18.9617 27.7972C19.0152 27.7233 19.1172 27.7077 19.1895 27.7624C19.366 27.8961 19.5036 28.1097 19.5768 28.3638C19.6022 28.452 19.5529 28.5446 19.4666 28.5706C19.4517 28.5751 19.4361 28.5774 19.4205 28.5774Z" fill="#C0A519"/>
</g>
<g id="Group 138_2">
<path id="Vector_60" d="M31.081 12.1771C30.757 13.5507 29.2545 14.3585 27.7251 13.9812C26.1957 13.604 25.2185 12.1847 25.5425 10.811C25.8665 9.43743 27.369 8.62969 28.8984 9.00692C30.4278 9.38414 31.405 10.8035 31.081 12.1771Z" fill="#EF4D3C"/>
<path id="Vector_61" d="M29.4969 9.59955C29.4833 9.60262 29.469 9.60083 29.4565 9.59447L29.448 9.59015C29.448 9.59015 29.442 9.58708 29.4314 9.58083C29.421 9.57443 29.4049 9.5656 29.3862 9.55323C29.3814 9.55016 29.3763 9.54702 29.3712 9.54352L29.3634 9.53828L29.3553 9.53406C29.3442 9.52845 29.3331 9.52204 29.3211 9.51567C29.3087 9.50943 29.2979 9.50193 29.2837 9.49545C29.2699 9.48878 29.2563 9.48141 29.2419 9.4742C29.2346 9.47083 29.228 9.46625 29.2204 9.46323L29.1976 9.45353C29.1899 9.45038 29.1825 9.4468 29.175 9.44335L29.1637 9.43812C29.1599 9.43639 29.1557 9.43529 29.1517 9.43385C29.1356 9.42851 29.1202 9.42218 29.1044 9.41633C29.0881 9.41168 29.0718 9.40685 29.0556 9.40186L29.0436 9.39815C29.0394 9.39722 29.035 9.39647 29.0309 9.39543L29.0059 9.38958C28.9975 9.38774 28.9896 9.3853 28.9809 9.38387L28.955 9.37935L28.9295 9.37459L28.9231 9.37338L28.9163 9.37273L28.9029 9.37095L28.8764 9.36726C28.8675 9.36607 28.8591 9.36435 28.8495 9.36414C28.8403 9.36318 28.831 9.36236 28.8219 9.36121C28.8129 9.3597 28.8038 9.35864 28.795 9.35668C28.7768 9.35355 28.7576 9.35115 28.7395 9.34614C28.7302 9.34419 28.7214 9.34075 28.7121 9.33843C28.7027 9.33576 28.6932 9.33363 28.6838 9.33044C28.665 9.32488 28.6466 9.31734 28.6281 9.31028C28.609 9.30339 28.5901 9.2968 28.5715 9.2897C28.5528 9.28257 28.5346 9.27522 28.5159 9.26965C28.491 9.2617 28.4661 9.25354 28.4412 9.24518C28.4351 9.25254 28.4289 9.25979 28.4225 9.26691C28.4115 9.27828 28.4041 9.29036 28.3947 9.30109C28.3858 9.31196 28.3777 9.32225 28.3695 9.33161C28.363 9.34044 28.3563 9.34913 28.3495 9.35766C28.3445 9.36407 28.3394 9.37036 28.3341 9.37656C28.3287 9.39065 28.3231 9.40465 28.3172 9.41855C28.3069 9.44258 28.2961 9.46636 28.2848 9.4899C28.2819 9.49625 28.2786 9.50249 28.2755 9.50885C28.2724 9.51542 28.2691 9.52194 28.2658 9.5284C28.2448 9.56972 28.2224 9.61031 28.1988 9.65009C28.1661 9.70564 28.1312 9.75979 28.0942 9.81241C28.0759 9.83823 28.0575 9.86319 28.0389 9.88661C28.0214 9.90905 28.0034 9.93103 27.9849 9.95252C27.9499 9.9931 27.9176 10.0263 27.8934 10.0492C27.8816 10.0607 27.8709 10.0694 27.8644 10.0754C27.861 10.0785 27.8581 10.0806 27.8563 10.0821L27.8535 10.0842L27.8446 10.091C27.7922 10.1309 27.7181 10.1199 27.6791 10.0663C27.6708 10.0548 27.6645 10.0419 27.6605 10.0282L27.6563 10.0136C27.654 10.0044 27.6498 9.99069 27.6463 9.97379C27.6418 9.9537 27.638 9.93346 27.6349 9.9131C27.6309 9.88741 27.6278 9.86157 27.6257 9.83565C27.6233 9.8075 27.6216 9.77715 27.6212 9.74539C27.6205 9.71348 27.6213 9.68023 27.6233 9.64598C27.6253 9.61176 27.6288 9.57664 27.6335 9.54115C27.6383 9.50563 27.6445 9.46979 27.6522 9.43413C27.6598 9.39843 27.6687 9.36291 27.6795 9.32818C27.6835 9.31508 27.6877 9.30209 27.6922 9.28921C27.6796 9.29143 27.6669 9.29366 27.6542 9.29586C27.6129 9.30388 27.571 9.31304 27.5288 9.32274C27.4865 9.33268 27.4441 9.34394 27.4015 9.35517C27.3592 9.36738 27.3167 9.37926 27.2749 9.39179C27.2334 9.40492 27.1918 9.41702 27.1521 9.43047C27.112 9.4431 27.0737 9.45662 27.0366 9.46873L26.9334 9.5047C26.9185 9.51041 26.9034 9.51577 26.8883 9.52077C26.8739 9.52555 26.8622 9.53012 26.8498 9.53389C26.8379 9.53788 26.827 9.54113 26.8165 9.54572C26.8065 9.54995 26.7975 9.55324 26.7903 9.55589C26.7758 9.56123 26.7675 9.56363 26.7675 9.56363C26.7559 9.56701 26.7437 9.56747 26.7319 9.56499C26.7201 9.56251 26.709 9.55716 26.6996 9.54938C26.6903 9.5416 26.6829 9.53163 26.6781 9.52031C26.6733 9.50899 26.6712 9.49666 26.6721 9.48435C26.6721 9.48435 26.6727 9.47559 26.6748 9.46001C26.6758 9.4522 26.6772 9.4426 26.6792 9.43165C26.6803 9.42607 26.6807 9.42039 26.6827 9.41364L26.6888 9.39268C26.693 9.37787 26.6988 9.36101 26.705 9.34403C26.7118 9.32573 26.7191 9.30765 26.7269 9.28983C26.7363 9.26988 26.7463 9.2502 26.7567 9.23082C26.7688 9.20964 26.7816 9.18885 26.7949 9.16847C26.8236 9.12669 26.8576 9.08284 26.8983 9.04131C26.9385 8.99894 26.9855 8.95931 27.0371 8.92187C27.0908 8.88386 27.1478 8.85095 27.2074 8.82355C27.2689 8.7961 27.334 8.77333 27.4013 8.7571C27.4688 8.74184 27.5381 8.73241 27.6072 8.73044C27.6555 8.72951 27.7035 8.73199 27.7503 8.73792C27.7419 8.722 27.7325 8.70665 27.7222 8.69198C27.716 8.6827 27.7083 8.6731 27.701 8.66283C27.6926 8.65313 27.6846 8.64312 27.6755 8.63256C27.6578 8.61192 27.6375 8.59078 27.6177 8.56965L27.5572 8.50751C27.5387 8.48842 27.5203 8.46917 27.502 8.44977C27.4853 8.43161 27.4708 8.41557 27.4587 8.40098C27.4454 8.38701 27.4355 8.37406 27.4286 8.36609C27.4251 8.36211 27.4226 8.35846 27.4208 8.35622L27.4182 8.35275L27.4125 8.34532C27.4058 8.33639 27.4013 8.3259 27.3994 8.31476C27.3975 8.30362 27.3984 8.29219 27.4019 8.28146C27.4053 8.27074 27.4114 8.26106 27.4194 8.25328C27.4274 8.24549 27.4371 8.23985 27.4478 8.23684C27.4478 8.23684 27.453 8.23538 27.4625 8.23313C27.4721 8.2311 27.4862 8.22731 27.5038 8.22413C27.5222 8.22135 27.5452 8.21731 27.5709 8.21517L27.6121 8.2114C27.6267 8.21037 27.6419 8.21042 27.6581 8.20995C27.6742 8.20963 27.6912 8.2101 27.7089 8.21027C27.7266 8.21062 27.7449 8.21268 27.764 8.21405C27.8022 8.21852 27.8432 8.22449 27.8866 8.23643C27.9298 8.24777 27.9758 8.26369 28.0225 8.28764C28.0694 8.31092 28.1168 8.34214 28.1619 8.38099C28.1731 8.39088 28.1843 8.40097 28.1953 8.41129C28.206 8.42208 28.2167 8.43308 28.2272 8.44429C28.2374 8.45571 28.2476 8.46738 28.2576 8.47922C28.2677 8.49105 28.2766 8.50349 28.286 8.51588C28.3077 8.54597 28.3271 8.57719 28.3435 8.60871C28.3584 8.59368 28.3737 8.57902 28.3901 8.56566C28.4172 8.54157 28.4469 8.52138 28.4768 8.50122C28.4922 8.49195 28.5076 8.48291 28.5232 8.47409C28.5387 8.46489 28.5548 8.45811 28.5708 8.45023C28.6349 8.42069 28.7014 8.39912 28.7668 8.38749C28.8323 8.37541 28.8968 8.37066 28.9579 8.37389C29.0191 8.37663 29.0772 8.38542 29.1304 8.39968C29.1838 8.41316 29.2325 8.43224 29.2756 8.45287C29.3187 8.47423 29.3563 8.49692 29.3878 8.52093C29.4035 8.53293 29.4181 8.5436 29.4307 8.55573C29.4435 8.56734 29.4548 8.57733 29.4656 8.58876C29.4749 8.59814 29.4839 8.60787 29.4925 8.61796C29.4986 8.62634 29.5036 8.63391 29.5077 8.64008C29.5118 8.64609 29.5147 8.65125 29.5167 8.65452L29.5198 8.65955C29.5261 8.6699 29.5299 8.68165 29.5308 8.69381C29.5318 8.70597 29.5298 8.71817 29.5251 8.72937C29.5204 8.74058 29.5131 8.75045 29.5038 8.75815C29.4946 8.76585 29.4836 8.77114 29.472 8.77358L29.4663 8.77477C29.4625 8.7755 29.4569 8.77689 29.4498 8.77799C29.4426 8.77925 29.4338 8.78075 29.4236 8.78202C29.4144 8.78454 29.4044 8.78705 29.3936 8.78969C29.3832 8.79256 29.3702 8.79527 29.3569 8.79841C29.3501 8.80009 29.3434 8.8015 29.3363 8.80299L29.3144 8.80828C29.2847 8.81523 29.2521 8.82357 29.2182 8.83207C29.1842 8.84117 29.1487 8.85017 29.1127 8.86084C29.0947 8.86579 29.0766 8.87112 29.0585 8.87665L29.0656 8.88038C29.0915 8.89325 29.1167 8.91046 29.1413 8.92666L29.1777 8.95104C29.1895 8.95964 29.2009 8.96947 29.2122 8.97855L29.2454 9.00608C29.2508 9.01068 29.2563 9.0151 29.2615 9.01978L29.2767 9.03467C29.2966 9.05471 29.3165 9.07326 29.334 9.09343C29.3502 9.11359 29.3663 9.13391 29.3822 9.15438C29.3859 9.15937 29.3899 9.16403 29.3933 9.16914L29.4033 9.18439C29.4098 9.19449 29.4164 9.20425 29.4223 9.21421L29.4399 9.24315C29.4457 9.25248 29.45 9.2625 29.4549 9.27177C29.4643 9.29063 29.4733 9.30827 29.4812 9.32539C29.4853 9.33373 29.4888 9.34256 29.4921 9.35119L29.5016 9.37597C29.5076 9.39194 29.5134 9.40651 29.518 9.4203L29.5214 9.43032L29.5238 9.43946L29.528 9.45644C29.5336 9.47784 29.5371 9.49521 29.5399 9.50681L29.5438 9.52486C29.5472 9.54112 29.5442 9.55812 29.5354 9.57212C29.5266 9.58612 29.5128 9.59599 29.4969 9.59955Z" fill="#7BB246"/>
<path id="Vector_62" d="M30.3449 11.4149C30.2042 11.4149 30.0745 11.3209 30.0326 11.1759C29.926 10.8058 29.7351 10.502 29.4952 10.3203C29.3506 10.2108 29.3202 10.0022 29.4273 9.85437C29.5343 9.70653 29.7383 9.67543 29.8829 9.7849C30.236 10.0523 30.5111 10.4794 30.6576 10.9875C30.7084 11.164 30.6097 11.3492 30.4372 11.4012C30.4072 11.4102 30.3762 11.4149 30.3449 11.4149Z" fill="#C0A519"/>
</g>
<g id="Group 137">
<path id="Vector_63" d="M35.1052 20.6229C34.0888 21.5672 32.4084 21.3554 31.3517 20.1497C30.2951 18.9441 30.2624 17.2013 31.2787 16.257C32.2951 15.3127 33.9755 15.5246 35.0322 16.7302C36.0888 17.9358 36.1215 19.6786 35.1052 20.6229Z" fill="#EF4D3C"/>
<path id="Vector_64" d="M35.2028 17.5693C35.1899 17.5639 35.1792 17.5541 35.1723 17.5415L35.1677 17.533C35.1677 17.533 35.1644 17.5269 35.159 17.5156C35.1539 17.5042 35.1455 17.4875 35.1367 17.4664C35.1345 17.4611 35.132 17.4555 35.1297 17.4496L35.1261 17.4407L35.1217 17.4325C35.1156 17.4214 35.1099 17.4096 35.1035 17.3973C35.0966 17.3849 35.0919 17.3724 35.0837 17.3588C35.0759 17.3452 35.0687 17.3311 35.0607 17.3168C35.0565 17.3097 35.0536 17.3021 35.049 17.2951L35.0355 17.2738C35.0308 17.2667 35.0267 17.2594 35.0223 17.2522L35.0158 17.2412C35.0137 17.2376 35.0108 17.2343 35.0083 17.2308C34.9979 17.2169 34.9887 17.2027 34.9788 17.1886C34.9679 17.1753 34.9571 17.1618 34.9464 17.1482L34.9385 17.1381C34.9355 17.1348 34.9324 17.1317 34.9295 17.1284L34.9121 17.1089C34.9062 17.1025 34.901 17.0959 34.8946 17.0896L34.8757 17.0708L34.8572 17.0519L34.8526 17.0472L34.8474 17.0427L34.8373 17.0334L34.8174 17.0148C34.8107 17.0086 34.8047 17.0023 34.7969 16.9965C34.7898 16.9903 34.7826 16.9842 34.7757 16.978C34.7691 16.9714 34.7622 16.9653 34.7559 16.9585C34.7426 16.9452 34.7281 16.932 34.7159 16.9173C34.7093 16.9103 34.7039 16.9023 34.6975 16.895C34.6912 16.8872 34.6845 16.8799 34.6785 16.8718C34.666 16.8562 34.655 16.8393 34.6435 16.8226C34.6315 16.8057 34.6195 16.7893 34.608 16.7725C34.5965 16.7557 34.5855 16.739 34.5731 16.7235C34.5568 16.7023 34.5407 16.681 34.5248 16.6596C34.5157 16.6621 34.5066 16.6644 34.4975 16.6666C34.4822 16.6696 34.4695 16.6752 34.4559 16.6785C34.4426 16.6823 34.4304 16.6861 34.4185 16.689C34.4083 16.6925 34.398 16.6958 34.3877 16.6988C34.3801 16.7011 34.3725 16.7034 34.3648 16.7054C34.3526 16.7139 34.3403 16.7221 34.3279 16.7301C34.3063 16.744 34.2844 16.7573 34.2623 16.7701C34.2564 16.7736 34.2503 16.7769 34.2442 16.7803C34.2381 16.7839 34.2318 16.7874 34.2255 16.7908C34.1857 16.8126 34.1451 16.833 34.1039 16.852C34.0466 16.8788 33.9883 16.9031 33.9291 16.9248C33.8999 16.9354 33.8711 16.9453 33.843 16.9537C33.8164 16.9621 33.7895 16.9697 33.7625 16.9766C33.7115 16.9896 33.6667 16.9981 33.6343 17.0029C33.6182 17.0055 33.6047 17.0064 33.596 17.0075C33.5916 17.0081 33.588 17.0081 33.5857 17.0083L33.5823 17.0085L33.5712 17.0089C33.5062 17.0112 33.4511 16.9587 33.4481 16.8917C33.4475 16.8773 33.4493 16.863 33.4535 16.8494L33.4579 16.8349C33.4611 16.826 33.4651 16.8121 33.4714 16.7961C33.4787 16.7769 33.4866 16.758 33.4951 16.7394C33.5058 16.7159 33.5174 16.6927 33.5297 16.6701C33.5431 16.6454 33.5582 16.6194 33.5753 16.593C33.5921 16.5662 33.6109 16.5393 33.6312 16.5122C33.6515 16.4851 33.6735 16.4581 33.6968 16.4316C33.72 16.4051 33.7447 16.3791 33.7705 16.3542C33.7963 16.3292 33.823 16.3051 33.8508 16.2827C33.8613 16.2742 33.8718 16.266 33.8825 16.258C33.8709 16.2524 33.8592 16.2469 33.8475 16.2412C33.8091 16.2237 33.7695 16.2068 33.7294 16.1901C33.6891 16.1736 33.6479 16.158 33.6067 16.1424C33.5651 16.1278 33.5236 16.1127 33.4822 16.0986C33.4408 16.0852 33.3998 16.0709 33.3598 16.0588C33.3197 16.0457 33.2808 16.0345 33.2436 16.0228L33.1388 15.9921C33.1234 15.9881 33.108 15.9838 33.0928 15.979C33.0783 15.9746 33.0661 15.9715 33.0539 15.9674C33.0419 15.9637 33.0311 15.96 33.02 15.9577C33.0093 15.9553 33.0002 15.9528 32.9927 15.9507C32.9779 15.9466 32.9698 15.9438 32.9698 15.9438C32.9583 15.9398 32.948 15.933 32.9396 15.9241C32.9312 15.9151 32.925 15.9042 32.9215 15.8923C32.918 15.8804 32.9173 15.8679 32.9195 15.8557C32.9218 15.8436 32.9268 15.8322 32.9342 15.8225C32.9342 15.8225 32.9395 15.8157 32.9497 15.8041C32.9548 15.7982 32.9612 15.7911 32.9688 15.7832C32.9727 15.7792 32.9762 15.7748 32.9815 15.7704L32.998 15.7567C33.0095 15.7469 33.0235 15.7364 33.0379 15.726C33.0534 15.7148 33.0693 15.7042 33.0855 15.6941C33.1042 15.6831 33.1231 15.6727 33.1423 15.6628C33.1638 15.6524 33.1857 15.6427 33.2078 15.6337C33.2543 15.616 33.3063 15.5997 33.3625 15.5892C33.4187 15.5777 33.4791 15.5725 33.5421 15.5717C33.6072 15.5718 33.6722 15.578 33.7363 15.5902C33.802 15.6035 33.8682 15.6228 33.9326 15.6487C33.9966 15.6756 34.059 15.7083 34.117 15.7471C34.1574 15.7746 34.1956 15.8046 34.2311 15.8369C34.2328 15.8189 34.2334 15.8007 34.2329 15.7826C34.2328 15.7713 34.2317 15.7589 34.2313 15.7461C34.2297 15.7332 34.2286 15.7203 34.2267 15.7062C34.2234 15.6788 34.2182 15.6495 34.2133 15.6205L34.1974 15.5339C34.1924 15.5073 34.1877 15.4806 34.1832 15.4539C34.1794 15.4292 34.1761 15.4074 34.1741 15.3883C34.1708 15.369 34.1697 15.3526 34.1683 15.3419C34.1676 15.3366 34.1675 15.3321 34.1672 15.3292L34.167 15.3248L34.1664 15.3154C34.1656 15.3041 34.1676 15.2928 34.1722 15.2825C34.1767 15.2722 34.1836 15.2633 34.1924 15.2565C34.2011 15.2496 34.2113 15.2452 34.2222 15.2434C34.233 15.2417 34.2442 15.2427 34.2546 15.2465C34.2546 15.2465 34.2597 15.2483 34.2688 15.252C34.2777 15.2559 34.2915 15.2611 34.3078 15.2688C34.3244 15.2772 34.3456 15.2873 34.368 15.3006L34.4041 15.3216C34.4167 15.3293 34.4292 15.3382 34.4428 15.3473C34.4563 15.3564 34.4701 15.3667 34.4846 15.3772C34.499 15.3879 34.513 15.4003 34.528 15.4126C34.5571 15.4386 34.5877 15.4675 34.617 15.5027C34.6465 15.5374 34.6758 15.5774 34.7012 15.6245C34.7273 15.6711 34.7494 15.7246 34.7654 15.783C34.7692 15.7977 34.773 15.8126 34.7765 15.8276C34.7794 15.8427 34.7822 15.858 34.7848 15.8734C34.787 15.8888 34.789 15.9044 34.7908 15.9201C34.7927 15.9357 34.7933 15.9512 34.7943 15.9669C34.7958 16.0044 34.7948 16.0415 34.7912 16.0772C34.8116 16.0734 34.8322 16.0703 34.8531 16.0689C34.8886 16.0648 34.924 16.0655 34.9598 16.0664C34.9775 16.0677 34.9951 16.0693 35.0128 16.0711C35.0306 16.0726 35.0476 16.0764 35.0651 16.0792C35.1342 16.0924 35.2008 16.1134 35.2611 16.1421C35.3217 16.1704 35.3776 16.2042 35.4263 16.2426C35.4753 16.2806 35.5184 16.3218 35.5546 16.3647C35.5913 16.4071 35.621 16.4513 35.6454 16.4935C35.6693 16.5364 35.688 16.5771 35.7009 16.6153C35.7073 16.6344 35.7135 16.6517 35.7174 16.6691C35.7216 16.6862 35.7254 16.701 35.7281 16.7168C35.7307 16.73 35.7328 16.7433 35.7344 16.7566C35.7349 16.7671 35.7349 16.7763 35.7349 16.7837C35.735 16.7911 35.7346 16.7971 35.7345 16.801L35.7343 16.8069C35.7339 16.8191 35.7306 16.8311 35.7247 16.8416C35.7188 16.8522 35.7105 16.8611 35.7005 16.8676C35.6906 16.8741 35.6792 16.878 35.6673 16.8789C35.6555 16.8799 35.6436 16.8779 35.6326 16.873L35.6273 16.8707C35.6238 16.8691 35.6183 16.8669 35.6119 16.8637C35.6053 16.8606 35.5972 16.8566 35.5881 16.8517C35.5792 16.8485 35.5695 16.8446 35.5591 16.8405C35.549 16.8368 35.5368 16.8315 35.5241 16.8263C35.5176 16.8237 35.5112 16.8209 35.5046 16.818L35.4837 16.8096C35.4554 16.7979 35.4239 16.7858 35.3913 16.773C35.3583 16.7606 35.3241 16.7473 35.2885 16.735C35.271 16.7286 35.2531 16.7224 35.2352 16.7164L35.239 16.7236C35.2534 16.7494 35.2648 16.7783 35.2763 16.8061L35.293 16.8475C35.2981 16.8615 35.3021 16.8762 35.3064 16.8903L35.3189 16.9325C35.3208 16.9394 35.3229 16.9463 35.3247 16.9532L35.3291 16.9744C35.3346 17.0025 35.3409 17.0295 35.3443 17.0563C35.3468 17.0825 35.3489 17.1086 35.3509 17.1348C35.3513 17.1411 35.352 17.1473 35.352 17.1535L35.352 17.172C35.3519 17.1841 35.3519 17.196 35.3514 17.2077L35.3501 17.2419C35.3499 17.253 35.3479 17.2637 35.3469 17.2743C35.3444 17.2953 35.3422 17.3151 35.3394 17.3339C35.3382 17.3432 35.3363 17.3525 35.3343 17.3615L35.3287 17.3876C35.3249 17.4043 35.3217 17.4197 35.318 17.4337L35.3154 17.444L35.3123 17.4529L35.3066 17.4694C35.2995 17.4903 35.2929 17.5067 35.2889 17.5179L35.2823 17.5351C35.2762 17.5505 35.2645 17.5628 35.2496 17.5692C35.2347 17.5756 35.2179 17.5757 35.2028 17.5693Z" fill="#7BB246"/>
<path id="Vector_65" d="M34.9132 19.5646C34.7971 19.4823 34.7412 19.3289 34.7858 19.1847C34.8995 18.817 34.9076 18.4546 34.8087 18.1643C34.749 17.9894 34.8376 17.7995 35.0066 17.7401C35.1756 17.6806 35.3609 17.7742 35.4205 17.9491C35.5662 18.3763 35.5604 18.8896 35.4042 19.3947C35.35 19.57 35.1676 19.6652 34.9968 19.6072C34.9672 19.5972 34.939 19.5828 34.9132 19.5646Z" fill="#C0A519"/>
</g>
</g>
</svg>
