<svg width="15" height="15" viewBox="0 0 15 15" fill="none" xmlns="http://www.w3.org/2000/svg">
<g id="cil:pizza" clip-path="url(#clip0_99_561)">
<path id="Vector" d="M13.7201 3.10843C11.5697 1.67432 9.53722 0.964453 7.50683 0.938233C5.45078 0.912891 3.42267 1.54459 1.30568 2.87273C1.09833 3.0016 0.949764 3.20662 0.891858 3.44378C0.833952 3.68095 0.871325 3.93136 0.995957 4.14129L6.69671 13.8538C6.77844 13.9946 6.89573 14.1115 7.03685 14.1927C7.17797 14.274 7.33796 14.3167 7.50079 14.3167H7.50548C7.66751 14.3175 7.82692 14.2759 7.9679 14.196C8.10889 14.1162 8.22655 14.0009 8.30921 13.8615L14.0035 4.37086C14.1278 4.16439 14.1677 3.91795 14.1149 3.68281C14.0621 3.44766 13.9207 3.24193 13.7201 3.10843ZM13.1996 3.88843L7.50522 13.3792L1.80393 3.66688C3.72467 2.46179 5.55121 1.87503 7.38381 1.87503C7.42078 1.87503 7.45777 1.87526 7.49476 1.87573C9.33853 1.89952 11.2047 2.55791 13.1999 3.88843H13.1996Z" fill="white"/>
<path id="Vector_2" d="M6.55009 6.78187C6.52226 6.62361 6.44813 6.47715 6.33707 6.36102C6.22601 6.24489 6.08301 6.1643 5.92615 6.12945C5.76929 6.0946 5.60561 6.10704 5.45582 6.16521C5.30603 6.22338 5.17686 6.32467 5.08463 6.45625C4.99241 6.58784 4.94127 6.74382 4.9377 6.90447C4.93413 7.06512 4.97827 7.22322 5.06455 7.35878C5.15084 7.49434 5.27538 7.60126 5.42243 7.66604C5.56949 7.73081 5.73245 7.75052 5.8907 7.72268C6.10289 7.68535 6.29157 7.56526 6.41522 7.38883C6.53888 7.21239 6.58739 6.99407 6.55009 6.78187Z" fill="white"/>
<path id="Vector_3" d="M9.54374 8.9298C9.88428 8.63764 9.92351 8.12473 9.63135 7.78419C9.33919 7.44365 8.82629 7.40443 8.48574 7.69659C8.1452 7.98874 8.10598 8.50165 8.39814 8.84219C8.6903 9.18274 9.2032 9.22196 9.54374 8.9298Z" fill="white"/>
<path id="Vector_4" d="M6.26172 9.97034L6.86189 9.25013L8.26814 10.422L7.66794 11.1422L6.26172 9.97034ZM7.33472 5.65564L9.20972 4.95251L9.5389 5.83034L7.6639 6.53346L7.33472 5.65564Z" fill="white"/>
<path id="Vector_5" d="M3.5293 5.31968C4.50453 4.70782 6.00623 3.98459 7.65482 3.98459C7.67893 3.98459 7.70308 3.98475 7.72727 3.98506C9.1006 4.00264 10.3604 4.42451 11.692 5.31259L12.2121 4.53262C10.7231 3.53966 9.30187 3.06778 7.73935 3.04762C5.83353 3.02404 4.12739 3.83784 3.03125 4.52553L3.5293 5.31968Z" fill="white"/>
</g>
<defs>
<clipPath id="clip0_99_561">
<rect width="15" height="15" fill="white"/>
</clipPath>
</defs>
</svg>
