<svg width="15" height="15" viewBox="0 0 15 15" fill="none" xmlns="http://www.w3.org/2000/svg">
<path id="Vector" d="M8.71366 5.52925C11.0682 5.42025 13.6218 3.56275 13.6218 3.56275L12.2297 3.3045L15 1.65825C15 1.65825 11.7649 2.2215 10.1883 2.087C10.0181 1.88826 9.79125 1.73836 9.53387 1.6545C9.3819 1.60573 9.22232 1.58081 9.06162 1.58075C8.8054 1.58131 8.55388 1.64502 8.33252 1.76544C8.11116 1.88585 7.92781 2.05871 7.80103 2.2665C7.3502 2.1155 6.80268 2.062 6.23426 2.03975C5.79228 2.02525 5.33101 2.0275 4.8767 1.99925C4.76447 1.98925 4.65116 1.98275 4.53785 1.96925L4.19873 1.915C3.97488 1.8766 3.7522 1.8325 3.53093 1.78275C3.09725 1.6805 2.6917 1.54325 2.3424 1.3715C2.25898 1.32705 2.17585 1.28213 2.09301 1.23675C2.01211 1.19 1.943 1.1345 1.87014 1.08725C1.7271 0.992255 1.60067 0.885005 1.48897 0.790005C1.2661 0.596755 1.11422 0.402005 1.0877 0.242255C1.05448 0.0800052 1.13859 -0.000744823 1.12868 5.17638e-06C1.1394 5.17638e-06 1.04698 0.0740051 1.06948 0.244505C1.08502 0.413255 1.22779 0.624505 1.43995 0.835005C1.54816 0.939505 1.66549 1.052 1.80612 1.1595C1.87845 1.21375 1.94541 1.276 2.02524 1.327L2.27382 1.484C2.62232 1.68275 3.03269 1.8495 3.47119 1.9805C3.69085 2.045 3.91559 2.1015 4.14435 2.156L4.48802 2.23125C4.60535 2.252 4.72482 2.2665 4.84429 2.28325C5.31654 2.33975 5.77835 2.363 6.20989 2.39875C6.60794 2.43675 6.97947 2.4825 7.29502 2.564C7.22475 2.62342 7.16013 2.68841 7.10189 2.75825C6.39043 2.86475 5.31574 3.11 4.71732 3.654C4.69562 3.6735 4.67527 3.694 4.65544 3.71525C4.58821 3.73025 4.52392 3.74675 4.45963 3.763C4.26092 3.67513 4.05575 3.60061 3.84567 3.54C3.61343 3.46725 3.37557 3.435 3.14975 3.392C2.91938 3.37225 2.69679 3.3375 2.48249 3.34075C2.37641 3.33875 2.27168 3.33775 2.17096 3.336L1.8755 3.353C1.68505 3.358 1.50906 3.39 1.34726 3.40775C1.02582 3.4575 0.766255 3.5095 0.589998 3.56025C0.414276 3.607 0.314896 3.633 0.314896 3.633C0.314896 3.633 0.414276 3.6135 0.594016 3.577C0.772952 3.53775 1.03493 3.501 1.35583 3.4705C1.99309 3.42 2.89769 3.4265 3.77683 3.73625C3.88612 3.77325 3.99274 3.81525 4.09881 3.86175C3.56013 4.029 3.14493 4.24225 2.86126 4.50025C2.64696 4.6945 2.5299 4.9815 2.5208 5.316C1.98988 5.59375 1.61781 5.895 1.4145 6.21375C1.3119 6.37525 1.27065 6.568 1.29021 6.776C0.905011 7.10975 0.497851 7.551 0.357755 8.01125C0.292931 8.22675 0.324004 8.46525 0.443741 8.696C0.154175 9.14775 0.00416848 9.55075 0.000150451 9.89675C-0.00359971 10.08 0.0628318 10.2623 0.191141 10.4268C0.147746 10.894 0.150961 11.5703 0.428741 12.0358C0.509637 12.1733 0.635 12.2855 0.794917 12.3663C0.869117 12.9948 1.13243 13.8145 1.86479 14.616L2.21489 15L2.60009 14.6482C2.7509 14.5107 2.94028 14.255 3.02948 13.928C3.19701 13.9628 3.36969 13.9706 3.54004 13.951L3.95148 13.9018L3.98148 13.5123C3.98497 13.4733 3.99622 13.258 3.93354 12.9435C4.11385 12.9163 4.28668 12.8564 4.44222 12.767L4.88367 12.5178L4.61098 12.1058C4.58526 12.0678 4.03747 11.2533 3.05787 10.824C3.03162 10.6203 2.97028 10.405 2.87492 10.181C3.02251 9.902 3.11118 9.5605 3.14064 9.161C3.35092 8.971 3.53013 8.7185 3.68067 8.415C3.94586 8.7455 4.33186 9.0965 4.87242 9.3135C4.93965 9.33975 5.02724 9.3765 5.10841 9.2735C5.30047 9.4625 5.52307 9.78525 5.65888 10.326C5.71942 10.569 5.7012 10.7238 5.89728 10.7158C5.91484 10.7148 5.93199 10.7105 5.94764 10.703C6.02425 10.8623 6.1164 11.1148 6.14881 11.4705C6.14881 11.4705 6.39713 11.1123 6.30873 10.4708C6.32828 10.4725 6.34436 10.4713 6.36712 10.4758C6.66982 10.5298 6.10595 9.4505 5.32378 8.90075C5.41673 8.83825 5.4995 8.858 5.43521 8.718C5.31601 8.459 4.51883 8.443 3.90246 7.93225C4.13471 7.79325 4.35623 7.60325 4.56517 7.36175C4.60535 7.36175 4.64794 7.357 4.68946 7.35475C5.0251 7.6865 5.55361 8.07675 6.27578 8.21525C6.34784 8.22825 6.44213 8.24775 6.49865 8.131C6.72741 8.28025 7.0151 8.55425 7.26502 9.058C7.37726 9.28475 7.39226 9.4395 7.58244 9.3955C7.59926 9.39126 7.61501 9.38396 7.62879 9.374C7.73808 9.51525 7.88273 9.74575 7.99148 10.0878C7.99148 10.0878 8.15729 9.6895 7.93228 9.07775C7.9513 9.07575 7.96711 9.07175 7.99041 9.0715C8.29846 9.06725 7.51387 8.11675 6.62937 7.7255C6.70571 7.647 6.7917 7.65075 6.69901 7.52625C6.55678 7.3355 5.99773 7.39375 5.40682 7.205C5.72424 7.09175 6.04863 6.91825 6.37757 6.6815C6.77348 6.94125 7.35502 7.214 8.06863 7.2235C8.14042 7.22425 8.23685 7.22725 8.27006 7.10275C8.52427 7.21 8.86125 7.42925 9.20707 7.881C9.36217 8.08375 9.40744 8.2325 9.58584 8.157C9.60172 8.14996 9.61579 8.13982 9.62709 8.12725C9.76317 8.24725 9.95014 8.44875 10.1251 8.7655C10.1251 8.7655 10.2089 8.3455 9.86656 7.78375C9.88478 7.7785 9.89897 7.7715 9.92174 7.7675C10.2236 7.71025 9.26439 6.91225 8.31801 6.68175C8.37721 6.5915 8.46186 6.5805 8.34587 6.47425C8.1822 6.3235 7.71129 6.44225 7.15386 6.39675C7.63039 6.24775 8.12193 5.959 8.62365 5.52875C8.65338 5.529 8.68339 5.53075 8.71366 5.52925ZM8.04372 2.6165C8.11671 2.41868 8.254 2.24703 8.43645 2.12546C8.6189 2.00389 8.83744 1.93845 9.06162 1.93825C9.1776 1.93825 9.29493 1.9555 9.41011 1.99275C9.67993 2.08002 9.90165 2.2636 10.0266 2.50323C10.1516 2.74286 10.1697 3.01897 10.0768 3.271C10.0044 3.46869 9.86767 3.64032 9.68566 3.76193C9.50364 3.88353 9.28546 3.94902 9.06162 3.94925C8.89005 3.94925 8.72096 3.91097 8.56844 3.83763C8.41593 3.76429 8.2844 3.65799 8.18481 3.5276C8.08522 3.39721 8.02046 3.2465 7.99592 3.08802C7.97137 2.92954 7.98776 2.76788 8.04372 2.6165ZM0.868581 11.803C0.604463 11.3588 0.677323 10.5685 0.717771 10.2668C0.716164 10.265 0.713753 10.2635 0.712682 10.2618C0.746165 10.2785 1.39923 10.6045 1.94863 10.4525C2.10908 10.8278 2.27596 11.5948 1.25672 12.018C1.07939 11.9855 0.934209 11.9128 0.868581 11.803ZM3.31851 11.9085C3.07073 11.9585 2.49937 11.8548 2.49937 11.8548C3.17199 12.484 3.47602 13.4778 3.47602 13.4778C2.55508 13.1415 2.23096 12.5698 2.23096 12.5698C2.34454 13.186 2.24784 14.3055 2.24784 14.3055C1.49325 13.4783 1.29342 12.6383 1.27521 12.022L1.26422 12.0193C1.37378 12.0245 2.50553 12.0603 2.61803 11.264C3.06136 11.547 3.31851 11.9085 3.31851 11.9085ZM5.02269 5.1095C5.02269 5.1095 5.29485 5.655 5.85978 5.918C4.5858 6.7895 3.05118 5.59425 3.05118 5.59425C3.28583 6.19375 3.58209 6.5475 3.90461 6.736C2.99305 7.77175 1.85032 6.9495 1.85032 6.9495C2.26391 7.43775 2.64053 7.6535 2.97403 7.703C2.76697 8.23675 2.21864 9.18975 1.04752 8.6945C1.04752 8.6945 1.61486 9.0875 2.2165 9.04225C2.20123 9.417 2.0322 10.3463 0.711074 10.2605C0.583033 10.1523 0.50294 10.0258 0.505351 9.90475C0.512851 9.49875 0.823044 9.00275 1.04725 8.69525C0.8801 8.51275 0.794917 8.3055 0.844473 8.1425C0.982426 7.6855 1.51361 7.212 1.85005 6.94925C1.77692 6.764 1.76942 6.584 1.84898 6.4595C2.08792 6.08425 2.65205 5.77675 3.05064 5.595C2.99198 5.285 3.04127 4.99875 3.21243 4.844C3.5762 4.51375 4.20007 4.31 4.73232 4.18875C4.83331 4.24775 4.93322 4.309 5.03207 4.372C5.23565 4.5005 5.43896 4.629 5.63879 4.7545C5.84157 4.87975 6.05586 4.98875 6.25837 5.10175C6.42525 5.192 6.60205 5.2855 6.79384 5.358C6.27417 5.5385 5.63102 5.57725 5.02269 5.1095ZM7.62343 4.73925C7.56236 5.0255 7.2985 5.1035 7.01537 5.01925C6.83482 4.97075 6.64383 4.882 6.43409 4.78125C6.23533 4.68225 6.02666 4.591 5.82148 4.47975C5.61495 4.3645 5.4119 4.24625 5.19573 4.1305C5.14109 4.1 5.0843 4.071 5.02885 4.04125C5.04224 4.026 5.0543 4.0105 5.06903 3.997C5.66022 3.45875 6.94519 3.25625 7.39547 3.2C7.45869 3.098 7.53101 3.01575 7.61057 2.9455C7.61057 3.14875 7.65423 3.35125 7.75147 3.53925C7.8346 3.70082 7.95136 3.84532 8.09494 3.96434C8.23852 4.08336 8.40605 4.17452 8.58776 4.2325C8.74044 4.28175 8.90036 4.307 9.06162 4.307C9.36467 4.30653 9.66 4.2177 9.90632 4.05293C10.1526 3.88816 10.3377 3.65569 10.4355 3.388C10.5342 3.11991 10.5401 2.82965 10.4524 2.55825C11.4106 2.69875 13.4298 2.212 13.4298 2.212L11.1202 3.46675L12.5485 3.77525C12.5485 3.77525 8.69383 6.1705 7.23234 3.53875C7.08716 3.93275 7.19323 4.41975 7.62343 4.73925Z" fill="white"/>
</svg>
