<svg width="9" height="9" viewBox="0 0 9 9" fill="none" xmlns="http://www.w3.org/2000/svg">
<path d="M5.45311 3.07696C6.75458 3.01672 8.16605 1.99 8.16605 1.99L7.39657 1.84726L8.92783 0.937306C8.92783 0.937306 7.13968 1.24864 6.26819 1.17429C6.17411 1.06444 6.04874 0.981582 5.90648 0.935233C5.82248 0.908273 5.73427 0.894498 5.64544 0.894469C5.50382 0.894775 5.3648 0.92999 5.24244 0.99655C5.12009 1.06311 5.01874 1.15865 4.94866 1.27351C4.69947 1.19005 4.39684 1.16048 4.08265 1.14818C3.83835 1.14016 3.58338 1.14141 3.33227 1.12579C3.27023 1.12026 3.2076 1.11667 3.14497 1.10921L2.95753 1.07922C2.8338 1.058 2.71071 1.03362 2.58841 1.00612C2.34869 0.949605 2.12453 0.873741 1.93146 0.778808C1.88535 0.754234 1.8394 0.729407 1.79361 0.704326C1.7489 0.678486 1.7107 0.647808 1.67042 0.621691C1.59136 0.569181 1.52147 0.5099 1.45973 0.457389C1.33654 0.350572 1.25259 0.242926 1.23793 0.154626C1.21957 0.0649436 1.26607 0.0203097 1.26059 0.0207243C1.26651 0.0207243 1.21543 0.0616271 1.22787 0.155869C1.23645 0.249144 1.31537 0.365911 1.43264 0.482263C1.49245 0.540024 1.5573 0.602207 1.63504 0.661627C1.67501 0.691613 1.71203 0.726021 1.75615 0.754211L1.89355 0.840991C2.08618 0.950848 2.31301 1.04302 2.55539 1.11543C2.6768 1.15108 2.80102 1.18231 2.92747 1.21243L3.11743 1.25403C3.18228 1.2655 3.24832 1.27351 3.31435 1.28277C3.57539 1.314 3.83065 1.32685 4.06917 1.34661C4.28919 1.36761 4.49456 1.3929 4.66897 1.43795C4.63013 1.47079 4.59441 1.50672 4.56222 1.54532C4.16897 1.60419 3.57494 1.73975 3.24417 2.04044C3.23218 2.05122 3.22093 2.06255 3.20997 2.07429C3.17281 2.08258 3.13727 2.0917 3.10174 2.10069C2.9919 2.05212 2.8785 2.01093 2.76238 1.97743C2.63401 1.93721 2.50253 1.91939 2.37771 1.89562C2.25038 1.8847 2.12734 1.8655 2.00889 1.86729C1.95026 1.86619 1.89237 1.86563 1.8367 1.86467L1.67338 1.87406C1.56811 1.87683 1.47083 1.89451 1.38141 1.90433C1.20373 1.93182 1.06026 1.96057 0.962834 1.98862C0.865706 2.01446 0.810775 2.02883 0.810775 2.02883C0.810775 2.02883 0.865706 2.01805 0.965055 1.99788C1.06396 1.97618 1.20877 1.95587 1.38614 1.93901C1.73838 1.9111 2.23839 1.91469 2.72433 2.0859C2.78474 2.10635 2.84367 2.12957 2.9023 2.15527C2.60455 2.24772 2.37505 2.36559 2.21825 2.50819C2.0998 2.61556 2.0351 2.7742 2.03007 2.95909C1.73661 3.11262 1.53095 3.27913 1.41857 3.45532C1.36186 3.54458 1.33906 3.65112 1.34987 3.76609C1.13696 3.95057 0.911901 4.19447 0.834465 4.44887C0.798634 4.56798 0.815809 4.69981 0.881993 4.82736C0.721938 5.07706 0.639023 5.29981 0.636802 5.49106C0.634729 5.59235 0.671448 5.69309 0.74237 5.78401C0.718384 6.04228 0.720161 6.41607 0.873701 6.67337C0.918416 6.74937 0.987709 6.81142 1.0761 6.85605C1.11711 7.20345 1.26266 7.65656 1.66746 8.09958L1.86098 8.31183L2.07389 8.1174C2.15725 8.0414 2.26193 7.90004 2.31123 7.71929C2.40383 7.73854 2.49928 7.74284 2.59344 7.73201L2.82086 7.70478L2.83745 7.48949C2.83937 7.46794 2.84559 7.34896 2.81094 7.17512C2.91061 7.16011 3.00614 7.12696 3.09211 7.07756L3.33612 6.93979L3.18539 6.71206C3.17118 6.69106 2.86839 6.24085 2.32693 6.00359C2.31242 5.89097 2.27851 5.77199 2.2258 5.64818C2.30739 5.49396 2.35639 5.3052 2.37268 5.08438C2.48891 4.97936 2.58796 4.83979 2.67117 4.67204C2.81775 4.85472 3.03111 5.04873 3.3299 5.16867C3.36706 5.18318 3.41548 5.2035 3.46034 5.14656C3.5665 5.25103 3.68954 5.42943 3.76461 5.72832C3.79807 5.86264 3.78801 5.94817 3.89639 5.94375C3.90609 5.94324 3.91557 5.94084 3.92422 5.93671C3.96657 6.02473 4.0175 6.1643 4.03542 6.36093C4.03542 6.36093 4.17267 6.16291 4.12381 5.80833C4.13462 5.8093 4.1435 5.80861 4.15609 5.8111C4.3234 5.84094 4.01173 5.2444 3.57939 4.94053C3.63076 4.90598 3.67651 4.9169 3.64098 4.83952C3.57509 4.69636 3.13446 4.68751 2.79377 4.4052C2.92214 4.32837 3.04459 4.22335 3.16007 4.08986C3.18228 4.08986 3.20583 4.08724 3.22878 4.08599C3.4143 4.26936 3.70642 4.48507 4.1056 4.56163C4.14543 4.56881 4.19754 4.57959 4.22879 4.51506C4.35523 4.59755 4.51425 4.749 4.65239 5.02745C4.71443 5.15278 4.72272 5.23832 4.82784 5.214C4.83714 5.21166 4.84585 5.20762 4.85346 5.20211C4.91387 5.28019 4.99382 5.4076 5.05393 5.59663C5.05393 5.59663 5.14559 5.3765 5.02121 5.03836C5.03173 5.03726 5.04046 5.03505 5.05334 5.03491C5.22361 5.03256 4.78994 4.50718 4.30104 4.29092C4.34324 4.24753 4.39077 4.2496 4.33954 4.18079C4.26092 4.07535 3.95191 4.10755 3.62528 4.00322C3.80074 3.94062 3.98004 3.84472 4.16186 3.71386C4.3807 3.85743 4.70214 4.00819 5.09658 4.01345C5.13626 4.01386 5.18956 4.01552 5.20792 3.9467C5.34843 4.00598 5.53469 4.12717 5.72584 4.37687C5.81157 4.48894 5.83659 4.57116 5.9352 4.52943C5.94398 4.52554 5.95175 4.51993 5.958 4.51298C6.03322 4.57931 6.13656 4.69069 6.23325 4.86577C6.23325 4.86577 6.27959 4.63362 6.09037 4.32312C6.10044 4.32022 6.10828 4.31635 6.12087 4.31414C6.28774 4.28249 5.75753 3.8414 5.23442 3.714C5.26714 3.66411 5.31393 3.65803 5.24982 3.5993C5.15936 3.51598 4.89906 3.58162 4.59095 3.55647C4.85435 3.47411 5.12604 3.31451 5.40336 3.07669C5.4198 3.07683 5.43638 3.07779 5.45311 3.07696ZM5.08281 1.46697C5.12316 1.35763 5.19904 1.26275 5.29989 1.19555C5.40074 1.12835 5.52153 1.09218 5.64544 1.09207C5.70955 1.09207 5.7744 1.10161 5.83807 1.1222C5.98721 1.17043 6.10976 1.27191 6.17885 1.40436C6.24794 1.53681 6.25792 1.68943 6.2066 1.82874C6.16658 1.93801 6.09098 2.03288 5.99037 2.10009C5.88977 2.16731 5.76917 2.20351 5.64544 2.20363C5.55061 2.20363 5.45715 2.18248 5.37285 2.14194C5.28854 2.1014 5.21584 2.04264 5.1608 1.97057C5.10575 1.8985 5.06995 1.81519 5.05639 1.72759C5.04282 1.64 5.05188 1.55064 5.08281 1.46697ZM1.11682 6.54472C0.97083 6.29917 1.0111 5.86236 1.03346 5.69557C1.03257 5.69461 1.03124 5.69378 1.03065 5.69281C1.04915 5.70207 1.41013 5.88226 1.7138 5.79824C1.80249 6.00566 1.89474 6.42961 1.33136 6.66356C1.23334 6.6456 1.15309 6.60538 1.11682 6.54472ZM2.47099 6.60303C2.33404 6.63067 2.01822 6.57332 2.01822 6.57332C2.39 6.92114 2.55805 7.47042 2.55805 7.47042C2.04902 7.28456 1.86986 6.96853 1.86986 6.96853C1.93264 7.30916 1.87919 7.92795 1.87919 7.92795C1.4621 7.4707 1.35165 7.0064 1.34158 6.66577L1.33551 6.66425C1.39606 6.66715 2.02163 6.68691 2.08381 6.24679C2.32885 6.40322 2.47099 6.60303 2.47099 6.60303ZM3.41296 2.84495C3.41296 2.84495 3.5634 3.14647 3.87566 3.29184C3.17147 3.77356 2.32323 3.11289 2.32323 3.11289C2.45293 3.44426 2.61669 3.63979 2.79495 3.74398C2.2911 4.31649 1.65947 3.86199 1.65947 3.86199C1.88807 4.13187 2.09625 4.25112 2.28059 4.27848C2.16613 4.57351 1.86305 5.10027 1.21572 4.82653C1.21572 4.82653 1.52932 5.04375 1.86187 5.01874C1.85343 5.22588 1.76 5.73952 1.02976 5.69212C0.958985 5.63228 0.914714 5.56236 0.916047 5.49548C0.920193 5.27107 1.09165 4.99691 1.21558 4.82694C1.12319 4.72607 1.0761 4.61151 1.10349 4.52141C1.17975 4.26881 1.47335 4.00709 1.65932 3.86186C1.6189 3.75946 1.61475 3.65997 1.65873 3.59115C1.7908 3.38374 2.10262 3.21377 2.32293 3.11331C2.29051 2.94196 2.31775 2.78374 2.41236 2.6982C2.61343 2.51566 2.95827 2.40304 3.25247 2.33602C3.30828 2.36863 3.36351 2.40248 3.41815 2.43731C3.53067 2.50833 3.64305 2.57936 3.75351 2.64873C3.86559 2.71796 3.98404 2.77821 4.09597 2.84067C4.18822 2.89055 4.28594 2.94223 4.39195 2.98231C4.10471 3.08208 3.74921 3.1035 3.41296 2.84495ZM4.8505 2.6403C4.81674 2.79852 4.6709 2.84164 4.5144 2.79507C4.4146 2.76826 4.30904 2.7192 4.1931 2.66351C4.08324 2.60879 3.9679 2.55836 3.85449 2.49686C3.74033 2.43316 3.6281 2.3678 3.50861 2.30382C3.47841 2.28696 3.44702 2.27093 3.41637 2.25449C3.42377 2.24606 3.43044 2.23749 3.43858 2.23003C3.76535 1.93252 4.4756 1.82059 4.7245 1.78949C4.75944 1.73311 4.79942 1.68765 4.84339 1.64882C4.84339 1.76117 4.86752 1.8731 4.92127 1.97701C4.96722 2.06631 5.03176 2.14619 5.11112 2.21197C5.19048 2.27776 5.28308 2.32815 5.38352 2.3602C5.46792 2.38742 5.55631 2.40138 5.64544 2.40138C5.81295 2.40111 5.97619 2.35201 6.11234 2.26094C6.2485 2.16987 6.35076 2.04137 6.40485 1.89341C6.45938 1.74522 6.46265 1.58479 6.41418 1.43477C6.9438 1.51243 8.05989 1.24339 8.05989 1.24339L6.7833 1.93694L7.57277 2.10746C7.57277 2.10746 5.44215 3.43141 4.63433 1.97673C4.55408 2.19451 4.61271 2.4637 4.8505 2.6403Z" fill="black"/>
</svg>
