<svg width="20" height="20" viewBox="0 0 20 20" fill="none" xmlns="http://www.w3.org/2000/svg">
<path d="M11.8758 8.75C11.8758 9.20573 11.9344 9.74609 12.0516 10.3711C12.0646 10.4362 12.172 10.6673 12.3738 11.0645C12.5756 11.4616 12.7514 11.9401 12.9011 12.5C13.0508 13.0599 13.1257 13.6849 13.1257 14.375H11.8758C11.8758 14.362 11.866 14.2448 11.8465 14.0234C11.827 13.8021 11.8009 13.571 11.7684 13.3301C11.7358 13.0892 11.6968 12.8288 11.6512 12.5488C11.6056 12.2689 11.5503 12.0085 11.4852 11.7676C11.4201 11.5267 11.342 11.3542 11.2509 11.25C10.9514 10.9375 10.7724 10.6283 10.7138 10.3223C10.6552 10.0163 10.6259 9.49219 10.6259 8.75C10.6259 7.70833 10.87 6.82292 11.3583 6.09375C11.8465 5.36458 12.4356 5 13.1257 5C13.321 5 13.5293 5.03906 13.7506 5.11719C13.2038 5.33854 12.7546 5.78125 12.4031 6.44531C12.0516 7.10938 11.8758 7.8776 11.8758 8.75ZM8.12616 3.98438C8.12616 4.47917 8.18475 5.05859 8.30192 5.72266C9.018 6.52995 9.37604 7.6237 9.37604 9.00391C9.37604 11.2826 9.16772 12.8646 8.7511 13.75C8.33447 11.862 8.12616 10.2799 8.12616 9.00391C8.12616 8.0013 8.06757 7.42188 7.9504 7.26562C7.23432 6.45833 6.87628 5.36458 6.87628 3.98438C6.87628 2.89062 7.1204 1.95312 7.60863 1.17188C8.09687 0.390625 8.686 0 9.37604 0C9.57133 0 9.77964 0.0455729 10.001 0.136719C9.45415 0.358073 9.00498 0.826823 8.65345 1.54297C8.30192 2.25911 8.12616 3.07292 8.12616 3.98438ZM16.5042 17.5977C16.2308 18.2487 15.8761 18.8118 15.4399 19.2871C15.0037 19.7624 14.5448 20 14.0631 20H5.93887C5.45715 20 4.99496 19.7591 4.55229 19.2773C4.10962 18.7956 3.75159 18.2227 3.47818 17.5586C3.25684 17.4284 2.92484 17.2396 2.48218 16.9922C2.03951 16.7448 1.70752 16.556 1.48618 16.4258C1.26485 16.2956 1.01748 16.1361 0.744068 15.9473C0.470657 15.7585 0.275364 15.5892 0.158188 15.4395C0.0410116 15.2897 -0.0110666 15.1432 0.00195293 15H20C20 15.1953 19.9414 15.3841 19.8242 15.5664C19.7071 15.7487 19.515 15.931 19.2481 16.1133C18.9812 16.2956 18.7306 16.4486 18.4962 16.5723C18.2619 16.696 17.9331 16.8652 17.51 17.0801C17.0869 17.2949 16.7516 17.4674 16.5042 17.5977Z" fill="#282B30"/>
</svg>
