<svg width="9" height="9" viewBox="0 0 9 9" fill="none" xmlns="http://www.w3.org/2000/svg">
<g clip-path="url(#clip0_236_3767)">
<path d="M5.49699 3.68447C5.42159 3.46009 5.30655 3.37977 5.17351 3.37977C5.01131 3.37977 4.82217 3.49883 4.6443 3.62216C4.53846 3.69574 4.1287 4.14825 3.90523 4.14825C3.87962 4.14894 3.85445 4.14151 3.83333 4.12701C3.61517 3.97259 3.88851 3.29971 3.88851 2.977C3.88851 2.66466 3.83177 2.54535 3.74484 2.54535C3.50453 2.54535 3.03375 3.46035 2.90252 3.72437C2.86547 3.79886 2.81378 3.82827 2.7538 3.82827C2.54406 3.82827 2.23211 3.46748 2.08882 3.41216C2.06745 3.40348 2.04465 3.39883 2.02159 3.39843C1.78218 3.39843 1.78736 3.99396 1.79099 4.15201C1.92184 4.11626 2.04452 4.09423 2.15179 4.09423C2.42215 4.09423 2.59406 4.23427 2.54924 4.64533C2.53914 4.7377 2.48071 5.03203 2.57632 5.09694C2.59166 5.10692 2.60971 5.11194 2.62801 5.11132C2.73825 5.11132 2.91288 4.97542 2.97779 4.93397C3.0651 4.878 3.15669 4.83706 3.23416 4.83706C3.32744 4.83706 3.40025 4.89627 3.4211 5.06015C3.43354 5.15718 3.38599 5.52639 3.48108 5.58534C3.49503 5.59374 3.51105 5.59809 3.52733 5.5979C3.70287 5.5979 4.00252 5.15925 4.13815 5.10899C4.20184 5.0854 4.26923 5.07342 4.33714 5.07362C4.5176 5.07362 4.68925 5.15329 4.86479 5.22066C4.89433 5.23206 4.91842 5.23698 4.93799 5.23698C5.04409 5.23698 5.01325 5.08968 4.92244 4.9955C4.79017 4.85766 4.5803 4.91816 4.43314 4.81944C4.2462 4.69404 4.50646 4.44207 4.60751 4.36732C4.72812 4.27793 4.99551 4.13426 5.20887 4.13426C5.30772 4.13426 5.3949 4.16509 5.45035 4.24619C5.55516 4.39945 5.38078 4.59299 5.42483 4.76503C5.44336 4.83642 5.48818 4.86103 5.54129 4.86103C5.65439 4.86103 5.80428 4.74936 5.81464 4.73874C5.88358 4.66711 5.95775 4.60073 6.03656 4.54014C5.64273 4.45295 5.60931 4.01948 5.49699 3.68447Z" fill="black"/>
<path d="M2.26827 3.3616C2.26827 3.3616 2.60885 3.66203 2.75433 3.66203C2.78219 3.66203 2.80304 3.65102 2.81276 3.62433C3.02211 3.05108 3.46478 2.39595 3.7538 2.39595C3.87985 2.39595 3.97662 2.5207 4.01186 2.83162C4.05746 3.23413 3.77906 3.84417 3.91289 3.98318C3.9158 3.98612 3.9193 3.98843 3.92316 3.98995C3.92702 3.99146 3.93115 3.99216 3.9353 3.99199C4.0857 3.99199 4.67994 3.23102 5.18855 3.23102C5.22769 3.23092 5.26669 3.23575 5.30463 3.2454C5.76284 3.3629 5.56424 4.14421 5.93618 4.36742C5.99776 4.40493 6.06837 4.42503 6.14047 4.42559C6.27754 4.42559 6.40268 4.34747 6.43261 4.18592C6.50813 3.7781 5.21291 2.9876 5.91363 2.9876C6.01416 2.9876 6.15576 3.00379 6.34827 3.03981C6.46292 2.25422 6.42289 2.03645 6.32029 2.03645C6.2033 2.03645 6.00484 2.31926 5.86039 2.36797C5.85621 2.36937 5.85184 2.37011 5.84743 2.37017C5.76491 2.37017 5.76776 2.07298 5.62655 2.07298C5.53535 2.07298 5.38417 2.19696 5.11134 2.60452C4.97065 2.81478 4.86533 2.89795 4.78216 2.89795C4.4658 2.89795 4.47474 1.68784 4.09516 1.68784C4.01847 1.68784 3.92597 1.73719 3.81171 1.85573C3.6363 2.03788 3.47255 2.10239 3.31929 2.10239C2.94607 2.10239 2.63683 1.71906 2.38331 1.71906C2.2833 1.71906 2.1917 1.77878 2.10853 1.94564C1.93636 2.29166 2.51933 2.27378 2.26827 3.3616ZM2.7143 3.51732C2.64616 3.48675 2.52516 3.40487 2.41168 3.3116C2.43266 3.20887 2.44562 3.11663 2.45313 3.03164C2.48513 2.97801 2.52451 2.92515 2.57258 2.87619C2.76832 2.67655 3.01913 2.61346 3.14207 2.72876C2.96679 2.97037 2.8125 3.26613 2.7143 3.51732ZM5.59171 3.0025C5.52771 3.15394 5.6522 3.3138 5.84277 3.52276C5.82948 3.53729 5.81401 3.54966 5.79691 3.55942C5.77876 3.56949 5.75906 3.57645 5.73861 3.58002C5.67798 3.37534 5.57629 3.17881 5.33624 3.11728C5.30096 3.10866 5.26497 3.10333 5.22871 3.10134C5.16368 2.88992 5.19386 2.69132 5.31706 2.62266C5.45283 2.54661 5.65078 2.65518 5.7859 2.86582C5.71063 2.8802 5.62876 2.91492 5.59171 3.0025Z" fill="black"/>
<path d="M6.55516 4.18883C6.52679 4.37421 6.79625 4.40737 6.66748 4.71104C6.60141 4.86636 6.04189 5.22444 6.08309 5.30281C6.1441 5.41746 6.21743 5.46203 6.29166 5.46203C6.43857 5.46203 6.5882 5.28766 6.64844 5.1366C6.72733 4.93904 6.74767 4.42046 6.93992 4.32433C6.97244 4.30788 7.00457 4.30063 7.03631 4.30063C7.2261 4.30063 7.40345 4.55726 7.57445 4.59198C7.61617 4.40621 7.58637 4.21344 7.62886 4.02663C6.90702 4.01756 8.02994 3.03105 7.38829 2.62854C7.3537 2.60691 7.32468 2.59719 7.29929 2.59732C7.09732 2.59732 7.14435 3.21579 6.63406 3.21579C6.59338 3.21579 6.54894 3.21177 6.50062 3.20322C6.31394 3.17032 6.18504 3.15503 6.10071 3.15503C5.6092 3.15529 6.63484 3.67232 6.55516 4.18883Z" fill="black"/>
<path d="M7.83449 3.21963C7.85289 3.10836 7.85386 2.9949 7.83734 2.88333C7.79096 2.57254 7.54806 2.31966 7.29596 2.31953C7.20981 2.31953 7.00356 2.35542 6.90601 2.66154C6.84041 2.63413 6.7742 2.60821 6.70742 2.58381C6.76507 2.19581 6.74343 1.92985 6.63992 1.79395C6.61495 1.75995 6.58231 1.73233 6.54465 1.71333C6.50699 1.69433 6.46537 1.68449 6.42319 1.68461C6.28768 1.68461 6.13546 1.7753 5.94632 1.96923L5.93945 1.95084C5.89929 1.84227 5.83219 1.66065 5.65211 1.66065C5.52904 1.66065 5.36607 1.73656 5.02354 2.23584C4.92421 2.22854 4.82474 2.22322 4.72519 2.21991L4.7068 2.15306C4.59992 1.76066 4.47866 1.31605 4.13704 1.31592H4.13691C3.99765 1.31592 3.85113 1.39792 3.6888 1.56646C3.56794 1.69213 3.44836 1.75314 3.32309 1.75314C3.17035 1.75314 3.01399 1.66557 2.86267 1.58097C2.70968 1.49547 2.55163 1.40699 2.38814 1.40699C2.19433 1.40699 2.0368 1.52579 1.90648 1.77024C1.75762 2.04955 1.84041 2.23403 1.92047 2.41255C1.95545 2.49041 1.99211 2.57293 2.01815 2.67423C1.15056 3.04682 0.595703 3.611 0.595703 4.24359C0.595703 5.99677 2.3358 8.0527 4.48216 8.0527C6.62865 8.0527 8.36862 5.99677 8.36862 4.24359C8.36862 3.86971 8.17196 3.52045 7.83449 3.21963ZM4.48216 7.78855C2.84842 7.78855 1.47469 6.50654 1.01777 5.16403C1.6602 5.8233 2.96981 6.27504 4.48216 6.27504C5.99451 6.27504 7.30386 5.8233 7.94629 5.16416C7.48937 6.50641 6.11577 7.78855 4.48216 7.78855ZM5.92468 5.52327C5.89346 5.62146 5.79643 5.7707 5.67608 5.87577C5.49031 6.03783 5.26386 6.07268 5.15594 5.95946C5.06526 5.86385 5.08016 5.68624 5.18431 5.52003C5.39755 5.17957 5.70329 5.10495 5.83594 5.17232C5.83335 5.18165 5.82972 5.19059 5.82791 5.20056C5.80952 5.30407 5.84281 5.41263 5.92468 5.52327ZM7.91559 3.85883C7.78876 3.85883 7.72774 4.21016 7.71867 4.43104C7.71064 4.62575 7.65442 4.69066 7.57397 4.69066C7.45815 4.69066 7.29207 4.55645 7.1471 4.48053C7.10073 4.45618 7.0651 4.44542 7.03712 4.44542C6.95408 4.44542 6.93892 4.54245 6.91042 4.67978C6.86236 4.91154 6.8051 5.15198 6.67943 5.35187C6.5872 5.49865 6.44456 5.60074 6.30167 5.60074C6.20775 5.60074 6.1137 5.55669 6.03363 5.4524C5.71883 5.04329 6.41036 4.9596 6.5482 4.67913C6.628 4.51693 6.60248 4.46045 6.52942 4.46045C6.38562 4.46045 6.05773 4.67991 5.99011 4.74196C5.87066 4.85117 5.73347 5.01207 5.56558 5.01207C5.5372 5.01207 5.5078 5.0074 5.47748 4.99717C5.29935 4.93706 5.27435 4.71294 5.31205 4.54647C5.3434 4.40734 5.41556 4.28232 5.22953 4.2752C5.22297 4.27494 5.2164 4.27481 5.20984 4.27481C5.09 4.27481 4.96758 4.31419 4.85889 4.36342C4.72701 4.42327 4.5446 4.53028 4.4968 4.68742C4.4819 4.73574 4.80176 4.78614 4.8515 4.80531C5.10076 4.90273 5.22266 5.37182 4.96188 5.37182C4.9282 5.37182 4.88817 5.36392 4.84114 5.34682C4.67765 5.2858 4.51325 5.19953 4.34212 5.19953C4.28589 5.19953 4.22902 5.20885 4.17137 5.23152C4.05193 5.27842 3.98664 5.41224 3.89258 5.49606C3.75345 5.62095 3.63038 5.68805 3.53374 5.68805C3.40056 5.68805 3.31765 5.56058 3.31234 5.28062C3.30767 5.05314 3.26402 4.97942 3.19341 4.97942C3.06749 4.97942 2.85607 5.21455 2.62897 5.23191C2.62236 5.2323 2.61601 5.23256 2.60992 5.23256C2.30691 5.23256 2.4248 4.65646 2.44838 4.47885C2.47416 4.28517 2.3573 4.21638 2.17736 4.21638C1.97514 4.21638 1.69389 4.30318 1.44619 4.39736C1.45811 4.40798 1.47054 4.41731 1.48194 4.42897C1.70865 4.65516 1.78315 4.95351 1.6488 5.09485C1.5142 5.23593 1.22155 5.16688 0.995101 4.94043C0.768651 4.71398 0.693901 4.41563 0.828502 4.27442C0.943411 4.15303 1.12206 4.19384 1.27402 4.27481C1.47262 4.20809 1.67407 4.14992 1.6694 4.05613C1.63403 3.34672 1.83522 3.21432 1.99055 3.21445C2.04976 3.21593 2.10768 3.23209 2.1591 3.26148C2.29927 2.35865 1.77343 2.29738 2.02048 1.83372C2.13746 1.6144 2.25963 1.53952 2.3884 1.53952C2.66524 1.53952 2.9724 1.88554 3.32335 1.88554C3.46831 1.88554 3.62079 1.82634 3.78156 1.65935C3.92575 1.50959 4.04182 1.44832 4.1373 1.44832C4.56442 1.44845 4.57582 2.67514 4.82002 2.67514C4.86692 2.67514 4.9225 2.62993 4.99103 2.52214C5.34923 1.95964 5.5398 1.79292 5.65224 1.79292C5.81625 1.79292 5.81405 2.14762 5.92248 2.14762C5.94476 2.14762 5.97197 2.13246 6.00617 2.09606C6.18611 1.90446 6.3246 1.81675 6.42332 1.81675C6.65612 1.81675 6.66764 2.30398 6.47799 3.06301C6.47799 3.06301 6.52035 3.07376 6.5824 3.07376C6.71467 3.07376 6.93581 3.02518 7.02235 2.72152C7.07689 2.53031 7.18299 2.4518 7.29621 2.4518C7.47499 2.4518 7.67126 2.64742 7.70947 2.90328C7.77904 3.37056 7.47085 3.70155 7.49494 3.8425C7.49909 3.86751 7.51139 3.87735 7.52979 3.87735C7.59884 3.87735 7.75391 3.73679 7.88929 3.73679C7.99021 3.73679 8.08037 3.81517 8.11509 4.08903C8.03581 3.92308 7.96974 3.85883 7.91559 3.85883Z" fill="black"/>
</g>
<defs>
<clipPath id="clip0_236_3767">
<rect width="8.29111" height="8.29111" fill="white" transform="translate(0.336914 0.0207214)"/>
</clipPath>
</defs>
</svg>
