<svg width="15" height="15" viewBox="0 0 15 15" fill="none" xmlns="http://www.w3.org/2000/svg">
<g id="emojione-monotone:green-salad">
<path id="Vector" d="M9.33735 6.62836C9.20094 6.22243 8.99282 6.07711 8.75212 6.07711C8.45868 6.07711 8.11649 6.2925 7.79469 6.51563C7.60321 6.64875 6.86188 7.46743 6.45758 7.46743C6.41125 7.46868 6.36572 7.45522 6.32751 7.42899C5.93282 7.14961 6.42735 5.93227 6.42735 5.34844C6.42735 4.78336 6.32469 4.5675 6.16743 4.5675C5.73266 4.5675 4.88094 6.2229 4.64352 6.70055C4.57649 6.83532 4.48297 6.88852 4.37446 6.88852C3.99501 6.88852 3.43063 6.23579 3.17141 6.13571C3.13274 6.12001 3.0915 6.11159 3.04977 6.11086C2.61665 6.11086 2.62602 7.18829 2.63258 7.47422C2.8693 7.40954 3.09126 7.36969 3.28532 7.36969C3.77446 7.36969 4.08547 7.62305 4.00438 8.36672C3.9861 8.53383 3.8804 9.06633 4.05337 9.18375C4.08113 9.20181 4.11378 9.21089 4.14688 9.20977C4.34633 9.20977 4.66227 8.96391 4.77969 8.88891C4.93766 8.78766 5.10337 8.7136 5.24352 8.7136C5.41227 8.7136 5.54399 8.82071 5.58172 9.11719C5.60422 9.29274 5.51821 9.96071 5.69024 10.0673C5.71548 10.0825 5.74445 10.0904 5.77391 10.0901C6.09149 10.0901 6.6336 9.29649 6.87899 9.20555C6.9942 9.16288 7.11613 9.14121 7.23899 9.14157C7.56547 9.14157 7.87602 9.28571 8.1936 9.40758C8.24704 9.42821 8.29063 9.43711 8.32602 9.43711C8.51797 9.43711 8.46219 9.17063 8.2979 9.00024C8.0586 8.75086 7.67891 8.86032 7.41266 8.68172C7.07446 8.45485 7.54532 7.99899 7.72813 7.86375C7.94633 7.70204 8.43008 7.44211 8.8161 7.44211C8.99493 7.44211 9.15266 7.4979 9.25297 7.64461C9.44258 7.92188 9.12712 8.27204 9.2068 8.58329C9.24032 8.71243 9.32141 8.75696 9.41751 8.75696C9.62211 8.75696 9.89329 8.55493 9.91204 8.53571C10.0367 8.40613 10.1709 8.28603 10.3135 8.17641C9.60102 8.01868 9.54055 7.23446 9.33735 6.62836Z" fill="white"/>
<path id="Vector_2" d="M3.49597 6.04424C3.49597 6.04424 4.11214 6.58775 4.37534 6.58775C4.42574 6.58775 4.46347 6.56783 4.48105 6.51955C4.8598 5.48244 5.66066 4.29721 6.18355 4.29721C6.41159 4.29721 6.58667 4.52291 6.65042 5.08541C6.73292 5.81361 6.22925 6.91729 6.47136 7.16877C6.47664 7.1741 6.48297 7.17827 6.48995 7.18102C6.49693 7.18376 6.50441 7.18502 6.51191 7.18471C6.78402 7.18471 7.85909 5.80799 8.77925 5.80799C8.85006 5.80781 8.92062 5.81655 8.98925 5.834C9.81823 6.04658 9.45894 7.4601 10.1318 7.86393C10.2432 7.93179 10.371 7.96816 10.5014 7.96916C10.7494 7.96916 10.9758 7.82783 11.03 7.53557C11.1666 6.79775 8.82331 5.3676 10.091 5.3676C10.2729 5.3676 10.5291 5.39689 10.8774 5.46205C11.0848 4.0408 11.0124 3.64682 10.8267 3.64682C10.6151 3.64682 10.256 4.15846 9.99472 4.24658C9.98716 4.24912 9.97925 4.25046 9.97128 4.25057C9.82198 4.25057 9.82714 3.71291 9.57167 3.71291C9.40667 3.71291 9.13316 3.93721 8.63956 4.67455C8.38503 5.05494 8.19448 5.20541 8.04402 5.20541C7.47167 5.20541 7.48784 3.01611 6.80113 3.01611C6.66238 3.01611 6.49503 3.10541 6.28831 3.31986C5.97097 3.64939 5.67472 3.76611 5.39745 3.76611C4.72222 3.76611 4.16277 3.0726 3.7041 3.0726C3.52316 3.0726 3.35745 3.18064 3.20699 3.48252C2.8955 4.10854 3.95019 4.07619 3.49597 6.04424ZM4.30292 6.32596C4.17964 6.27064 3.96074 6.12252 3.75542 5.95377C3.79339 5.76791 3.81683 5.60104 3.83042 5.44729C3.88831 5.35025 3.95956 5.25463 4.04652 5.16604C4.40066 4.80486 4.85441 4.69072 5.07683 4.89932C4.75972 5.33643 4.48058 5.8715 4.30292 6.32596ZM9.50862 5.39455C9.39284 5.66854 9.61808 5.95775 9.96284 6.3358C9.93879 6.36208 9.9108 6.38446 9.87987 6.40213C9.84704 6.42033 9.81139 6.43293 9.77441 6.4394C9.66472 6.06908 9.48073 5.71354 9.04644 5.60221C8.98262 5.58663 8.9175 5.57698 8.85191 5.57338C8.73425 5.19088 8.78886 4.83158 9.01175 4.70736C9.25737 4.56979 9.6155 4.76619 9.85995 5.14729C9.72378 5.1733 9.57566 5.23611 9.50862 5.39455Z" fill="white"/>
<path id="Vector_3" d="M11.252 7.5408C11.2006 7.87619 11.6881 7.93619 11.4552 8.48556C11.3356 8.76658 10.3234 9.41439 10.3979 9.55619C10.5083 9.76361 10.6409 9.84423 10.7752 9.84423C11.041 9.84423 11.3117 9.52877 11.4207 9.25548C11.5634 8.89806 11.6002 7.95986 11.948 7.78595C12.0069 7.75619 12.065 7.74306 12.1224 7.74306C12.4658 7.74306 12.7866 8.20736 13.096 8.27017C13.1715 7.93408 13.1176 7.58533 13.1945 7.24736C11.8885 7.23095 13.9201 5.44619 12.7592 4.71799C12.6966 4.67884 12.6441 4.66127 12.5982 4.6615C12.2328 4.6615 12.3179 5.78041 11.3947 5.78041C11.3211 5.78041 11.2407 5.77314 11.1533 5.75767C10.8155 5.69814 10.5823 5.67049 10.4298 5.67049C9.54054 5.67095 11.3961 6.60634 11.252 7.5408Z" fill="white"/>
<path id="Vector_4" d="M13.5649 5.7874C13.5982 5.58609 13.6 5.38081 13.5701 5.17896C13.4862 4.6167 13.0467 4.1592 12.5906 4.15896C12.4348 4.15896 12.0616 4.22389 11.8852 4.77771C11.7665 4.72812 11.6467 4.68124 11.5259 4.63709C11.6302 3.93514 11.591 3.45396 11.4037 3.20811C11.3586 3.14659 11.2995 3.09661 11.2314 3.06224C11.1632 3.02787 11.088 3.01007 11.0116 3.01029C10.7665 3.01029 10.4911 3.17436 10.1489 3.52521L10.1365 3.49193C10.0638 3.29553 9.94242 2.96693 9.61664 2.96693C9.39398 2.96693 9.09914 3.10428 8.47945 4.00756C8.29974 3.99434 8.11978 3.98473 7.93969 3.97873L7.90641 3.85779C7.71305 3.14787 7.49367 2.3435 6.87562 2.34326H6.87539C6.62344 2.34326 6.35836 2.49162 6.06469 2.79654C5.84601 3.02389 5.62969 3.13428 5.40305 3.13428C5.12672 3.13428 4.84383 2.97584 4.57008 2.82279C4.29328 2.66811 4.00734 2.50803 3.71156 2.50803C3.36094 2.50803 3.07594 2.72295 2.84016 3.16521C2.57086 3.67053 2.72062 4.00428 2.86547 4.32725C2.92875 4.46811 2.99508 4.6174 3.04219 4.80068C1.47258 5.47475 0.46875 6.49545 0.46875 7.6399C0.46875 10.8117 3.61687 14.5312 7.5 14.5312C11.3834 14.5312 14.5312 10.8117 14.5312 7.6399C14.5312 6.9635 14.1755 6.33162 13.5649 5.7874ZM7.5 14.0533C4.5443 14.0533 2.05898 11.734 1.23234 9.30514C2.39461 10.4979 4.76391 11.3151 7.5 11.3151C10.2361 11.3151 12.6049 10.4979 13.7672 9.30537C12.9405 11.7337 10.4555 14.0533 7.5 14.0533ZM10.1098 9.95506C10.0533 10.1327 9.87773 10.4027 9.66 10.5928C9.32391 10.886 8.91422 10.949 8.71898 10.7442C8.55492 10.5712 8.58187 10.2499 8.77031 9.9492C9.15609 9.33326 9.70922 9.19826 9.94922 9.32014C9.94453 9.33701 9.93797 9.35318 9.93469 9.37123C9.90141 9.5585 9.96164 9.7549 10.1098 9.95506ZM13.7116 6.94381C13.4822 6.94381 13.3718 7.57943 13.3554 7.97904C13.3409 8.33131 13.2391 8.44873 13.0936 8.44873C12.8841 8.44873 12.5836 8.20592 12.3213 8.06857C12.2374 8.02451 12.173 8.00506 12.1223 8.00506C11.9721 8.00506 11.9447 8.1806 11.8931 8.42904C11.8062 8.84834 11.7026 9.28334 11.4752 9.64498C11.3084 9.91053 11.0503 10.0952 10.7918 10.0952C10.6219 10.0952 10.4517 10.0155 10.3069 9.82685C9.73734 9.0867 10.9884 8.93529 11.2378 8.42787C11.3822 8.13443 11.336 8.03225 11.2038 8.03225C10.9437 8.03225 10.3505 8.42928 10.2281 8.54154C10.012 8.73912 9.76383 9.03021 9.46008 9.03021C9.40875 9.03021 9.35555 9.02178 9.3007 9.00326C8.97844 8.89451 8.9332 8.48904 9.00141 8.18787C9.05812 7.93615 9.18867 7.70998 8.85211 7.69709C8.84024 7.69662 8.82836 7.69639 8.81648 7.69639C8.59969 7.69639 8.3782 7.76764 8.18156 7.8567C7.94297 7.96498 7.61297 8.15857 7.52648 8.44287C7.49953 8.53029 8.0782 8.62146 8.1682 8.65615C8.61914 8.8324 8.83969 9.68107 8.36789 9.68107C8.30695 9.68107 8.23453 9.66678 8.14945 9.63584C7.85367 9.52545 7.55625 9.36935 7.24664 9.36935C7.14492 9.36935 7.04203 9.38623 6.93773 9.42724C6.72164 9.51209 6.60352 9.7542 6.43336 9.90584C6.18164 10.1318 5.95898 10.2532 5.78414 10.2532C5.5432 10.2532 5.3932 10.0226 5.38359 9.51607C5.37516 9.10451 5.29617 8.97115 5.16844 8.97115C4.94062 8.97115 4.55812 9.39654 4.14727 9.42795C4.13531 9.42865 4.12383 9.42912 4.11281 9.42912C3.56461 9.42912 3.77789 8.38685 3.82055 8.06553C3.86719 7.71514 3.65578 7.59068 3.33023 7.59068C2.96437 7.59068 2.45555 7.74771 2.00742 7.9181C2.02898 7.93732 2.05148 7.9542 2.07211 7.97529C2.48227 8.38451 2.61703 8.92428 2.37398 9.17998C2.13047 9.43521 1.60102 9.31029 1.19133 8.9006C0.781641 8.49092 0.646406 7.95115 0.889922 7.69568C1.09781 7.47607 1.42102 7.5499 1.69594 7.69639C2.05523 7.57568 2.41969 7.47045 2.41125 7.30076C2.34727 6.01732 2.71125 5.77779 2.99227 5.77803C3.09938 5.78069 3.20416 5.80993 3.29719 5.86311C3.55078 4.22975 2.59945 4.11889 3.04641 3.28006C3.25805 2.88326 3.47906 2.74779 3.71203 2.74779C4.21289 2.74779 4.76859 3.37381 5.40352 3.37381C5.66578 3.37381 5.94164 3.2667 6.2325 2.96459C6.49336 2.69365 6.70336 2.58279 6.87609 2.58279C7.64883 2.58303 7.66945 4.80232 8.11125 4.80232C8.19609 4.80232 8.29664 4.72053 8.42062 4.52553C9.06867 3.50787 9.41344 3.20623 9.61687 3.20623C9.91359 3.20623 9.90961 3.84795 10.1058 3.84795C10.1461 3.84795 10.1953 3.82053 10.2572 3.75467C10.5827 3.40803 10.8333 3.24936 11.0119 3.24936C11.433 3.24936 11.4539 4.13084 11.1108 5.50404C11.1108 5.50404 11.1874 5.5235 11.2997 5.5235C11.539 5.5235 11.9391 5.43561 12.0956 4.88623C12.1943 4.54029 12.3862 4.39826 12.5911 4.39826C12.9145 4.39826 13.2696 4.75217 13.3387 5.21506C13.4646 6.06045 12.907 6.65928 12.9506 6.91428C12.9581 6.95951 12.9804 6.97732 13.0137 6.97732C13.1386 6.97732 13.4191 6.72303 13.6641 6.72303C13.8466 6.72303 14.0098 6.86482 14.0726 7.36029C13.9291 7.06006 13.8096 6.94381 13.7116 6.94381Z" fill="white"/>
</g>
</svg>
