<svg width="9" height="9" viewBox="0 0 9 9" fill="none" xmlns="http://www.w3.org/2000/svg">
<path fill-rule="evenodd" clip-rule="evenodd" d="M1.34121 3.68822L0.636719 1.80137L2.25417 0.71586L2.76522 2.08451V1.33417L4.78632 0.890595V1.69753L6.54351 1.09373L6.52359 1.30308L6.87295 0.341309H8.92783L8.12834 2.25448L8.63852 2.16079L8.01862 3.82192C8.05876 3.79393 8.09947 3.76574 8.13989 3.73693C8.19473 3.69705 8.2656 3.6705 8.34254 3.66104C8.41948 3.65157 8.49862 3.65966 8.56883 3.68416C8.63903 3.70866 8.69678 3.74835 8.73393 3.79763C8.77108 3.84692 8.78578 3.90333 8.77596 3.95893L8.02584 8.26927C8.00839 8.36955 7.94051 8.4618 7.83497 8.52867C7.72942 8.59555 7.59349 8.63244 7.45272 8.63242H2.11991C1.97919 8.63239 1.84333 8.59547 1.73785 8.5286C1.63237 8.46173 1.56453 8.36951 1.54708 8.26927L0.796674 3.95996C0.788278 3.91133 0.798559 3.86197 0.826408 3.81723C0.854256 3.77248 0.898611 3.73405 0.954678 3.7061C1.01075 3.67814 1.07639 3.66172 1.14452 3.6586C1.21264 3.65549 1.28066 3.6658 1.34121 3.68843V3.68822ZM6.97805 2.98762L7.79804 2.81102L7.23213 4.32664C6.91049 4.51464 6.60357 4.66865 6.30618 4.78825L6.97805 2.98762ZM5.59389 5.01252L5.90023 1.77422L5.15242 2.03104L4.86196 5.10082C5.11049 5.09608 5.35686 5.06636 5.59389 5.01252ZM3.34268 4.8069C3.6392 4.92173 3.9262 5.00319 4.20886 5.05087V1.45024L3.34268 1.64053V4.80669V4.8069ZM2.12598 4.18921C2.33145 4.31558 2.54474 4.43523 2.76522 4.5478V3.68511L1.94552 1.49046L1.28434 1.93424L2.12598 4.18921ZM7.47553 2.37429L6.67806 2.52063L7.31904 0.755864H8.15173L7.47553 2.37429Z" fill="black"/>
</svg>
