<svg width="15" height="15" viewBox="0 0 15 15" fill="none" xmlns="http://www.w3.org/2000/svg">
<path id="Vector" fill-rule="evenodd" clip-rule="evenodd" d="M1.27455 6.05512L0 2.6415L2.92624 0.677625L3.85081 3.15375V1.79625L7.50731 0.99375V2.45363L10.6864 1.36125L10.6503 1.74L11.2824 0H15L13.5536 3.46125L14.4766 3.29175L13.3551 6.297C13.4277 6.24638 13.5014 6.19537 13.5745 6.14325C13.6737 6.07109 13.8019 6.02307 13.9411 6.00594C14.0803 5.98881 14.2235 6.00344 14.3505 6.04777C14.4775 6.0921 14.582 6.1639 14.6492 6.25307C14.7164 6.34224 14.743 6.44429 14.7252 6.54487L13.3682 14.343C13.3366 14.5244 13.2138 14.6913 13.0228 14.8123C12.8319 14.9333 12.586 15 12.3313 15H2.68335C2.42876 14.9999 2.18296 14.9332 1.99212 14.8122C1.80129 14.6912 1.67856 14.5244 1.64699 14.343L0.289386 6.54675C0.274195 6.45876 0.292797 6.36946 0.343179 6.28851C0.393561 6.20756 0.473807 6.13804 0.575242 6.08746C0.676676 6.03688 0.79544 6.00717 0.918693 6.00154C1.04195 5.9959 1.165 6.01456 1.27455 6.0555V6.05512ZM11.4725 4.78763L12.956 4.46812L11.9322 7.21012C11.3503 7.55025 10.795 7.82888 10.257 8.04525L11.4725 4.78763ZM8.96835 8.451L9.52257 2.59238L8.16966 3.057L7.64417 8.61075C8.09379 8.60217 8.53952 8.5484 8.96835 8.451ZM4.89553 8.079C5.43199 8.28675 5.95121 8.43412 6.4626 8.52038V2.00625L4.89553 2.3505V8.07862V8.079ZM2.69432 6.9615C3.06605 7.19011 3.45194 7.40658 3.85081 7.61025V6.0495L2.36784 2.079L1.17165 2.88188L2.69432 6.9615ZM12.3725 3.678L10.9298 3.94275L12.0894 0.75H13.5959L12.3725 3.678Z" fill="white"/>
</svg>
