<svg width="9" height="9" viewBox="0 0 9 9" fill="none" xmlns="http://www.w3.org/2000/svg">
<path d="M5.26009 3.96867C5.26009 4.15759 5.28438 4.38161 5.33295 4.6407C5.33835 4.66769 5.38288 4.7635 5.46654 4.92814C5.5502 5.09277 5.62306 5.29114 5.68513 5.52325C5.7472 5.75536 5.77823 6.01446 5.77823 6.30054H5.26009C5.26009 6.29515 5.25604 6.24657 5.24795 6.1548C5.23985 6.06304 5.22905 5.96723 5.21556 5.86737C5.20207 5.76751 5.18588 5.65955 5.16699 5.54349C5.14809 5.42744 5.12516 5.31948 5.09817 5.21962C5.07118 5.11976 5.0388 5.04824 5.00102 5.00506C4.87688 4.87551 4.80267 4.74731 4.77838 4.62046C4.75409 4.49361 4.74195 4.27635 4.74195 3.96867C4.74195 3.53684 4.84315 3.16979 5.04555 2.86751C5.24795 2.56523 5.49217 2.41409 5.77823 2.41409C5.85919 2.41409 5.94555 2.43028 6.0373 2.46267C5.81062 2.55443 5.62441 2.73796 5.47868 3.01325C5.33295 3.28854 5.26009 3.60701 5.26009 3.96867ZM3.70566 1.99305C3.70566 2.19817 3.72995 2.43838 3.77852 2.71367C4.07538 3.04833 4.2238 3.50175 4.2238 4.07393C4.2238 5.01855 4.13744 5.67439 3.96473 6.04145C3.79202 5.25876 3.70566 4.60292 3.70566 4.07393C3.70566 3.65829 3.68137 3.41809 3.63279 3.35331C3.33594 3.01865 3.18751 2.56523 3.18751 1.99305C3.18751 1.53963 3.28871 1.15099 3.49111 0.827116C3.69351 0.503244 3.93774 0.341309 4.2238 0.341309C4.30476 0.341309 4.39112 0.360201 4.48287 0.397986C4.25619 0.48975 4.06998 0.684073 3.92425 0.980955C3.77852 1.27784 3.70566 1.6152 3.70566 1.99305ZM7.17884 7.63651C7.0655 7.90641 6.91842 8.13986 6.73761 8.33689C6.5568 8.53391 6.36654 8.63242 6.16684 8.63242H2.79891C2.59921 8.63242 2.4076 8.53256 2.22409 8.33284C2.04058 8.13312 1.89216 7.89561 1.77881 7.62032C1.68706 7.56634 1.54942 7.48807 1.36592 7.38551C1.18241 7.28295 1.04477 7.20469 0.953019 7.15071C0.861265 7.09673 0.758715 7.0306 0.645372 6.95234C0.532028 6.87407 0.451068 6.80389 0.402492 6.74182C0.353916 6.67974 0.332326 6.61902 0.337724 6.55964H8.62802C8.62802 6.64061 8.60374 6.71888 8.55516 6.79445C8.50658 6.87002 8.42697 6.94559 8.31633 7.02116C8.20568 7.09673 8.10178 7.16015 8.00463 7.21143C7.90748 7.26271 7.7712 7.33288 7.59578 7.42195C7.42037 7.51101 7.28139 7.58254 7.17884 7.63651Z" fill="black"/>
</svg>
