<svg width="15" height="15" viewBox="0 0 15 15" fill="none" xmlns="http://www.w3.org/2000/svg">
<path id="Vector" d="M8.90685 6.5625C8.90685 6.9043 8.95079 7.30957 9.03867 7.77832C9.04843 7.82715 9.12899 8.00049 9.28034 8.29834C9.4317 8.59619 9.56352 8.95508 9.67581 9.375C9.78811 9.79492 9.84425 10.2637 9.84425 10.7812H8.90685C8.90685 10.7715 8.89952 10.6836 8.88487 10.5176C8.87023 10.3516 8.8507 10.1782 8.82629 9.99756C8.80188 9.81689 8.77258 9.62158 8.7384 9.41162C8.70423 9.20166 8.66273 9.00635 8.6139 8.82568C8.56508 8.64502 8.50649 8.51562 8.43814 8.4375C8.21355 8.20312 8.07929 7.97119 8.03535 7.7417C7.99141 7.51221 7.96944 7.11914 7.96944 6.5625C7.96944 5.78125 8.15252 5.11719 8.5187 4.57031C8.88487 4.02344 9.32673 3.75 9.84425 3.75C9.99072 3.75 10.147 3.7793 10.313 3.83789C9.90284 4.00391 9.56596 4.33594 9.30231 4.83398C9.03867 5.33203 8.90685 5.9082 8.90685 6.5625ZM6.09462 2.98828C6.09462 3.35938 6.13856 3.79395 6.22644 4.29199C6.7635 4.89746 7.03203 5.71777 7.03203 6.75293C7.03203 8.46191 6.87579 9.64844 6.56332 10.3125C6.25085 8.89648 6.09462 7.70996 6.09462 6.75293C6.09462 6.00098 6.05068 5.56641 5.9628 5.44922C5.42574 4.84375 5.15721 4.02344 5.15721 2.98828C5.15721 2.16797 5.3403 1.46484 5.70647 0.878906C6.07265 0.292969 6.5145 0 7.03203 0C7.1785 0 7.33473 0.0341797 7.50073 0.102539C7.09062 0.268555 6.75374 0.620117 6.49009 1.15723C6.22644 1.69434 6.09462 2.30469 6.09462 2.98828ZM12.3782 13.1982C12.1731 13.6865 11.907 14.1089 11.5799 14.4653C11.2528 14.8218 10.9086 15 10.5473 15H4.45415C4.09286 15 3.74622 14.8193 3.41422 14.458C3.08222 14.0967 2.81369 13.667 2.60863 13.1689C2.44263 13.0713 2.19363 12.9297 1.86163 12.7441C1.52964 12.5586 1.28064 12.417 1.11464 12.3193C0.948638 12.2217 0.763109 12.1021 0.558051 11.9604C0.352993 11.8188 0.206523 11.6919 0.118641 11.5796C0.0307587 11.4673 -0.00829997 11.3574 0.0014647 11.25H15C15 11.3965 14.9561 11.5381 14.8682 11.6748C14.7803 11.8115 14.6363 11.9482 14.4361 12.085C14.2359 12.2217 14.0479 12.3364 13.8722 12.4292C13.6964 12.522 13.4499 12.6489 13.1325 12.8101C12.8152 12.9712 12.5637 13.1006 12.3782 13.1982Z" fill="white"/>
</svg>
