<svg width="15" height="15" viewBox="0 0 15 15" fill="none" xmlns="http://www.w3.org/2000/svg">
<path id="Vector" d="M3.33262 3.96667V11.0417H6.7319L7.23179 10.2833C8.19825 8.79167 9.93955 8.125 11.2226 8.125C11.6642 8.125 12.0391 8.2 12.3224 8.33333C13.0805 8.675 13.2888 9.31667 13.3305 9.78333C13.3971 10.725 12.9139 11.6917 12.0808 12.2583C11.3309 12.775 9.5313 13.3333 7.39009 13.3333C5.93207 13.3333 3.84085 13.075 1.76629 11.9167C2.00791 9.875 2.49947 6.56667 3.33262 3.96667ZM3.33262 0C0.833156 3.40833 0 12.7833 0 12.7833C2.41615 14.425 5.06559 15 7.39009 15C9.88123 15 11.9891 14.3417 13.0306 13.6333C15.53 11.9333 15.78 8.09167 13.0306 6.81667C12.4973 6.575 11.8808 6.45833 11.2226 6.45833C9.30635 6.45833 7.08182 7.46667 5.83209 9.375H4.99893V3.40833H6.66525L7.4984 0.833333L3.33262 0Z" fill="white"/>
</svg>
