<svg width="9" height="10" viewBox="0 0 9 10" fill="none" xmlns="http://www.w3.org/2000/svg">
<path d="M2.17899 2.93091V6.84155H4.05791L4.33422 6.42239C4.86842 5.59788 5.83091 5.22939 6.54011 5.22939C6.78418 5.22939 6.99141 5.27085 7.14799 5.34454C7.56706 5.5334 7.68219 5.88807 7.70522 6.14602C7.74206 6.66652 7.47496 7.20083 7.01444 7.51405C6.59997 7.79963 5.60525 8.10825 4.42172 8.10825C3.61581 8.10825 2.45991 7.96546 1.31321 7.3252C1.44676 6.19669 1.71847 4.36804 2.17899 2.93091ZM2.17899 0.738373C0.797433 2.6223 0.336914 7.80424 0.336914 7.80424C1.67242 8.71166 3.13687 9.02948 4.42172 9.02948C5.79867 9.02948 6.96378 8.6656 7.53943 8.27407C8.92099 7.33441 9.05914 5.21097 7.53943 4.50622C7.2447 4.37264 6.90392 4.30816 6.54011 4.30816C5.48091 4.30816 4.25133 4.8655 3.56055 5.92032H3.10003V2.6223H4.02107L4.48159 1.19899L2.17899 0.738373Z" fill="black"/>
</svg>
