<svg width="15" height="13" viewBox="0 0 15 13" fill="none" xmlns="http://www.w3.org/2000/svg">
<g id="Group">
<path id="Vector" d="M11.1339 3.79736C10.9696 3.647 10.7906 3.51351 10.5995 3.39892L10.1414 3.12392C9.7167 2.8692 9.24972 2.69276 8.76267 2.60298L8.59892 2.57267C7.71839 2.41011 6.8692 2.10898 6.08298 1.68048C6.04752 1.52331 5.96924 1.37903 5.8568 1.26363C5.74437 1.14823 5.60217 1.06622 5.44598 1.02668C5.28979 0.98714 5.1257 0.991624 4.9719 1.03963C4.8181 1.08764 4.6806 1.1773 4.57463 1.29867C4.46866 1.42004 4.39837 1.56838 4.37155 1.72725C4.34473 1.88612 4.36242 2.04931 4.42267 2.19874C4.48291 2.34818 4.58336 2.47801 4.71287 2.57385C4.84238 2.66969 4.99591 2.7278 5.15642 2.74173C5.67391 3.24795 6.11113 3.83018 6.45298 4.46829" stroke="white" stroke-linecap="round" stroke-linejoin="round"/>
<path id="Vector_2" d="M3.42406 6.77234C3.34219 6.85984 2.39062 7.90672 2.39062 8.95359C2.39062 10.0473 2.8775 10.5161 3.32812 10.8286C3.77875 11.1411 4.49063 11.4536 5.08125 11.4536C5.67188 11.4536 8.79688 11.7661 10.2031 11.4536C11.6094 11.1411 11.7656 10.8286 12.3906 10.2036C12.7284 9.86578 12.9787 9.39047 13.1375 9.02547C13.2897 8.67135 13.4125 8.30532 13.5047 7.93109C13.6172 7.48234 13.7306 6.83797 13.6406 6.29734C13.4844 5.35984 13.0156 4.73484 11.4531 3.95359C10.0144 3.23422 8.75094 3.57484 8.56 3.63328C8.54311 3.63855 8.52634 3.64418 8.50969 3.65016C8.25969 3.73859 6.23937 4.46141 5.38156 5.04734C4.50594 5.64547 3.51844 6.67297 3.43531 6.76016C3.43153 6.76409 3.42778 6.76804 3.42406 6.77203V6.77234Z" stroke="white" stroke-linecap="round" stroke-linejoin="round"/>
<path id="Vector_3" d="M1.79705 5.2067C1.63653 5.19276 1.48301 5.13466 1.3535 5.03881C1.22398 4.94297 1.12354 4.81314 1.06329 4.66371C1.00304 4.51428 0.985353 4.35108 1.01218 4.19221C1.039 4.03334 1.10929 3.885 1.21525 3.76363C1.32122 3.64226 1.45872 3.55261 1.61252 3.5046C1.76632 3.45659 1.93041 3.45211 2.08661 3.49164C2.2428 3.53118 2.38499 3.6132 2.49743 3.7286C2.60986 3.844 2.68815 3.98828 2.72361 4.14545C3.50984 4.57385 4.35903 4.87488 5.23955 5.03732L5.4033 5.06763C5.89048 5.15763 6.35736 5.3342 6.78205 5.58888L7.24017 5.86388C7.54626 6.04755 7.82081 6.27926 8.0533 6.55013L8.18017 6.69795C8.36922 6.9183 8.50959 7.1761 8.59209 7.45446C8.67459 7.73283 8.69737 8.02548 8.65892 8.31326L8.65017 8.37951C8.5972 8.77602 8.41781 9.14489 8.13861 9.43138L7.99423 9.5792C7.75945 9.82015 7.46985 10.0007 7.15015 10.1055C6.83045 10.2102 6.49015 10.236 6.1583 10.1808C5.6374 10.0939 5.15518 9.8509 4.77548 9.48388L4.54455 9.26045C4.35885 9.08101 4.19785 8.87767 4.0658 8.65576L3.38705 7.51451L3.18892 7.11763C2.83477 6.4075 2.36432 5.7616 1.79705 5.2067V5.2067Z" stroke="white" stroke-linecap="round" stroke-linejoin="round"/>
</g>
</svg>
